<?xml version="1.0" encoding="UTF-8" standalone="no"?><svg xmlns="http://www.w3.org/2000/svg" xmlns:xlink="http://www.w3.org/1999/xlink" contentScriptType="application/ecmascript" contentStyleType="text/css" height="200px" preserveAspectRatio="none" style="width:373px;height:200px;" version="1.1" viewBox="0 0 373 200" width="373px" zoomAndPan="magnify"><defs><filter height="300%" id="f1aly8u4uayb7u" width="300%" x="-1" y="-1"><feGaussianBlur result="blurOut" stdDeviation="2.0"/><feColorMatrix in="blurOut" result="blurOut2" type="matrix" values="0 0 0 0 0 0 0 0 0 0 0 0 0 0 0 0 0 0 .4 0"/><feOffset dx="4.0" dy="4.0" in="blurOut2" result="blurOut3"/><feBlend in="SourceGraphic" in2="blurOut3" mode="normal"/></filter></defs><g><!--MD5=[2fb8e5c39f171c571369273f3f12a2af]
class CommonItemSO--><rect fill="#FEFECE" filter="url(#f1aly8u4uayb7u)" height="73.6094" id="CommonItemSO" style="stroke: #A80036; stroke-width: 1.5;" width="356" x="6" y="116"/><ellipse cx="130.75" cy="132" fill="#ADD1B2" rx="11" ry="11" style="stroke: #A80036; stroke-width: 1.0;"/><path d="M133.7188,137.6406 Q133.1406,137.9375 132.5,138.0781 Q131.8594,138.2344 131.1563,138.2344 Q128.6563,138.2344 127.3281,136.5938 Q126.0156,134.9375 126.0156,131.8125 Q126.0156,128.6875 127.3281,127.0313 Q128.6563,125.375 131.1563,125.375 Q131.8594,125.375 132.5,125.5313 Q133.1563,125.6875 133.7188,125.9844 L133.7188,128.7031 Q133.0938,128.125 132.5,127.8594 Q131.9063,127.5781 131.2813,127.5781 Q129.9375,127.5781 129.25,128.6563 Q128.5625,129.7188 128.5625,131.8125 Q128.5625,133.9063 129.25,134.9844 Q129.9375,136.0469 131.2813,136.0469 Q131.9063,136.0469 132.5,135.7813 Q133.0938,135.5 133.7188,134.9219 L133.7188,137.6406 Z "/><text fill="#000000" font-family="sans-serif" font-size="12" lengthAdjust="spacingAndGlyphs" textLength="98" x="151.25" y="136.1543">CommonItemSO</text><line style="stroke: #A80036; stroke-width: 1.5;" x1="7" x2="361" y1="148" y2="148"/><line style="stroke: #A80036; stroke-width: 1.5;" x1="7" x2="361" y1="156" y2="156"/><ellipse cx="17" cy="167" fill="#84BE84" rx="3" ry="3" style="stroke: #038048; stroke-width: 1.0;"/><text fill="#000000" font-family="sans-serif" font-size="11" lengthAdjust="spacingAndGlyphs" textLength="79" x="26" y="170.2104">Awake() : void</text><ellipse cx="17" cy="179.8047" fill="#84BE84" rx="3" ry="3" style="stroke: #038048; stroke-width: 1.0;"/><text fill="#000000" font-family="sans-serif" font-size="11" lengthAdjust="spacingAndGlyphs" textLength="330" x="26" y="183.0151">PerformAction(input:ActionInput, actionName:string) : bool</text><!--MD5=[347a1eabe30042236e9d8c2b5c07785b]
class ItemSO--><rect fill="#FEFECE" filter="url(#f1aly8u4uayb7u)" height="48" id="ItemSO" style="stroke: #A80036; stroke-width: 1.5;" width="76" x="76" y="8"/><ellipse cx="91" cy="24" fill="#ADD1B2" rx="11" ry="11" style="stroke: #A80036; stroke-width: 1.0;"/><path d="M93.9688,29.6406 Q93.3906,29.9375 92.75,30.0781 Q92.1094,30.2344 91.4063,30.2344 Q88.9063,30.2344 87.5781,28.5938 Q86.2656,26.9375 86.2656,23.8125 Q86.2656,20.6875 87.5781,19.0313 Q88.9063,17.375 91.4063,17.375 Q92.1094,17.375 92.75,17.5313 Q93.4063,17.6875 93.9688,17.9844 L93.9688,20.7031 Q93.3438,20.125 92.75,19.8594 Q92.1563,19.5781 91.5313,19.5781 Q90.1875,19.5781 89.5,20.6563 Q88.8125,21.7188 88.8125,23.8125 Q88.8125,25.9063 89.5,26.9844 Q90.1875,28.0469 91.5313,28.0469 Q92.1563,28.0469 92.75,27.7813 Q93.3438,27.5 93.9688,26.9219 L93.9688,29.6406 Z "/><text fill="#000000" font-family="sans-serif" font-size="12" lengthAdjust="spacingAndGlyphs" textLength="44" x="105" y="28.1543">ItemSO</text><line style="stroke: #A80036; stroke-width: 1.5;" x1="77" x2="151" y1="40" y2="40"/><line style="stroke: #A80036; stroke-width: 1.5;" x1="77" x2="151" y1="48" y2="48"/><!--MD5=[f648d4a2d5858419da6e913bca316b6f]
class IItemWithActions--><rect fill="#FEFECE" filter="url(#f1aly8u4uayb7u)" height="48" id="IItemWithActions" style="stroke: #A80036; stroke-width: 1.5;" width="135" x="187.5" y="8"/><ellipse cx="202.5" cy="24" fill="#ADD1B2" rx="11" ry="11" style="stroke: #A80036; stroke-width: 1.0;"/><path d="M205.4688,29.6406 Q204.8906,29.9375 204.25,30.0781 Q203.6094,30.2344 202.9063,30.2344 Q200.4063,30.2344 199.0781,28.5938 Q197.7656,26.9375 197.7656,23.8125 Q197.7656,20.6875 199.0781,19.0313 Q200.4063,17.375 202.9063,17.375 Q203.6094,17.375 204.25,17.5313 Q204.9063,17.6875 205.4688,17.9844 L205.4688,20.7031 Q204.8438,20.125 204.25,19.8594 Q203.6563,19.5781 203.0313,19.5781 Q201.6875,19.5781 201,20.6563 Q200.3125,21.7188 200.3125,23.8125 Q200.3125,25.9063 201,26.9844 Q201.6875,28.0469 203.0313,28.0469 Q203.6563,28.0469 204.25,27.7813 Q204.8438,27.5 205.4688,26.9219 L205.4688,29.6406 Z "/><text fill="#000000" font-family="sans-serif" font-size="12" lengthAdjust="spacingAndGlyphs" textLength="103" x="216.5" y="28.1543">IItemWithActions</text><line style="stroke: #A80036; stroke-width: 1.5;" x1="188.5" x2="321.5" y1="40" y2="40"/><line style="stroke: #A80036; stroke-width: 1.5;" x1="188.5" x2="321.5" y1="48" y2="48"/><!--MD5=[8e5ac73ec133b4a51b5cb432716782bb]
reverse link ItemSO to CommonItemSO--><path d="M137.89,73.62 C145.93,87.28 154.83,102.41 162.66,115.71 " fill="none" id="ItemSO&lt;-CommonItemSO" style="stroke: #A80036; stroke-width: 1.0;"/><polygon fill="none" points="131.77,77.01,127.66,56.23,143.84,69.92,131.77,77.01" style="stroke: #A80036; stroke-width: 1.0;"/><!--MD5=[0ca39c02f1776a4a6ee1989d92e2a471]
reverse link IItemWithActions to CommonItemSO--><path d="M230.76,73.62 C222.62,87.28 213.59,102.41 205.65,115.71 " fill="none" id="IItemWithActions&lt;-CommonItemSO" style="stroke: #A80036; stroke-width: 1.0;"/><polygon fill="none" points="224.88,69.82,241.14,56.23,236.91,76.99,224.88,69.82" style="stroke: #A80036; stroke-width: 1.0;"/><!--MD5=[0f11235a97c3f0c351a0ba080cf06eb2]
@startuml
class CommonItemSO {
    + Awake() : void
    + PerformAction(input:ActionInput, actionName:string) : bool
}
ItemSO <|- - CommonItemSO
IItemWithActions <|- - CommonItemSO
@enduml

PlantUML version 1.2020.02(Sun Mar 01 10:22:07 GMT 2020)
(GPL source distribution)
Java Runtime: OpenJDK Runtime Environment
JVM: OpenJDK 64-Bit Server VM
Java Version: 11.0.9+11-Ubuntu-0ubuntu1
Operating System: Linux
Default Encoding: ANSI_X3.4-1968
Language: en
Country: US
--></g></svg>