<?xml version="1.0" encoding="UTF-8" standalone="no"?><svg xmlns="http://www.w3.org/2000/svg" xmlns:xlink="http://www.w3.org/1999/xlink" contentScriptType="application/ecmascript" contentStyleType="text/css" height="360px" preserveAspectRatio="none" style="width:743px;height:360px;" version="1.1" viewBox="0 0 743 360" width="743px" zoomAndPan="magnify"><defs><filter height="300%" id="f5c4e71zwun34" width="300%" x="-1" y="-1"><feGaussianBlur result="blurOut" stdDeviation="2.0"/><feColorMatrix in="blurOut" result="blurOut2" type="matrix" values="0 0 0 0 0 0 0 0 0 0 0 0 0 0 0 0 0 0 .4 0"/><feOffset dx="4.0" dy="4.0" in="blurOut2" result="blurOut3"/><feBlend in="SourceGraphic" in2="blurOut3" mode="normal"/></filter></defs><g><!--MD5=[6c3470d51fde8a8a5dcde66ff081142e]
class InventorySO--><rect fill="#FEFECE" filter="url(#f5c4e71zwun34)" height="176.0469" id="InventorySO" style="stroke: #A80036; stroke-width: 1.5;" width="438" x="6" y="173"/><ellipse cx="183.75" cy="189" fill="#ADD1B2" rx="11" ry="11" style="stroke: #A80036; stroke-width: 1.0;"/><path d="M186.7188,194.6406 Q186.1406,194.9375 185.5,195.0781 Q184.8594,195.2344 184.1563,195.2344 Q181.6563,195.2344 180.3281,193.5938 Q179.0156,191.9375 179.0156,188.8125 Q179.0156,185.6875 180.3281,184.0313 Q181.6563,182.375 184.1563,182.375 Q184.8594,182.375 185.5,182.5313 Q186.1563,182.6875 186.7188,182.9844 L186.7188,185.7031 Q186.0938,185.125 185.5,184.8594 Q184.9063,184.5781 184.2813,184.5781 Q182.9375,184.5781 182.25,185.6563 Q181.5625,186.7188 181.5625,188.8125 Q181.5625,190.9063 182.25,191.9844 Q182.9375,193.0469 184.2813,193.0469 Q184.9063,193.0469 185.5,192.7813 Q186.0938,192.5 186.7188,191.9219 L186.7188,194.6406 Z "/><text fill="#000000" font-family="sans-serif" font-size="12" lengthAdjust="spacingAndGlyphs" textLength="74" x="204.25" y="193.1543">InventorySO</text><line style="stroke: #A80036; stroke-width: 1.5;" x1="7" x2="443" y1="205" y2="205"/><ellipse cx="17" cy="216" fill="none" rx="3" ry="3" style="stroke: #038048; stroke-width: 1.0;"/><text fill="#000000" font-family="sans-serif" font-size="11" lengthAdjust="spacingAndGlyphs" textLength="116" x="26" y="219.2104">Size : int «get» = 10</text><ellipse cx="17" cy="228.8047" fill="none" rx="3" ry="3" style="stroke: #038048; stroke-width: 1.0;"/><text fill="#000000" font-family="sans-serif" font-size="11" lengthAdjust="spacingAndGlyphs" textLength="401" x="26" y="232.0151">«event» OnInventoryUpdated : Action&lt;Dictionary&lt;int, InventoryItem&gt;&gt;</text><line style="stroke: #A80036; stroke-width: 1.5;" x1="7" x2="443" y1="238.6094" y2="238.6094"/><ellipse cx="17" cy="249.6094" fill="#84BE84" rx="3" ry="3" style="stroke: #038048; stroke-width: 1.0;"/><text fill="#000000" font-family="sans-serif" font-size="11" lengthAdjust="spacingAndGlyphs" textLength="88" x="26" y="252.8198">Initialize() : void</text><ellipse cx="17" cy="262.4141" fill="#84BE84" rx="3" ry="3" style="stroke: #038048; stroke-width: 1.0;"/><text fill="#000000" font-family="sans-serif" font-size="11" lengthAdjust="spacingAndGlyphs" textLength="412" x="26" y="265.6245">AddItem(item:ItemSO, quantity:int, itemState:List&lt;ItemParameter&gt;) : int</text><ellipse cx="17" cy="275.2188" fill="#84BE84" rx="3" ry="3" style="stroke: #038048; stroke-width: 1.0;"/><text fill="#000000" font-family="sans-serif" font-size="11" lengthAdjust="spacingAndGlyphs" textLength="255" x="26" y="278.4292">RemoveItem(itemIndex:int, amount:int) : void</text><ellipse cx="17" cy="288.0234" fill="#84BE84" rx="3" ry="3" style="stroke: #038048; stroke-width: 1.0;"/><text fill="#000000" font-family="sans-serif" font-size="11" lengthAdjust="spacingAndGlyphs" textLength="195" x="26" y="291.2339">AddItem(item:InventoryItem) : void</text><ellipse cx="17" cy="300.8281" fill="#84BE84" rx="3" ry="3" style="stroke: #038048; stroke-width: 1.0;"/><text fill="#000000" font-family="sans-serif" font-size="11" lengthAdjust="spacingAndGlyphs" textLength="338" x="26" y="304.0386">GetCurrentInventoryState() : Dictionary&lt;int, InventoryItem&gt;</text><ellipse cx="17" cy="313.6328" fill="#84BE84" rx="3" ry="3" style="stroke: #038048; stroke-width: 1.0;"/><text fill="#000000" font-family="sans-serif" font-size="11" lengthAdjust="spacingAndGlyphs" textLength="226" x="26" y="316.8433">GetItemAt(itemIndex:int) : InventoryItem</text><ellipse cx="17" cy="326.4375" fill="#84BE84" rx="3" ry="3" style="stroke: #038048; stroke-width: 1.0;"/><text fill="#000000" font-family="sans-serif" font-size="11" lengthAdjust="spacingAndGlyphs" textLength="166" x="26" y="329.6479">SplitItem(itemIndex:int) : void</text><ellipse cx="17" cy="339.2422" fill="#84BE84" rx="3" ry="3" style="stroke: #038048; stroke-width: 1.0;"/><text fill="#000000" font-family="sans-serif" font-size="11" lengthAdjust="spacingAndGlyphs" textLength="286" x="26" y="342.4526">SwapItems(itemIndex_1:int, itemIndex_2:int) : void</text><!--MD5=[2fa2e6c8d96871201c4f0ee09c3e8737]
class InventoryItem--><rect fill="#FEFECE" filter="url(#f5c4e71zwun34)" height="105.1563" id="InventoryItem" style="stroke: #A80036; stroke-width: 1.5;" width="301" x="423.5" y="8"/><ellipse cx="527.75" cy="26.9688" fill="#ADD1B2" rx="11" ry="11" style="stroke: #A80036; stroke-width: 1.0;"/><path d="M530.7188,32.6094 Q530.1406,32.9063 529.5,33.0469 Q528.8594,33.2031 528.1563,33.2031 Q525.6563,33.2031 524.3281,31.5625 Q523.0156,29.9063 523.0156,26.7813 Q523.0156,23.6563 524.3281,22 Q525.6563,20.3438 528.1563,20.3438 Q528.8594,20.3438 529.5,20.5 Q530.1563,20.6563 530.7188,20.9531 L530.7188,23.6719 Q530.0938,23.0938 529.5,22.8281 Q528.9063,22.5469 528.2813,22.5469 Q526.9375,22.5469 526.25,23.625 Q525.5625,24.6875 525.5625,26.7813 Q525.5625,28.875 526.25,29.9531 Q526.9375,31.0156 528.2813,31.0156 Q528.9063,31.0156 529.5,30.75 Q530.0938,30.4688 530.7188,29.8906 L530.7188,32.6094 Z "/><text fill="#000000" font-family="sans-serif" font-size="12" font-style="italic" lengthAdjust="spacingAndGlyphs" textLength="50" x="565.25" y="24.1387">«struct»</text><text fill="#000000" font-family="sans-serif" font-size="12" lengthAdjust="spacingAndGlyphs" textLength="84" x="548.25" y="38.1074">InventoryItem</text><line style="stroke: #A80036; stroke-width: 1.5;" x1="424.5" x2="723.5" y1="45.9375" y2="45.9375"/><ellipse cx="434.5" cy="56.9375" fill="none" rx="3" ry="3" style="stroke: #038048; stroke-width: 1.0;"/><text fill="#000000" font-family="sans-serif" font-size="11" lengthAdjust="spacingAndGlyphs" textLength="71" x="443.5" y="60.1479">quantity : int</text><ellipse cx="434.5" cy="69.7422" fill="none" rx="3" ry="3" style="stroke: #038048; stroke-width: 1.0;"/><text fill="#000000" font-family="sans-serif" font-size="11" lengthAdjust="spacingAndGlyphs" textLength="117" x="443.5" y="72.9526">IsEmpty : bool «get»</text><line style="stroke: #A80036; stroke-width: 1.5;" x1="424.5" x2="723.5" y1="79.5469" y2="79.5469"/><ellipse cx="434.5" cy="90.5469" fill="#84BE84" rx="3" ry="3" style="stroke: #038048; stroke-width: 1.0;"/><text fill="#000000" font-family="sans-serif" font-size="11" lengthAdjust="spacingAndGlyphs" textLength="275" x="443.5" y="93.7573">ChangeQuantity(newQuantity:int) : InventoryItem</text><ellipse cx="434.5" cy="103.3516" fill="#84BE84" rx="3" ry="3" style="stroke: #038048; stroke-width: 1.0;"/><text fill="#000000" font-family="sans-serif" font-size="11" lengthAdjust="spacingAndGlyphs" text-decoration="underline" textLength="177" x="443.5" y="106.562">GetEmptyItem() : InventoryItem</text><!--MD5=[e644022de7dea015dd09463c37421447]
class List`1--><rect fill="#FEFECE" filter="url(#f5c4e71zwun34)" height="48" id="List`1" style="stroke: #A80036; stroke-width: 1.5;" width="78" x="479" y="237"/><ellipse cx="494" cy="253" fill="#ADD1B2" rx="11" ry="11" style="stroke: #A80036; stroke-width: 1.0;"/><path d="M496.9688,258.6406 Q496.3906,258.9375 495.75,259.0781 Q495.1094,259.2344 494.4063,259.2344 Q491.9063,259.2344 490.5781,257.5938 Q489.2656,255.9375 489.2656,252.8125 Q489.2656,249.6875 490.5781,248.0313 Q491.9063,246.375 494.4063,246.375 Q495.1094,246.375 495.75,246.5313 Q496.4063,246.6875 496.9688,246.9844 L496.9688,249.7031 Q496.3438,249.125 495.75,248.8594 Q495.1563,248.5781 494.5313,248.5781 Q493.1875,248.5781 492.5,249.6563 Q491.8125,250.7188 491.8125,252.8125 Q491.8125,254.9063 492.5,255.9844 Q493.1875,257.0469 494.5313,257.0469 Q495.1563,257.0469 495.75,256.7813 Q496.3438,256.5 496.9688,255.9219 L496.9688,258.6406 Z "/><text fill="#000000" font-family="sans-serif" font-size="12" lengthAdjust="spacingAndGlyphs" textLength="35" x="508" y="257.1543">List`1</text><rect fill="#FFFFFF" height="15.9688" style="stroke: #000000; stroke-width: 1.0; stroke-dasharray: 2.0,2.0;" width="9" x="551" y="234"/><text fill="#000000" font-family="sans-serif" font-size="12" font-style="italic" lengthAdjust="spacingAndGlyphs" textLength="7" x="552" y="246.1387">T</text><line style="stroke: #A80036; stroke-width: 1.5;" x1="480" x2="556" y1="269" y2="269"/><line style="stroke: #A80036; stroke-width: 1.5;" x1="480" x2="556" y1="277" y2="277"/><!--MD5=[44895057fba17b10f3053a7baa21df04]
class ScriptableObject--><rect fill="#FEFECE" filter="url(#f5c4e71zwun34)" height="48" id="ScriptableObject" style="stroke: #A80036; stroke-width: 1.5;" width="135" x="157.5" y="36.5"/><ellipse cx="172.5" cy="52.5" fill="#ADD1B2" rx="11" ry="11" style="stroke: #A80036; stroke-width: 1.0;"/><path d="M175.4688,58.1406 Q174.8906,58.4375 174.25,58.5781 Q173.6094,58.7344 172.9063,58.7344 Q170.4063,58.7344 169.0781,57.0938 Q167.7656,55.4375 167.7656,52.3125 Q167.7656,49.1875 169.0781,47.5313 Q170.4063,45.875 172.9063,45.875 Q173.6094,45.875 174.25,46.0313 Q174.9063,46.1875 175.4688,46.4844 L175.4688,49.2031 Q174.8438,48.625 174.25,48.3594 Q173.6563,48.0781 173.0313,48.0781 Q171.6875,48.0781 171,49.1563 Q170.3125,50.2188 170.3125,52.3125 Q170.3125,54.4063 171,55.4844 Q171.6875,56.5469 173.0313,56.5469 Q173.6563,56.5469 174.25,56.2813 Q174.8438,56 175.4688,55.4219 L175.4688,58.1406 Z "/><text fill="#000000" font-family="sans-serif" font-size="12" lengthAdjust="spacingAndGlyphs" textLength="103" x="186.5" y="56.6543">ScriptableObject</text><line style="stroke: #A80036; stroke-width: 1.5;" x1="158.5" x2="291.5" y1="68.5" y2="68.5"/><line style="stroke: #A80036; stroke-width: 1.5;" x1="158.5" x2="291.5" y1="76.5" y2="76.5"/><!--MD5=[347a1eabe30042236e9d8c2b5c07785b]
class ItemSO--><rect fill="#FEFECE" filter="url(#f5c4e71zwun34)" height="48" id="ItemSO" style="stroke: #A80036; stroke-width: 1.5;" width="76" x="592" y="237"/><ellipse cx="607" cy="253" fill="#ADD1B2" rx="11" ry="11" style="stroke: #A80036; stroke-width: 1.0;"/><path d="M609.9688,258.6406 Q609.3906,258.9375 608.75,259.0781 Q608.1094,259.2344 607.4063,259.2344 Q604.9063,259.2344 603.5781,257.5938 Q602.2656,255.9375 602.2656,252.8125 Q602.2656,249.6875 603.5781,248.0313 Q604.9063,246.375 607.4063,246.375 Q608.1094,246.375 608.75,246.5313 Q609.4063,246.6875 609.9688,246.9844 L609.9688,249.7031 Q609.3438,249.125 608.75,248.8594 Q608.1563,248.5781 607.5313,248.5781 Q606.1875,248.5781 605.5,249.6563 Q604.8125,250.7188 604.8125,252.8125 Q604.8125,254.9063 605.5,255.9844 Q606.1875,257.0469 607.5313,257.0469 Q608.1563,257.0469 608.75,256.7813 Q609.3438,256.5 609.9688,255.9219 L609.9688,258.6406 Z "/><text fill="#000000" font-family="sans-serif" font-size="12" lengthAdjust="spacingAndGlyphs" textLength="44" x="621" y="257.1543">ItemSO</text><line style="stroke: #A80036; stroke-width: 1.5;" x1="593" x2="667" y1="269" y2="269"/><line style="stroke: #A80036; stroke-width: 1.5;" x1="593" x2="667" y1="277" y2="277"/><!--MD5=[4af2bc20682bc4a2427d802ccf11a5b0]
reverse link ScriptableObject to InventorySO--><path d="M225,104.66 C225,124.65 225,149.15 225,172.74 " fill="none" id="ScriptableObject&lt;-InventorySO" style="stroke: #A80036; stroke-width: 1.0;"/><polygon fill="none" points="218,104.66,225,84.66,232,104.66,218,104.66" style="stroke: #A80036; stroke-width: 1.0;"/><!--MD5=[50fd85ff09eaf9ecb7d892514220140e]
link InventoryItem to ItemSO--><path d="M588.57,113.14 C599.23,150.92 613.29,200.78 621.99,231.6 " fill="none" id="InventoryItem-&gt;ItemSO" style="stroke: #A80036; stroke-width: 1.0;"/><polygon fill="#A80036" points="623.44,236.75,624.848,227.0023,622.0834,231.9376,617.1481,229.1729,623.44,236.75" style="stroke: #A80036; stroke-width: 1.0;"/><text fill="#000000" font-family="sans-serif" font-size="13" lengthAdjust="spacingAndGlyphs" textLength="29" x="565.4825" y="225.877">item</text><!--MD5=[37c996b90b7c6657fe8ac533b9ac4972]
link InventoryItem to List`1--><path d="M559.43,113.14 C548.77,150.92 534.71,200.78 526.01,231.6 " fill="none" id="InventoryItem-&gt;List`1" style="stroke: #A80036; stroke-width: 1.0;"/><polygon fill="#A80036" points="524.56,236.75,530.8519,229.1729,525.9166,231.9376,523.152,227.0023,524.56,236.75" style="stroke: #A80036; stroke-width: 1.0;"/><text fill="#000000" font-family="sans-serif" font-size="13" lengthAdjust="spacingAndGlyphs" textLength="183" x="548.5088" y="225.9093">itemState&lt;ItemParameter&gt;</text><!--MD5=[6310ad77ab0933d4a22797324dedae5a]
@startuml
class InventorySO {
    + Size : int <<get>> = 10
    +  <<event>> OnInventoryUpdated : Action<Dictionary<int, InventoryItem>> 
    + Initialize() : void
    + AddItem(item:ItemSO, quantity:int, itemState:List<ItemParameter>) : int
    + RemoveItem(itemIndex:int, amount:int) : void
    + AddItem(item:InventoryItem) : void
    + GetCurrentInventoryState() : Dictionary<int, InventoryItem>
    + GetItemAt(itemIndex:int) : InventoryItem
    + SplitItem(itemIndex:int) : void
    + SwapItems(itemIndex_1:int, itemIndex_2:int) : void
}
class InventoryItem <<struct>> {
    + quantity : int
    + IsEmpty : bool <<get>>
    + ChangeQuantity(newQuantity:int) : InventoryItem
    + {static} GetEmptyItem() : InventoryItem
}
class "List`1"<T> {
}
ScriptableObject <|- - InventorySO
InventoryItem - -> "item" ItemSO
InventoryItem - -> "itemState<ItemParameter>" "List`1"
@enduml

PlantUML version 1.2020.02(Sun Mar 01 10:22:07 GMT 2020)
(GPL source distribution)
Java Runtime: OpenJDK Runtime Environment
JVM: OpenJDK 64-Bit Server VM
Java Version: 11.0.9+11-Ubuntu-0ubuntu1
Operating System: Linux
Default Encoding: ANSI_X3.4-1968
Language: en
Country: US
--></g></svg>