<?xml version="1.0" encoding="UTF-8" standalone="no"?><svg xmlns="http://www.w3.org/2000/svg" xmlns:xlink="http://www.w3.org/1999/xlink" contentScriptType="application/ecmascript" contentStyleType="text/css" height="187px" preserveAspectRatio="none" style="width:451px;height:187px;" version="1.1" viewBox="0 0 451 187" width="451px" zoomAndPan="magnify"><defs><filter height="300%" id="f14w7db60rip1l" width="300%" x="-1" y="-1"><feGaussianBlur result="blurOut" stdDeviation="2.0"/><feColorMatrix in="blurOut" result="blurOut2" type="matrix" values="0 0 0 0 0 0 0 0 0 0 0 0 0 0 0 0 0 0 .4 0"/><feOffset dx="4.0" dy="4.0" in="blurOut2" result="blurOut3"/><feBlend in="SourceGraphic" in2="blurOut3" mode="normal"/></filter></defs><g><!--MD5=[b02c16c2283335582eda26579a38e593]
class ItemActionSO--><rect fill="#FEFECE" filter="url(#f14w7db60rip1l)" height="60.8047" id="ItemActionSO" style="stroke: #A80036; stroke-width: 1.5;" width="434" x="6" y="116"/><ellipse cx="177.25" cy="132" fill="#A9DCDF" rx="11" ry="11" style="stroke: #A80036; stroke-width: 1.0;"/><path d="M177.3594,127.3438 L176.2031,132.4219 L178.5313,132.4219 L177.3594,127.3438 Z M175.875,125.1094 L178.8594,125.1094 L182.2188,137.5 L179.7656,137.5 L179,134.4375 L175.7188,134.4375 L174.9688,137.5 L172.5313,137.5 L175.875,125.1094 Z "/><text fill="#000000" font-family="sans-serif" font-size="12" font-style="italic" lengthAdjust="spacingAndGlyphs" textLength="83" x="197.75" y="136.1543">ItemActionSO</text><line style="stroke: #A80036; stroke-width: 1.5;" x1="7" x2="439" y1="148" y2="148"/><line style="stroke: #A80036; stroke-width: 1.5;" x1="7" x2="439" y1="156" y2="156"/><ellipse cx="17" cy="167" fill="#84BE84" rx="3" ry="3" style="stroke: #038048; stroke-width: 1.0;"/><text fill="#000000" font-family="sans-serif" font-size="11" font-style="italic" lengthAdjust="spacingAndGlyphs" textLength="408" x="26" y="170.2104">PerformAction(input:ActionInput, itemState:List&lt;ItemParameter&gt;) : bool</text><!--MD5=[44895057fba17b10f3053a7baa21df04]
class ScriptableObject--><rect fill="#FEFECE" filter="url(#f14w7db60rip1l)" height="48" id="ScriptableObject" style="stroke: #A80036; stroke-width: 1.5;" width="135" x="79.5" y="8"/><ellipse cx="94.5" cy="24" fill="#ADD1B2" rx="11" ry="11" style="stroke: #A80036; stroke-width: 1.0;"/><path d="M97.4688,29.6406 Q96.8906,29.9375 96.25,30.0781 Q95.6094,30.2344 94.9063,30.2344 Q92.4063,30.2344 91.0781,28.5938 Q89.7656,26.9375 89.7656,23.8125 Q89.7656,20.6875 91.0781,19.0313 Q92.4063,17.375 94.9063,17.375 Q95.6094,17.375 96.25,17.5313 Q96.9063,17.6875 97.4688,17.9844 L97.4688,20.7031 Q96.8438,20.125 96.25,19.8594 Q95.6563,19.5781 95.0313,19.5781 Q93.6875,19.5781 93,20.6563 Q92.3125,21.7188 92.3125,23.8125 Q92.3125,25.9063 93,26.9844 Q93.6875,28.0469 95.0313,28.0469 Q95.6563,28.0469 96.25,27.7813 Q96.8438,27.5 97.4688,26.9219 L97.4688,29.6406 Z "/><text fill="#000000" font-family="sans-serif" font-size="12" lengthAdjust="spacingAndGlyphs" textLength="103" x="108.5" y="28.1543">ScriptableObject</text><line style="stroke: #A80036; stroke-width: 1.5;" x1="80.5" x2="213.5" y1="40" y2="40"/><line style="stroke: #A80036; stroke-width: 1.5;" x1="80.5" x2="213.5" y1="48" y2="48"/><!--MD5=[faa9d258eaff9f0d93913f7c4ee2fffa]
class IItemAction--><rect fill="#FEFECE" filter="url(#f14w7db60rip1l)" height="48" id="IItemAction" style="stroke: #A80036; stroke-width: 1.5;" width="101" x="249.5" y="8"/><ellipse cx="264.5" cy="24" fill="#ADD1B2" rx="11" ry="11" style="stroke: #A80036; stroke-width: 1.0;"/><path d="M267.4688,29.6406 Q266.8906,29.9375 266.25,30.0781 Q265.6094,30.2344 264.9063,30.2344 Q262.4063,30.2344 261.0781,28.5938 Q259.7656,26.9375 259.7656,23.8125 Q259.7656,20.6875 261.0781,19.0313 Q262.4063,17.375 264.9063,17.375 Q265.6094,17.375 266.25,17.5313 Q266.9063,17.6875 267.4688,17.9844 L267.4688,20.7031 Q266.8438,20.125 266.25,19.8594 Q265.6563,19.5781 265.0313,19.5781 Q263.6875,19.5781 263,20.6563 Q262.3125,21.7188 262.3125,23.8125 Q262.3125,25.9063 263,26.9844 Q263.6875,28.0469 265.0313,28.0469 Q265.6563,28.0469 266.25,27.7813 Q266.8438,27.5 267.4688,26.9219 L267.4688,29.6406 Z "/><text fill="#000000" font-family="sans-serif" font-size="12" lengthAdjust="spacingAndGlyphs" textLength="69" x="278.5" y="28.1543">IItemAction</text><line style="stroke: #A80036; stroke-width: 1.5;" x1="250.5" x2="349.5" y1="40" y2="40"/><line style="stroke: #A80036; stroke-width: 1.5;" x1="250.5" x2="349.5" y1="48" y2="48"/><!--MD5=[a5eb4ae4ab275b5b3aeb4a74b84c58d3]
reverse link ScriptableObject to ItemActionSO--><path d="M173.88,72.79 C183.41,86.9 193.96,102.52 202.83,115.65 " fill="none" id="ScriptableObject&lt;-ItemActionSO" style="stroke: #A80036; stroke-width: 1.0;"/><polygon fill="none" points="167.96,76.53,162.56,56.04,179.56,68.69,167.96,76.53" style="stroke: #A80036; stroke-width: 1.0;"/><!--MD5=[71370b4b27fd57a4e3bb27de8cb96cbc]
reverse link IItemAction to ItemActionSO--><path d="M272.76,72.79 C263.11,86.9 252.42,102.52 243.43,115.65 " fill="none" id="IItemAction&lt;-ItemActionSO" style="stroke: #A80036; stroke-width: 1.0;"/><polygon fill="none" points="267.16,68.59,284.23,56.04,278.71,76.5,267.16,68.59" style="stroke: #A80036; stroke-width: 1.0;"/><!--MD5=[d5ac5d76e797fb7cbc9b866cfe7ca9f8]
@startuml
abstract class ItemActionSO {
    + {abstract} PerformAction(input:ActionInput, itemState:List<ItemParameter>) : bool
}
ScriptableObject <|- - ItemActionSO
IItemAction <|- - ItemActionSO
@enduml

PlantUML version 1.2020.02(Sun Mar 01 10:22:07 GMT 2020)
(GPL source distribution)
Java Runtime: OpenJDK Runtime Environment
JVM: OpenJDK 64-Bit Server VM
Java Version: 11.0.9+11-Ubuntu-0ubuntu1
Operating System: Linux
Default Encoding: ANSI_X3.4-1968
Language: en
Country: US
--></g></svg>