<?xml version="1.0" encoding="UTF-8" standalone="no"?><svg xmlns="http://www.w3.org/2000/svg" xmlns:xlink="http://www.w3.org/1999/xlink" contentScriptType="application/ecmascript" contentStyleType="text/css" height="360px" preserveAspectRatio="none" style="width:940px;height:360px;" version="1.1" viewBox="0 0 940 360" width="940px" zoomAndPan="magnify"><defs><filter height="300%" id="fne99sg7q3wz2" width="300%" x="-1" y="-1"><feGaussianBlur result="blurOut" stdDeviation="2.0"/><feColorMatrix in="blurOut" result="blurOut2" type="matrix" values="0 0 0 0 0 0 0 0 0 0 0 0 0 0 0 0 0 0 .4 0"/><feOffset dx="4.0" dy="4.0" in="blurOut2" result="blurOut3"/><feBlend in="SourceGraphic" in2="blurOut3" mode="normal"/></filter></defs><g><!--MD5=[347a1eabe30042236e9d8c2b5c07785b]
class ItemSO--><rect fill="#FEFECE" filter="url(#fne99sg7q3wz2)" height="112.0234" id="ItemSO" style="stroke: #A80036; stroke-width: 1.5;" width="224" x="191.26" y="129"/><ellipse cx="277.01" cy="145" fill="#A9DCDF" rx="11" ry="11" style="stroke: #A80036; stroke-width: 1.0;"/><path d="M277.1194,140.3438 L275.9631,145.4219 L278.2913,145.4219 L277.1194,140.3438 Z M275.635,138.1094 L278.6194,138.1094 L281.9788,150.5 L279.5256,150.5 L278.76,147.4375 L275.4788,147.4375 L274.7288,150.5 L272.2913,150.5 L275.635,138.1094 Z "/><text fill="#000000" font-family="sans-serif" font-size="12" font-style="italic" lengthAdjust="spacingAndGlyphs" textLength="44" x="297.51" y="149.1543">ItemSO</text><line style="stroke: #A80036; stroke-width: 1.5;" x1="192.26" x2="414.26" y1="161" y2="161"/><ellipse cx="202.26" cy="172" fill="none" rx="3" ry="3" style="stroke: #038048; stroke-width: 1.0;"/><text fill="#000000" font-family="sans-serif" font-size="11" lengthAdjust="spacingAndGlyphs" textLength="173" x="211.26" y="175.2104">IsStackable : bool «get» «set»</text><ellipse cx="202.26" cy="184.8047" fill="none" rx="3" ry="3" style="stroke: #038048; stroke-width: 1.0;"/><text fill="#000000" font-family="sans-serif" font-size="11" lengthAdjust="spacingAndGlyphs" textLength="73" x="211.26" y="188.0151">ID : int «get»</text><ellipse cx="202.26" cy="197.6094" fill="none" rx="3" ry="3" style="stroke: #038048; stroke-width: 1.0;"/><text fill="#000000" font-family="sans-serif" font-size="11" lengthAdjust="spacingAndGlyphs" textLength="198" x="211.26" y="200.8198">MaxStackSize : int «get» «set» = 1</text><ellipse cx="202.26" cy="210.4141" fill="none" rx="3" ry="3" style="stroke: #038048; stroke-width: 1.0;"/><text fill="#000000" font-family="sans-serif" font-size="11" lengthAdjust="spacingAndGlyphs" textLength="150" x="211.26" y="213.6245">Name : string «get» «set»</text><ellipse cx="202.26" cy="223.2188" fill="none" rx="3" ry="3" style="stroke: #038048; stroke-width: 1.0;"/><text fill="#000000" font-family="sans-serif" font-size="11" lengthAdjust="spacingAndGlyphs" textLength="181" x="211.26" y="226.4292">Description : string «get» «set»</text><line style="stroke: #A80036; stroke-width: 1.5;" x1="192.26" x2="414.26" y1="233.0234" y2="233.0234"/><!--MD5=[f65c0a0b561dbeb31a0aea932919765e]
class ItemParameter--><rect fill="#FEFECE" filter="url(#fne99sg7q3wz2)" height="79.5469" id="ItemParameter" style="stroke: #A80036; stroke-width: 1.5;" width="227" x="450.76" y="145"/><ellipse cx="513.51" cy="163.9688" fill="#ADD1B2" rx="11" ry="11" style="stroke: #A80036; stroke-width: 1.0;"/><path d="M516.4788,169.6094 Q515.9006,169.9063 515.26,170.0469 Q514.6194,170.2031 513.9163,170.2031 Q511.4163,170.2031 510.0881,168.5625 Q508.7756,166.9063 508.7756,163.7813 Q508.7756,160.6563 510.0881,159 Q511.4163,157.3438 513.9163,157.3438 Q514.6194,157.3438 515.26,157.5 Q515.9163,157.6563 516.4788,157.9531 L516.4788,160.6719 Q515.8538,160.0938 515.26,159.8281 Q514.6663,159.5469 514.0413,159.5469 Q512.6975,159.5469 512.01,160.625 Q511.3225,161.6875 511.3225,163.7813 Q511.3225,165.875 512.01,166.9531 Q512.6975,168.0156 514.0413,168.0156 Q514.6663,168.0156 515.26,167.75 Q515.8538,167.4688 516.4788,166.8906 L516.4788,169.6094 Z "/><text fill="#000000" font-family="sans-serif" font-size="12" font-style="italic" lengthAdjust="spacingAndGlyphs" textLength="50" x="555.51" y="161.1387">«struct»</text><text fill="#000000" font-family="sans-serif" font-size="12" lengthAdjust="spacingAndGlyphs" textLength="93" x="534.01" y="175.1074">ItemParameter</text><line style="stroke: #A80036; stroke-width: 1.5;" x1="451.76" x2="676.76" y1="182.9375" y2="182.9375"/><ellipse cx="461.76" cy="193.9375" fill="none" rx="3" ry="3" style="stroke: #038048; stroke-width: 1.0;"/><text fill="#000000" font-family="sans-serif" font-size="11" lengthAdjust="spacingAndGlyphs" textLength="67" x="470.76" y="197.1479">value : float</text><line style="stroke: #A80036; stroke-width: 1.5;" x1="451.76" x2="676.76" y1="203.7422" y2="203.7422"/><ellipse cx="461.76" cy="214.7422" fill="#84BE84" rx="3" ry="3" style="stroke: #038048; stroke-width: 1.0;"/><text fill="#000000" font-family="sans-serif" font-size="11" lengthAdjust="spacingAndGlyphs" textLength="201" x="470.76" y="217.9526">Equals(other:ItemParameter) : bool</text><!--MD5=[487831d284ddf509869976dfba09593d]
class ActionData--><rect fill="#FEFECE" filter="url(#fne99sg7q3wz2)" height="60.8047" id="ActionData" style="stroke: #A80036; stroke-width: 1.5;" width="268" x="661.26" y="8"/><ellipse cx="756.51" cy="24" fill="#ADD1B2" rx="11" ry="11" style="stroke: #A80036; stroke-width: 1.0;"/><path d="M759.4788,29.6406 Q758.9006,29.9375 758.26,30.0781 Q757.6194,30.2344 756.9163,30.2344 Q754.4163,30.2344 753.0881,28.5938 Q751.7756,26.9375 751.7756,23.8125 Q751.7756,20.6875 753.0881,19.0313 Q754.4163,17.375 756.9163,17.375 Q757.6194,17.375 758.26,17.5313 Q758.9163,17.6875 759.4788,17.9844 L759.4788,20.7031 Q758.8538,20.125 758.26,19.8594 Q757.6663,19.5781 757.0413,19.5781 Q755.6975,19.5781 755.01,20.6563 Q754.3225,21.7188 754.3225,23.8125 Q754.3225,25.9063 755.01,26.9844 Q755.6975,28.0469 757.0413,28.0469 Q757.6663,28.0469 758.26,27.7813 Q758.8538,27.5 759.4788,26.9219 L759.4788,29.6406 Z "/><text fill="#000000" font-family="sans-serif" font-size="12" lengthAdjust="spacingAndGlyphs" textLength="69" x="777.01" y="28.1543">ActionData</text><line style="stroke: #A80036; stroke-width: 1.5;" x1="662.26" x2="928.26" y1="40" y2="40"/><ellipse cx="672.26" cy="51" fill="none" rx="3" ry="3" style="stroke: #038048; stroke-width: 1.0;"/><text fill="#000000" font-family="sans-serif" font-size="11" lengthAdjust="spacingAndGlyphs" textLength="242" x="681.26" y="54.2104">actionName : string «get» «protected set»</text><line style="stroke: #A80036; stroke-width: 1.5;" x1="662.26" x2="928.26" y1="60.8047" y2="60.8047"/><!--MD5=[e644022de7dea015dd09463c37421447]
class List`1--><rect fill="#FEFECE" filter="url(#fne99sg7q3wz2)" height="48" id="List`1" style="stroke: #A80036; stroke-width: 1.5;" width="78" x="264.26" y="301"/><ellipse cx="279.26" cy="317" fill="#ADD1B2" rx="11" ry="11" style="stroke: #A80036; stroke-width: 1.0;"/><path d="M282.2288,322.6406 Q281.6506,322.9375 281.01,323.0781 Q280.3694,323.2344 279.6663,323.2344 Q277.1663,323.2344 275.8381,321.5938 Q274.5256,319.9375 274.5256,316.8125 Q274.5256,313.6875 275.8381,312.0313 Q277.1663,310.375 279.6663,310.375 Q280.3694,310.375 281.01,310.5313 Q281.6663,310.6875 282.2288,310.9844 L282.2288,313.7031 Q281.6038,313.125 281.01,312.8594 Q280.4163,312.5781 279.7913,312.5781 Q278.4475,312.5781 277.76,313.6563 Q277.0725,314.7188 277.0725,316.8125 Q277.0725,318.9063 277.76,319.9844 Q278.4475,321.0469 279.7913,321.0469 Q280.4163,321.0469 281.01,320.7813 Q281.6038,320.5 282.2288,319.9219 L282.2288,322.6406 Z "/><text fill="#000000" font-family="sans-serif" font-size="12" lengthAdjust="spacingAndGlyphs" textLength="35" x="293.26" y="321.1543">List`1</text><rect fill="#FFFFFF" height="15.9688" style="stroke: #000000; stroke-width: 1.0; stroke-dasharray: 2.0,2.0;" width="9" x="336.26" y="298"/><text fill="#000000" font-family="sans-serif" font-size="12" font-style="italic" lengthAdjust="spacingAndGlyphs" textLength="7" x="337.26" y="310.1387">T</text><line style="stroke: #A80036; stroke-width: 1.5;" x1="265.26" x2="341.26" y1="333" y2="333"/><line style="stroke: #A80036; stroke-width: 1.5;" x1="265.26" x2="341.26" y1="341" y2="341"/><!--MD5=[360575ecdc123693e9e157d6e9effc89]
class IEquatable`1--><rect fill="#FEFECE" filter="url(#fne99sg7q3wz2)" height="48" id="IEquatable`1" style="stroke: #A80036; stroke-width: 1.5;" width="124" x="502.26" y="14.5"/><ellipse cx="517.26" cy="30.5" fill="#ADD1B2" rx="11" ry="11" style="stroke: #A80036; stroke-width: 1.0;"/><path d="M520.2288,36.1406 Q519.6506,36.4375 519.01,36.5781 Q518.3694,36.7344 517.6663,36.7344 Q515.1663,36.7344 513.8381,35.0938 Q512.5256,33.4375 512.5256,30.3125 Q512.5256,27.1875 513.8381,25.5313 Q515.1663,23.875 517.6663,23.875 Q518.3694,23.875 519.01,24.0313 Q519.6663,24.1875 520.2288,24.4844 L520.2288,27.2031 Q519.6038,26.625 519.01,26.3594 Q518.4163,26.0781 517.7913,26.0781 Q516.4475,26.0781 515.76,27.1563 Q515.0725,28.2188 515.0725,30.3125 Q515.0725,32.4063 515.76,33.4844 Q516.4475,34.5469 517.7913,34.5469 Q518.4163,34.5469 519.01,34.2813 Q519.6038,34 520.2288,33.4219 L520.2288,36.1406 Z "/><text fill="#000000" font-family="sans-serif" font-size="12" lengthAdjust="spacingAndGlyphs" textLength="81" x="531.26" y="34.6543">IEquatable`1</text><rect fill="#FFFFFF" height="15.9688" style="stroke: #000000; stroke-width: 1.0; stroke-dasharray: 2.0,2.0;" width="9" x="620.26" y="11.5"/><text fill="#000000" font-family="sans-serif" font-size="12" font-style="italic" lengthAdjust="spacingAndGlyphs" textLength="7" x="621.26" y="23.6387">T</text><line style="stroke: #A80036; stroke-width: 1.5;" x1="503.26" x2="625.26" y1="46.5" y2="46.5"/><line style="stroke: #A80036; stroke-width: 1.5;" x1="503.26" x2="625.26" y1="54.5" y2="54.5"/><!--MD5=[44895057fba17b10f3053a7baa21df04]
class ScriptableObject--><rect fill="#FEFECE" filter="url(#fne99sg7q3wz2)" height="48" id="ScriptableObject" style="stroke: #A80036; stroke-width: 1.5;" width="135" x="235.76" y="14.5"/><ellipse cx="250.76" cy="30.5" fill="#ADD1B2" rx="11" ry="11" style="stroke: #A80036; stroke-width: 1.0;"/><path d="M253.7288,36.1406 Q253.1506,36.4375 252.51,36.5781 Q251.8694,36.7344 251.1663,36.7344 Q248.6663,36.7344 247.3381,35.0938 Q246.0256,33.4375 246.0256,30.3125 Q246.0256,27.1875 247.3381,25.5313 Q248.6663,23.875 251.1663,23.875 Q251.8694,23.875 252.51,24.0313 Q253.1663,24.1875 253.7288,24.4844 L253.7288,27.2031 Q253.1038,26.625 252.51,26.3594 Q251.9163,26.0781 251.2913,26.0781 Q249.9475,26.0781 249.26,27.1563 Q248.5725,28.2188 248.5725,30.3125 Q248.5725,32.4063 249.26,33.4844 Q249.9475,34.5469 251.2913,34.5469 Q251.9163,34.5469 252.51,34.2813 Q253.1038,34 253.7288,33.4219 L253.7288,36.1406 Z "/><text fill="#000000" font-family="sans-serif" font-size="12" lengthAdjust="spacingAndGlyphs" textLength="103" x="264.76" y="34.6543">ScriptableObject</text><line style="stroke: #A80036; stroke-width: 1.5;" x1="236.76" x2="369.76" y1="46.5" y2="46.5"/><line style="stroke: #A80036; stroke-width: 1.5;" x1="236.76" x2="369.76" y1="54.5" y2="54.5"/><!--MD5=[85c2ed8dbf494cb60783de624603a7dd]
class Sprite--><rect fill="#FEFECE" filter="url(#fne99sg7q3wz2)" height="48" id="Sprite" style="stroke: #A80036; stroke-width: 1.5;" width="69" x="377.76" y="301"/><ellipse cx="392.76" cy="317" fill="#ADD1B2" rx="11" ry="11" style="stroke: #A80036; stroke-width: 1.0;"/><path d="M395.7288,322.6406 Q395.1506,322.9375 394.51,323.0781 Q393.8694,323.2344 393.1663,323.2344 Q390.6663,323.2344 389.3381,321.5938 Q388.0256,319.9375 388.0256,316.8125 Q388.0256,313.6875 389.3381,312.0313 Q390.6663,310.375 393.1663,310.375 Q393.8694,310.375 394.51,310.5313 Q395.1663,310.6875 395.7288,310.9844 L395.7288,313.7031 Q395.1038,313.125 394.51,312.8594 Q393.9163,312.5781 393.2913,312.5781 Q391.9475,312.5781 391.26,313.6563 Q390.5725,314.7188 390.5725,316.8125 Q390.5725,318.9063 391.26,319.9844 Q391.9475,321.0469 393.2913,321.0469 Q393.9163,321.0469 394.51,320.7813 Q395.1038,320.5 395.7288,319.9219 L395.7288,322.6406 Z "/><text fill="#000000" font-family="sans-serif" font-size="12" lengthAdjust="spacingAndGlyphs" textLength="37" x="406.76" y="321.1543">Sprite</text><line style="stroke: #A80036; stroke-width: 1.5;" x1="378.76" x2="445.76" y1="333" y2="333"/><line style="stroke: #A80036; stroke-width: 1.5;" x1="378.76" x2="445.76" y1="341" y2="341"/><!--MD5=[34eb80191f27884a771ec4a8bfec03d3]
class ItemParameterSO--><rect fill="#FEFECE" filter="url(#fne99sg7q3wz2)" height="48" id="ItemParameterSO" style="stroke: #A80036; stroke-width: 1.5;" width="142" x="493.26" y="301"/><ellipse cx="508.26" cy="317" fill="#ADD1B2" rx="11" ry="11" style="stroke: #A80036; stroke-width: 1.0;"/><path d="M511.2288,322.6406 Q510.6506,322.9375 510.01,323.0781 Q509.3694,323.2344 508.6663,323.2344 Q506.1663,323.2344 504.8381,321.5938 Q503.5256,319.9375 503.5256,316.8125 Q503.5256,313.6875 504.8381,312.0313 Q506.1663,310.375 508.6663,310.375 Q509.3694,310.375 510.01,310.5313 Q510.6663,310.6875 511.2288,310.9844 L511.2288,313.7031 Q510.6038,313.125 510.01,312.8594 Q509.4163,312.5781 508.7913,312.5781 Q507.4475,312.5781 506.76,313.6563 Q506.0725,314.7188 506.0725,316.8125 Q506.0725,318.9063 506.76,319.9844 Q507.4475,321.0469 508.7913,321.0469 Q509.4163,321.0469 510.01,320.7813 Q510.6038,320.5 511.2288,319.9219 L511.2288,322.6406 Z "/><text fill="#000000" font-family="sans-serif" font-size="12" lengthAdjust="spacingAndGlyphs" textLength="110" x="522.26" y="321.1543">ItemParameterSO</text><line style="stroke: #A80036; stroke-width: 1.5;" x1="494.26" x2="634.26" y1="333" y2="333"/><line style="stroke: #A80036; stroke-width: 1.5;" x1="494.26" x2="634.26" y1="341" y2="341"/><!--MD5=[b02c16c2283335582eda26579a38e593]
class ItemActionSO--><rect fill="#FEFECE" filter="url(#fne99sg7q3wz2)" height="48" id="ItemActionSO" style="stroke: #A80036; stroke-width: 1.5;" width="115" x="737.76" y="161"/><ellipse cx="752.76" cy="177" fill="#ADD1B2" rx="11" ry="11" style="stroke: #A80036; stroke-width: 1.0;"/><path d="M755.7288,182.6406 Q755.1506,182.9375 754.51,183.0781 Q753.8694,183.2344 753.1663,183.2344 Q750.6663,183.2344 749.3381,181.5938 Q748.0256,179.9375 748.0256,176.8125 Q748.0256,173.6875 749.3381,172.0313 Q750.6663,170.375 753.1663,170.375 Q753.8694,170.375 754.51,170.5313 Q755.1663,170.6875 755.7288,170.9844 L755.7288,173.7031 Q755.1038,173.125 754.51,172.8594 Q753.9163,172.5781 753.2913,172.5781 Q751.9475,172.5781 751.26,173.6563 Q750.5725,174.7188 750.5725,176.8125 Q750.5725,178.9063 751.26,179.9844 Q751.9475,181.0469 753.2913,181.0469 Q753.9163,181.0469 754.51,180.7813 Q755.1038,180.5 755.7288,179.9219 L755.7288,182.6406 Z "/><text fill="#000000" font-family="sans-serif" font-size="12" lengthAdjust="spacingAndGlyphs" textLength="83" x="766.76" y="181.1543">ItemActionSO</text><line style="stroke: #A80036; stroke-width: 1.5;" x1="738.76" x2="851.76" y1="193" y2="193"/><line style="stroke: #A80036; stroke-width: 1.5;" x1="738.76" x2="851.76" y1="201" y2="201"/><!--MD5=[28f04ee3f3e32c5c60be9ab875b1ac24]
reverse link ScriptableObject to ItemSO--><path d="M303.26,82.81 C303.26,97.23 303.26,113.5 303.26,128.7 " fill="none" id="ScriptableObject&lt;-ItemSO" style="stroke: #A80036; stroke-width: 1.0;"/><polygon fill="none" points="296.26,82.72,303.26,62.72,310.26,82.72,296.26,82.72" style="stroke: #A80036; stroke-width: 1.0;"/><!--MD5=[644a95f493bfcab09a2fde8edafcb7f8]
link ItemSO to Sprite--><path d="M346.96,241.33 C361.9,260.25 377.97,280.6 390.43,296.37 " fill="none" id="ItemSO-&gt;Sprite" style="stroke: #A80036; stroke-width: 1.0;"/><polygon fill="#A80036" points="393.85,300.69,391.415,291.1469,390.7527,296.7649,385.1348,296.1026,393.85,300.69" style="stroke: #A80036; stroke-width: 1.0;"/><text fill="#000000" font-family="sans-serif" font-size="13" lengthAdjust="spacingAndGlyphs" textLength="69" x="334.2735" y="290.0144">ItemImage</text><!--MD5=[5c166d2368d48fe63523c12c79a3be13]
link ItemSO to List`1--><path d="M277.47,241.33 C276.19,259.93 277.55,279.9 281.55,295.56 " fill="none" id="ItemSO-&gt;List`1" style="stroke: #A80036; stroke-width: 1.0;"/><polygon fill="#A80036" points="283,300.69,284.3813,290.9385,281.6302,295.8813,276.6873,293.1302,283,300.69" style="stroke: #A80036; stroke-width: 1.0;"/><text fill="#000000" font-family="sans-serif" font-size="13" lengthAdjust="spacingAndGlyphs" textLength="262" x="-5.9432" y="292.1026">DefaultParametersList&lt;ItemParameter&gt;</text><!--MD5=[5c166d2368d48fe63523c12c79a3be13]
link ItemSO to List`1--><path d="M303.26,241.33 C303.26,259.93 303.26,279.9 303.26,295.56 " fill="none" id="ItemSO-&gt;List`1-1" style="stroke: #A80036; stroke-width: 1.0;"/><polygon fill="#A80036" points="303.26,300.69,307.26,291.69,303.26,295.69,299.26,291.69,303.26,300.69" style="stroke: #A80036; stroke-width: 1.0;"/><text fill="#000000" font-family="sans-serif" font-size="13" lengthAdjust="spacingAndGlyphs" textLength="170" x="323.731" y="289.8959">actionDatas&lt;ActionData&gt;</text><!--MD5=[5c166d2368d48fe63523c12c79a3be13]
link ItemSO to List`1--><path d="M329.04,241.33 C330.32,259.93 328.96,279.9 324.97,295.56 " fill="none" id="ItemSO-&gt;List`1-2" style="stroke: #A80036; stroke-width: 1.0;"/><polygon fill="#A80036" points="323.51,300.69,329.8227,293.1302,324.8798,295.8813,322.1287,290.9385,323.51,300.69" style="stroke: #A80036; stroke-width: 1.0;"/><text fill="#000000" font-family="sans-serif" font-size="13" lengthAdjust="spacingAndGlyphs" textLength="143" x="112.6037" y="290.5716">actionNames&lt;string&gt;</text><!--MD5=[e22a3640c80a8a092dd8c2feb0a50722]
reverse link IEquatable`1 to ItemParameter--><path d="M564.26,82.74 C564.26,102.44 564.26,125.58 564.26,144.77 " fill="none" id="IEquatable`1&lt;-ItemParameter" style="stroke: #A80036; stroke-width: 1.0;"/><polygon fill="none" points="557.26,82.72,564.26,62.72,571.26,82.72,557.26,82.72" style="stroke: #A80036; stroke-width: 1.0;"/><text fill="#000000" font-family="sans-serif" font-size="13" lengthAdjust="spacingAndGlyphs" textLength="119" x="430.7569" y="82.5348">&lt;ItemParameter&gt;</text><!--MD5=[e045924d05f29e753ff1104557071373]
link ItemParameter to ItemParameterSO--><path d="M564.26,225.18 C564.26,247.65 564.26,275.36 564.26,295.71 " fill="none" id="ItemParameter-&gt;ItemParameterSO" style="stroke: #A80036; stroke-width: 1.0;"/><polygon fill="#A80036" points="564.26,300.72,568.26,291.72,564.26,295.72,560.26,291.72,564.26,300.72" style="stroke: #A80036; stroke-width: 1.0;"/><text fill="#000000" font-family="sans-serif" font-size="13" lengthAdjust="spacingAndGlyphs" textLength="97" x="576.0819" y="290.0567">itemParameter</text><!--MD5=[bb53f6b30f8750cbf1a353c743a5223a]
link ActionData to ItemActionSO--><path d="M795.26,69.09 C795.26,94.37 795.26,130.52 795.26,155.49 " fill="none" id="ActionData-&gt;ItemActionSO" style="stroke: #A80036; stroke-width: 1.0;"/><polygon fill="#A80036" points="795.26,160.64,799.26,151.64,795.26,155.64,791.26,151.64,795.26,160.64" style="stroke: #A80036; stroke-width: 1.0;"/><text fill="#000000" font-family="sans-serif" font-size="13" lengthAdjust="spacingAndGlyphs" textLength="39" x="751.5069" y="149.9572">action</text><!--MD5=[67c9e7caa1197c1b0e42ddac15039941]
@startuml
abstract class ItemSO {
    + IsStackable : bool <<get>> <<set>>
    + ID : int <<get>>
    + MaxStackSize : int <<get>> <<set>> = 1
    + Name : string <<get>> <<set>>
    + Description : string <<get>> <<set>>
}
class ItemParameter <<struct>> {
    + value : float
    + Equals(other:ItemParameter) : bool
}
class ActionData {
    + actionName : string <<get>> <<protected set>>
}
class "List`1"<T> {
}
class "IEquatable`1"<T> {
}
ScriptableObject <|- - ItemSO
ItemSO - -> "ItemImage" Sprite
ItemSO - -> "DefaultParametersList<ItemParameter>" "List`1"
ItemSO - -> "actionDatas<ActionData>" "List`1"
ItemSO - -> "actionNames<string>" "List`1"
"IEquatable`1" "<ItemParameter>" <|- - ItemParameter
ItemParameter - -> "itemParameter" ItemParameterSO
ActionData - -> "action" ItemActionSO
@enduml

PlantUML version 1.2020.02(Sun Mar 01 10:22:07 GMT 2020)
(GPL source distribution)
Java Runtime: OpenJDK Runtime Environment
JVM: OpenJDK 64-Bit Server VM
Java Version: 11.0.9+11-Ubuntu-0ubuntu1
Operating System: Linux
Default Encoding: ANSI_X3.4-1968
Language: en
Country: US
--></g></svg>