<?xml version="1.0" encoding="UTF-8" standalone="no"?><svg xmlns="http://www.w3.org/2000/svg" xmlns:xlink="http://www.w3.org/1999/xlink" contentScriptType="application/ecmascript" contentStyleType="text/css" height="187px" preserveAspectRatio="none" style="width:217px;height:187px;" version="1.1" viewBox="0 0 217 187" width="217px" zoomAndPan="magnify"><defs><filter height="300%" id="f1on88pun6moci" width="300%" x="-1" y="-1"><feGaussianBlur result="blurOut" stdDeviation="2.0"/><feColorMatrix in="blurOut" result="blurOut2" type="matrix" values="0 0 0 0 0 0 0 0 0 0 0 0 0 0 0 0 0 0 .4 0"/><feOffset dx="4.0" dy="4.0" in="blurOut2" result="blurOut3"/><feBlend in="SourceGraphic" in2="blurOut3" mode="normal"/></filter></defs><g><!--MD5=[34eb80191f27884a771ec4a8bfec03d3]
class ItemParameterSO--><rect fill="#FEFECE" filter="url(#f1on88pun6moci)" height="60.8047" id="ItemParameterSO" style="stroke: #A80036; stroke-width: 1.5;" width="200" x="6" y="116"/><ellipse cx="47.1" cy="132" fill="#ADD1B2" rx="11" ry="11" style="stroke: #A80036; stroke-width: 1.0;"/><path d="M50.0688,137.6406 Q49.4906,137.9375 48.85,138.0781 Q48.2094,138.2344 47.5063,138.2344 Q45.0063,138.2344 43.6781,136.5938 Q42.3656,134.9375 42.3656,131.8125 Q42.3656,128.6875 43.6781,127.0313 Q45.0063,125.375 47.5063,125.375 Q48.2094,125.375 48.85,125.5313 Q49.5063,125.6875 50.0688,125.9844 L50.0688,128.7031 Q49.4438,128.125 48.85,127.8594 Q48.2563,127.5781 47.6313,127.5781 Q46.2875,127.5781 45.6,128.6563 Q44.9125,129.7188 44.9125,131.8125 Q44.9125,133.9063 45.6,134.9844 Q46.2875,136.0469 47.6313,136.0469 Q48.2563,136.0469 48.85,135.7813 Q49.4438,135.5 50.0688,134.9219 L50.0688,137.6406 Z "/><text fill="#000000" font-family="sans-serif" font-size="12" lengthAdjust="spacingAndGlyphs" textLength="110" x="66.9" y="136.1543">ItemParameterSO</text><line style="stroke: #A80036; stroke-width: 1.5;" x1="7" x2="205" y1="148" y2="148"/><ellipse cx="17" cy="159" fill="none" rx="3" ry="3" style="stroke: #038048; stroke-width: 1.0;"/><text fill="#000000" font-family="sans-serif" font-size="11" lengthAdjust="spacingAndGlyphs" textLength="174" x="26" y="162.2104">ParameterName : string «get»</text><line style="stroke: #A80036; stroke-width: 1.5;" x1="7" x2="205" y1="168.8047" y2="168.8047"/><!--MD5=[44895057fba17b10f3053a7baa21df04]
class ScriptableObject--><rect fill="#FEFECE" filter="url(#f1on88pun6moci)" height="48" id="ScriptableObject" style="stroke: #A80036; stroke-width: 1.5;" width="135" x="38.5" y="8"/><ellipse cx="53.5" cy="24" fill="#ADD1B2" rx="11" ry="11" style="stroke: #A80036; stroke-width: 1.0;"/><path d="M56.4688,29.6406 Q55.8906,29.9375 55.25,30.0781 Q54.6094,30.2344 53.9063,30.2344 Q51.4063,30.2344 50.0781,28.5938 Q48.7656,26.9375 48.7656,23.8125 Q48.7656,20.6875 50.0781,19.0313 Q51.4063,17.375 53.9063,17.375 Q54.6094,17.375 55.25,17.5313 Q55.9063,17.6875 56.4688,17.9844 L56.4688,20.7031 Q55.8438,20.125 55.25,19.8594 Q54.6563,19.5781 54.0313,19.5781 Q52.6875,19.5781 52,20.6563 Q51.3125,21.7188 51.3125,23.8125 Q51.3125,25.9063 52,26.9844 Q52.6875,28.0469 54.0313,28.0469 Q54.6563,28.0469 55.25,27.7813 Q55.8438,27.5 56.4688,26.9219 L56.4688,29.6406 Z "/><text fill="#000000" font-family="sans-serif" font-size="12" lengthAdjust="spacingAndGlyphs" textLength="103" x="67.5" y="28.1543">ScriptableObject</text><line style="stroke: #A80036; stroke-width: 1.5;" x1="39.5" x2="172.5" y1="40" y2="40"/><line style="stroke: #A80036; stroke-width: 1.5;" x1="39.5" x2="172.5" y1="48" y2="48"/><!--MD5=[730c70dfba10fac846ec10fc8a4d9e1d]
reverse link ScriptableObject to ItemParameterSO--><path d="M106,76.11 C106,89.31 106,103.54 106,115.65 " fill="none" id="ScriptableObject&lt;-ItemParameterSO" style="stroke: #A80036; stroke-width: 1.0;"/><polygon fill="none" points="99,76.04,106,56.04,113,76.04,99,76.04" style="stroke: #A80036; stroke-width: 1.0;"/><!--MD5=[f95b1594a3a4a449219f5213ba284764]
@startuml
class ItemParameterSO {
    + ParameterName : string <<get>>
}
ScriptableObject <|- - ItemParameterSO
@enduml

PlantUML version 1.2020.02(Sun Mar 01 10:22:07 GMT 2020)
(GPL source distribution)
Java Runtime: OpenJDK Runtime Environment
JVM: OpenJDK 64-Bit Server VM
Java Version: 11.0.9+11-Ubuntu-0ubuntu1
Operating System: Linux
Default Encoding: ANSI_X3.4-1968
Language: en
Country: US
--></g></svg>