<?xml version="1.0" encoding="UTF-8" standalone="no"?><svg xmlns="http://www.w3.org/2000/svg" xmlns:xlink="http://www.w3.org/1999/xlink" contentScriptType="application/ecmascript" contentStyleType="text/css" height="200px" preserveAspectRatio="none" style="width:145px;height:200px;" version="1.1" viewBox="0 0 145 200" width="145px" zoomAndPan="magnify"><defs><filter height="300%" id="f1j6ti1sjieq3e" width="300%" x="-1" y="-1"><feGaussianBlur result="blurOut" stdDeviation="2.0"/><feColorMatrix in="blurOut" result="blurOut2" type="matrix" values="0 0 0 0 0 0 0 0 0 0 0 0 0 0 0 0 0 0 .4 0"/><feOffset dx="4.0" dy="4.0" in="blurOut2" result="blurOut3"/><feBlend in="SourceGraphic" in2="blurOut3" mode="normal"/></filter></defs><g><!--MD5=[80806e08dac105db4bf03e60335471e4]
class MainMenu--><rect fill="#FEFECE" filter="url(#f1j6ti1sjieq3e)" height="73.6094" id="MainMenu" style="stroke: #A80036; stroke-width: 1.5;" width="126" x="7" y="116"/><ellipse cx="35.95" cy="132" fill="#ADD1B2" rx="11" ry="11" style="stroke: #A80036; stroke-width: 1.0;"/><path d="M38.9188,137.6406 Q38.3406,137.9375 37.7,138.0781 Q37.0594,138.2344 36.3563,138.2344 Q33.8563,138.2344 32.5281,136.5938 Q31.2156,134.9375 31.2156,131.8125 Q31.2156,128.6875 32.5281,127.0313 Q33.8563,125.375 36.3563,125.375 Q37.0594,125.375 37.7,125.5313 Q38.3563,125.6875 38.9188,125.9844 L38.9188,128.7031 Q38.2938,128.125 37.7,127.8594 Q37.1063,127.5781 36.4813,127.5781 Q35.1375,127.5781 34.45,128.6563 Q33.7625,129.7188 33.7625,131.8125 Q33.7625,133.9063 34.45,134.9844 Q35.1375,136.0469 36.4813,136.0469 Q37.1063,136.0469 37.7,135.7813 Q38.2938,135.5 38.9188,134.9219 L38.9188,137.6406 Z "/><text fill="#000000" font-family="sans-serif" font-size="12" lengthAdjust="spacingAndGlyphs" textLength="63" x="53.05" y="136.1543">MainMenu</text><line style="stroke: #A80036; stroke-width: 1.5;" x1="8" x2="132" y1="148" y2="148"/><line style="stroke: #A80036; stroke-width: 1.5;" x1="8" x2="132" y1="156" y2="156"/><ellipse cx="18" cy="167" fill="#84BE84" rx="3" ry="3" style="stroke: #038048; stroke-width: 1.0;"/><text fill="#000000" font-family="sans-serif" font-size="11" lengthAdjust="spacingAndGlyphs" textLength="100" x="27" y="170.2104">PlayGame() : void</text><ellipse cx="18" cy="179.8047" fill="#84BE84" rx="3" ry="3" style="stroke: #038048; stroke-width: 1.0;"/><text fill="#000000" font-family="sans-serif" font-size="11" lengthAdjust="spacingAndGlyphs" textLength="100" x="27" y="183.0151">QuitGame() : void</text><!--MD5=[83b3cf3d23d77c6f1e1b5291a241bc2a]
class MonoBehaviour--><rect fill="#FEFECE" filter="url(#f1j6ti1sjieq3e)" height="48" id="MonoBehaviour" style="stroke: #A80036; stroke-width: 1.5;" width="128" x="6" y="8"/><ellipse cx="21" cy="24" fill="#ADD1B2" rx="11" ry="11" style="stroke: #A80036; stroke-width: 1.0;"/><path d="M23.9688,29.6406 Q23.3906,29.9375 22.75,30.0781 Q22.1094,30.2344 21.4063,30.2344 Q18.9063,30.2344 17.5781,28.5938 Q16.2656,26.9375 16.2656,23.8125 Q16.2656,20.6875 17.5781,19.0313 Q18.9063,17.375 21.4063,17.375 Q22.1094,17.375 22.75,17.5313 Q23.4063,17.6875 23.9688,17.9844 L23.9688,20.7031 Q23.3438,20.125 22.75,19.8594 Q22.1563,19.5781 21.5313,19.5781 Q20.1875,19.5781 19.5,20.6563 Q18.8125,21.7188 18.8125,23.8125 Q18.8125,25.9063 19.5,26.9844 Q20.1875,28.0469 21.5313,28.0469 Q22.1563,28.0469 22.75,27.7813 Q23.3438,27.5 23.9688,26.9219 L23.9688,29.6406 Z "/><text fill="#000000" font-family="sans-serif" font-size="12" lengthAdjust="spacingAndGlyphs" textLength="96" x="35" y="28.1543">MonoBehaviour</text><line style="stroke: #A80036; stroke-width: 1.5;" x1="7" x2="133" y1="40" y2="40"/><line style="stroke: #A80036; stroke-width: 1.5;" x1="7" x2="133" y1="48" y2="48"/><!--MD5=[433f513694bd447943a8e7c21da51852]
reverse link MonoBehaviour to MainMenu--><path d="M70,76.43 C70,89.33 70,103.32 70,115.71 " fill="none" id="MonoBehaviour&lt;-MainMenu" style="stroke: #A80036; stroke-width: 1.0;"/><polygon fill="none" points="63,76.23,70,56.23,77,76.23,63,76.23" style="stroke: #A80036; stroke-width: 1.0;"/><!--MD5=[fca00f35707c1947e7195ea75dda3e3b]
@startuml
class MainMenu {
    + PlayGame() : void
    + QuitGame() : void
}
MonoBehaviour <|- - MainMenu
@enduml

PlantUML version 1.2020.02(Sun Mar 01 10:22:07 GMT 2020)
(GPL source distribution)
Java Runtime: OpenJDK Runtime Environment
JVM: OpenJDK 64-Bit Server VM
Java Version: 11.0.9+11-Ubuntu-0ubuntu1
Operating System: Linux
Default Encoding: ANSI_X3.4-1968
Language: en
Country: US
--></g></svg>