<?xml version="1.0" encoding="UTF-8" standalone="no"?><svg xmlns="http://www.w3.org/2000/svg" xmlns:xlink="http://www.w3.org/1999/xlink" contentScriptType="application/ecmascript" contentStyleType="text/css" height="303px" preserveAspectRatio="none" style="width:322px;height:303px;" version="1.1" viewBox="0 0 322 303" width="322px" zoomAndPan="magnify"><defs><filter height="300%" id="fi9t5i2xfshmr" width="300%" x="-1" y="-1"><feGaussianBlur result="blurOut" stdDeviation="2.0"/><feColorMatrix in="blurOut" result="blurOut2" type="matrix" values="0 0 0 0 0 0 0 0 0 0 0 0 0 0 0 0 0 0 .4 0"/><feOffset dx="4.0" dy="4.0" in="blurOut2" result="blurOut3"/><feBlend in="SourceGraphic" in2="blurOut3" mode="normal"/></filter></defs><g><!--MD5=[b8e0dd943e6328752fad6f507d5a54bb]
class PauseMenu--><rect fill="#FEFECE" filter="url(#fi9t5i2xfshmr)" height="176.0469" id="PauseMenu" style="stroke: #A80036; stroke-width: 1.5;" width="305" x="6" y="116"/><ellipse cx="117.75" cy="132" fill="#ADD1B2" rx="11" ry="11" style="stroke: #A80036; stroke-width: 1.0;"/><path d="M120.7188,137.6406 Q120.1406,137.9375 119.5,138.0781 Q118.8594,138.2344 118.1563,138.2344 Q115.6563,138.2344 114.3281,136.5938 Q113.0156,134.9375 113.0156,131.8125 Q113.0156,128.6875 114.3281,127.0313 Q115.6563,125.375 118.1563,125.375 Q118.8594,125.375 119.5,125.5313 Q120.1563,125.6875 120.7188,125.9844 L120.7188,128.7031 Q120.0938,128.125 119.5,127.8594 Q118.9063,127.5781 118.2813,127.5781 Q116.9375,127.5781 116.25,128.6563 Q115.5625,129.7188 115.5625,131.8125 Q115.5625,133.9063 116.25,134.9844 Q116.9375,136.0469 118.2813,136.0469 Q118.9063,136.0469 119.5,135.7813 Q120.0938,135.5 120.7188,134.9219 L120.7188,137.6406 Z "/><text fill="#000000" font-family="sans-serif" font-size="12" lengthAdjust="spacingAndGlyphs" textLength="73" x="138.25" y="136.1543">PauseMenu</text><line style="stroke: #A80036; stroke-width: 1.5;" x1="7" x2="310" y1="148" y2="148"/><ellipse cx="17" cy="159" fill="none" rx="3" ry="3" style="stroke: #038048; stroke-width: 1.0;"/><text fill="#000000" font-family="sans-serif" font-size="11" lengthAdjust="spacingAndGlyphs" textLength="120" x="26" y="162.2104">gameIsPaused : bool</text><line style="stroke: #A80036; stroke-width: 1.5;" x1="7" x2="310" y1="168.8047" y2="168.8047"/><ellipse cx="17" cy="179.8047" fill="#84BE84" rx="3" ry="3" style="stroke: #038048; stroke-width: 1.0;"/><text fill="#000000" font-family="sans-serif" font-size="11" lengthAdjust="spacingAndGlyphs" textLength="79" x="26" y="183.0151">Awake() : void</text><ellipse cx="17" cy="192.6094" fill="#84BE84" rx="3" ry="3" style="stroke: #038048; stroke-width: 1.0;"/><text fill="#000000" font-family="sans-serif" font-size="11" lengthAdjust="spacingAndGlyphs" textLength="89" x="26" y="195.8198">Resume() : void</text><ellipse cx="17" cy="205.4141" fill="#84BE84" rx="3" ry="3" style="stroke: #038048; stroke-width: 1.0;"/><text fill="#000000" font-family="sans-serif" font-size="11" lengthAdjust="spacingAndGlyphs" textLength="279" x="26" y="208.6245">Pause(context:InputAction.CallbackContext) : void</text><ellipse cx="17" cy="218.2188" fill="#84BE84" rx="3" ry="3" style="stroke: #038048; stroke-width: 1.0;"/><text fill="#000000" font-family="sans-serif" font-size="11" lengthAdjust="spacingAndGlyphs" textLength="100" x="26" y="221.4292">LoadMenu() : void</text><ellipse cx="17" cy="231.0234" fill="#84BE84" rx="3" ry="3" style="stroke: #038048; stroke-width: 1.0;"/><text fill="#000000" font-family="sans-serif" font-size="11" lengthAdjust="spacingAndGlyphs" textLength="100" x="26" y="234.2339">QuitGame() : void</text><ellipse cx="17" cy="243.8281" fill="#84BE84" rx="3" ry="3" style="stroke: #038048; stroke-width: 1.0;"/><text fill="#000000" font-family="sans-serif" font-size="11" lengthAdjust="spacingAndGlyphs" textLength="97" x="26" y="247.0386">OnEnable() : void</text><ellipse cx="17" cy="256.6328" fill="#84BE84" rx="3" ry="3" style="stroke: #038048; stroke-width: 1.0;"/><text fill="#000000" font-family="sans-serif" font-size="11" lengthAdjust="spacingAndGlyphs" textLength="101" x="26" y="259.8433">OnDisable() : void</text><ellipse cx="17" cy="269.4375" fill="#84BE84" rx="3" ry="3" style="stroke: #038048; stroke-width: 1.0;"/><text fill="#000000" font-family="sans-serif" font-size="11" lengthAdjust="spacingAndGlyphs" textLength="117" x="26" y="272.6479">ActivateMenu() : void</text><ellipse cx="17" cy="282.2422" fill="#84BE84" rx="3" ry="3" style="stroke: #038048; stroke-width: 1.0;"/><text fill="#000000" font-family="sans-serif" font-size="11" lengthAdjust="spacingAndGlyphs" textLength="132" x="26" y="285.4526">DeactivateMenu() : void</text><!--MD5=[83b3cf3d23d77c6f1e1b5291a241bc2a]
class MonoBehaviour--><rect fill="#FEFECE" filter="url(#fi9t5i2xfshmr)" height="48" id="MonoBehaviour" style="stroke: #A80036; stroke-width: 1.5;" width="128" x="94.5" y="8"/><ellipse cx="109.5" cy="24" fill="#ADD1B2" rx="11" ry="11" style="stroke: #A80036; stroke-width: 1.0;"/><path d="M112.4688,29.6406 Q111.8906,29.9375 111.25,30.0781 Q110.6094,30.2344 109.9063,30.2344 Q107.4063,30.2344 106.0781,28.5938 Q104.7656,26.9375 104.7656,23.8125 Q104.7656,20.6875 106.0781,19.0313 Q107.4063,17.375 109.9063,17.375 Q110.6094,17.375 111.25,17.5313 Q111.9063,17.6875 112.4688,17.9844 L112.4688,20.7031 Q111.8438,20.125 111.25,19.8594 Q110.6563,19.5781 110.0313,19.5781 Q108.6875,19.5781 108,20.6563 Q107.3125,21.7188 107.3125,23.8125 Q107.3125,25.9063 108,26.9844 Q108.6875,28.0469 110.0313,28.0469 Q110.6563,28.0469 111.25,27.7813 Q111.8438,27.5 112.4688,26.9219 L112.4688,29.6406 Z "/><text fill="#000000" font-family="sans-serif" font-size="12" lengthAdjust="spacingAndGlyphs" textLength="96" x="123.5" y="28.1543">MonoBehaviour</text><line style="stroke: #A80036; stroke-width: 1.5;" x1="95.5" x2="221.5" y1="40" y2="40"/><line style="stroke: #A80036; stroke-width: 1.5;" x1="95.5" x2="221.5" y1="48" y2="48"/><!--MD5=[1dd486839fce8030eb6bdb0b04f9738e]
reverse link MonoBehaviour to PauseMenu--><path d="M158.5,76.71 C158.5,88.77 158.5,102.3 158.5,115.9 " fill="none" id="MonoBehaviour&lt;-PauseMenu" style="stroke: #A80036; stroke-width: 1.0;"/><polygon fill="none" points="151.5,76.28,158.5,56.28,165.5,76.28,151.5,76.28" style="stroke: #A80036; stroke-width: 1.0;"/><!--MD5=[f3f7cd609b7b393f6dd03877fbccad22]
@startuml
class PauseMenu {
    + gameIsPaused : bool
    + Awake() : void
    + Resume() : void
    + Pause(context:InputAction.CallbackContext) : void
    + LoadMenu() : void
    + QuitGame() : void
    + OnEnable() : void
    + OnDisable() : void
    + ActivateMenu() : void
    + DeactivateMenu() : void
}
MonoBehaviour <|- - PauseMenu
@enduml

PlantUML version 1.2020.02(Sun Mar 01 10:22:07 GMT 2020)
(GPL source distribution)
Java Runtime: OpenJDK Runtime Environment
JVM: OpenJDK 64-Bit Server VM
Java Version: 11.0.9+11-Ubuntu-0ubuntu1
Operating System: Linux
Default Encoding: ANSI_X3.4-1968
Language: en
Country: US
--></g></svg>