<?xml version="1.0" encoding="UTF-8" standalone="no"?><svg xmlns="http://www.w3.org/2000/svg" xmlns:xlink="http://www.w3.org/1999/xlink" contentScriptType="application/ecmascript" contentStyleType="text/css" height="226px" preserveAspectRatio="none" style="width:329px;height:226px;" version="1.1" viewBox="0 0 329 226" width="329px" zoomAndPan="magnify"><defs><filter height="300%" id="f1p56314192gwt" width="300%" x="-1" y="-1"><feGaussianBlur result="blurOut" stdDeviation="2.0"/><feColorMatrix in="blurOut" result="blurOut2" type="matrix" values="0 0 0 0 0 0 0 0 0 0 0 0 0 0 0 0 0 0 .4 0"/><feOffset dx="4.0" dy="4.0" in="blurOut2" result="blurOut3"/><feBlend in="SourceGraphic" in2="blurOut3" mode="normal"/></filter></defs><g><!--MD5=[24dc888c2d617b7b3277758e348b78f9]
class ItemActionPanel--><rect fill="#FEFECE" filter="url(#f1p56314192gwt)" height="99.2188" id="ItemActionPanel" style="stroke: #A80036; stroke-width: 1.5;" width="312" x="6" y="116"/><ellipse cx="107.25" cy="132" fill="#ADD1B2" rx="11" ry="11" style="stroke: #A80036; stroke-width: 1.0;"/><path d="M110.2188,137.6406 Q109.6406,137.9375 109,138.0781 Q108.3594,138.2344 107.6563,138.2344 Q105.1563,138.2344 103.8281,136.5938 Q102.5156,134.9375 102.5156,131.8125 Q102.5156,128.6875 103.8281,127.0313 Q105.1563,125.375 107.6563,125.375 Q108.3594,125.375 109,125.5313 Q109.6563,125.6875 110.2188,125.9844 L110.2188,128.7031 Q109.5938,128.125 109,127.8594 Q108.4063,127.5781 107.7813,127.5781 Q106.4375,127.5781 105.75,128.6563 Q105.0625,129.7188 105.0625,131.8125 Q105.0625,133.9063 105.75,134.9844 Q106.4375,136.0469 107.7813,136.0469 Q108.4063,136.0469 109,135.7813 Q109.5938,135.5 110.2188,134.9219 L110.2188,137.6406 Z "/><text fill="#000000" font-family="sans-serif" font-size="12" lengthAdjust="spacingAndGlyphs" textLength="101" x="127.75" y="136.1543">ItemActionPanel</text><line style="stroke: #A80036; stroke-width: 1.5;" x1="7" x2="317" y1="148" y2="148"/><line style="stroke: #A80036; stroke-width: 1.5;" x1="7" x2="317" y1="156" y2="156"/><ellipse cx="17" cy="167" fill="#84BE84" rx="3" ry="3" style="stroke: #038048; stroke-width: 1.0;"/><text fill="#000000" font-family="sans-serif" font-size="11" lengthAdjust="spacingAndGlyphs" textLength="286" x="26" y="170.2104">AddButon(name:string, onClickAction:Action) : void</text><ellipse cx="17" cy="179.8047" fill="#84BE84" rx="3" ry="3" style="stroke: #038048; stroke-width: 1.0;"/><text fill="#000000" font-family="sans-serif" font-size="11" lengthAdjust="spacingAndGlyphs" textLength="125" x="26" y="183.0151">Toggle(val:bool) : void</text><ellipse cx="17" cy="192.6094" fill="#84BE84" rx="3" ry="3" style="stroke: #038048; stroke-width: 1.0;"/><text fill="#000000" font-family="sans-serif" font-size="11" lengthAdjust="spacingAndGlyphs" textLength="151" x="26" y="195.8198">RemoveOldButtons() : void</text><ellipse cx="17" cy="205.4141" fill="#84BE84" rx="3" ry="3" style="stroke: #038048; stroke-width: 1.0;"/><text fill="#000000" font-family="sans-serif" font-size="11" lengthAdjust="spacingAndGlyphs" textLength="83" x="26" y="208.6245">Update() : void</text><!--MD5=[83b3cf3d23d77c6f1e1b5291a241bc2a]
class MonoBehaviour--><rect fill="#FEFECE" filter="url(#f1p56314192gwt)" height="48" id="MonoBehaviour" style="stroke: #A80036; stroke-width: 1.5;" width="128" x="98" y="8"/><ellipse cx="113" cy="24" fill="#ADD1B2" rx="11" ry="11" style="stroke: #A80036; stroke-width: 1.0;"/><path d="M115.9688,29.6406 Q115.3906,29.9375 114.75,30.0781 Q114.1094,30.2344 113.4063,30.2344 Q110.9063,30.2344 109.5781,28.5938 Q108.2656,26.9375 108.2656,23.8125 Q108.2656,20.6875 109.5781,19.0313 Q110.9063,17.375 113.4063,17.375 Q114.1094,17.375 114.75,17.5313 Q115.4063,17.6875 115.9688,17.9844 L115.9688,20.7031 Q115.3438,20.125 114.75,19.8594 Q114.1563,19.5781 113.5313,19.5781 Q112.1875,19.5781 111.5,20.6563 Q110.8125,21.7188 110.8125,23.8125 Q110.8125,25.9063 111.5,26.9844 Q112.1875,28.0469 113.5313,28.0469 Q114.1563,28.0469 114.75,27.7813 Q115.3438,27.5 115.9688,26.9219 L115.9688,29.6406 Z "/><text fill="#000000" font-family="sans-serif" font-size="12" lengthAdjust="spacingAndGlyphs" textLength="96" x="127" y="28.1543">MonoBehaviour</text><line style="stroke: #A80036; stroke-width: 1.5;" x1="99" x2="225" y1="40" y2="40"/><line style="stroke: #A80036; stroke-width: 1.5;" x1="99" x2="225" y1="48" y2="48"/><!--MD5=[83a327a786b2fc0df4002e36e0377936]
reverse link MonoBehaviour to ItemActionPanel--><path d="M162,76.51 C162,89.14 162,103.01 162,115.93 " fill="none" id="MonoBehaviour&lt;-ItemActionPanel" style="stroke: #A80036; stroke-width: 1.0;"/><polygon fill="none" points="155,76.21,162,56.21,169,76.21,155,76.21" style="stroke: #A80036; stroke-width: 1.0;"/><!--MD5=[dd5c946169b421be389c0e3c4f5f72f9]
@startuml
class ItemActionPanel {
    + AddButon(name:string, onClickAction:Action) : void
    + Toggle(val:bool) : void
    + RemoveOldButtons() : void
    + Update() : void
}
MonoBehaviour <|- - ItemActionPanel
@enduml

PlantUML version 1.2020.02(Sun Mar 01 10:22:07 GMT 2020)
(GPL source distribution)
Java Runtime: OpenJDK Runtime Environment
JVM: OpenJDK 64-Bit Server VM
Java Version: 11.0.9+11-Ubuntu-0ubuntu1
Operating System: Linux
Default Encoding: ANSI_X3.4-1968
Language: en
Country: US
--></g></svg>