<?xml version="1.0" encoding="UTF-8" standalone="no"?><svg xmlns="http://www.w3.org/2000/svg" xmlns:xlink="http://www.w3.org/1999/xlink" contentScriptType="application/ecmascript" contentStyleType="text/css" height="226px" preserveAspectRatio="none" style="width:273px;height:226px;" version="1.1" viewBox="0 0 273 226" width="273px" zoomAndPan="magnify"><defs><filter height="300%" id="f16vn81ccff8o5" width="300%" x="-1" y="-1"><feGaussianBlur result="blurOut" stdDeviation="2.0"/><feColorMatrix in="blurOut" result="blurOut2" type="matrix" values="0 0 0 0 0 0 0 0 0 0 0 0 0 0 0 0 0 0 .4 0"/><feOffset dx="4.0" dy="4.0" in="blurOut2" result="blurOut3"/><feBlend in="SourceGraphic" in2="blurOut3" mode="normal"/></filter></defs><g><!--MD5=[b6c1030a2fa61660b680fc5db34639b6]
class ItemActionMenu--><rect fill="#FEFECE" filter="url(#f16vn81ccff8o5)" height="99.2188" id="ItemActionMenu" style="stroke: #A80036; stroke-width: 1.5;" width="256" x="6" y="116"/><ellipse cx="79.75" cy="132" fill="#ADD1B2" rx="11" ry="11" style="stroke: #A80036; stroke-width: 1.0;"/><path d="M82.7188,137.6406 Q82.1406,137.9375 81.5,138.0781 Q80.8594,138.2344 80.1563,138.2344 Q77.6563,138.2344 76.3281,136.5938 Q75.0156,134.9375 75.0156,131.8125 Q75.0156,128.6875 76.3281,127.0313 Q77.6563,125.375 80.1563,125.375 Q80.8594,125.375 81.5,125.5313 Q82.1563,125.6875 82.7188,125.9844 L82.7188,128.7031 Q82.0938,128.125 81.5,127.8594 Q80.9063,127.5781 80.2813,127.5781 Q78.9375,127.5781 78.25,128.6563 Q77.5625,129.7188 77.5625,131.8125 Q77.5625,133.9063 78.25,134.9844 Q78.9375,136.0469 80.2813,136.0469 Q80.9063,136.0469 81.5,135.7813 Q82.0938,135.5 82.7188,134.9219 L82.7188,137.6406 Z "/><text fill="#000000" font-family="sans-serif" font-size="12" lengthAdjust="spacingAndGlyphs" textLength="100" x="100.25" y="136.1543">ItemActionMenu</text><line style="stroke: #A80036; stroke-width: 1.5;" x1="7" x2="261" y1="148" y2="148"/><line style="stroke: #A80036; stroke-width: 1.5;" x1="7" x2="261" y1="156" y2="156"/><ellipse cx="17" cy="167" fill="#84BE84" rx="3" ry="3" style="stroke: #038048; stroke-width: 1.0;"/><text fill="#000000" font-family="sans-serif" font-size="11" lengthAdjust="spacingAndGlyphs" textLength="79" x="26" y="170.2104">Awake() : void</text><ellipse cx="17" cy="179.8047" fill="#84BE84" rx="3" ry="3" style="stroke: #038048; stroke-width: 1.0;"/><text fill="#000000" font-family="sans-serif" font-size="11" lengthAdjust="spacingAndGlyphs" textLength="230" x="26" y="183.0151">SetData(sprite:Sprite, quantity:int) : void</text><text fill="#000000" font-family="sans-serif" font-size="11" lengthAdjust="spacingAndGlyphs" textLength="83" x="26" y="195.8198">Update() : void</text><ellipse cx="17" cy="205.4141" fill="#84BE84" rx="3" ry="3" style="stroke: #038048; stroke-width: 1.0;"/><text fill="#000000" font-family="sans-serif" font-size="11" lengthAdjust="spacingAndGlyphs" textLength="125" x="26" y="208.6245">Toggle(val:bool) : void</text><!--MD5=[83b3cf3d23d77c6f1e1b5291a241bc2a]
class MonoBehaviour--><rect fill="#FEFECE" filter="url(#f16vn81ccff8o5)" height="48" id="MonoBehaviour" style="stroke: #A80036; stroke-width: 1.5;" width="128" x="70" y="8"/><ellipse cx="85" cy="24" fill="#ADD1B2" rx="11" ry="11" style="stroke: #A80036; stroke-width: 1.0;"/><path d="M87.9688,29.6406 Q87.3906,29.9375 86.75,30.0781 Q86.1094,30.2344 85.4063,30.2344 Q82.9063,30.2344 81.5781,28.5938 Q80.2656,26.9375 80.2656,23.8125 Q80.2656,20.6875 81.5781,19.0313 Q82.9063,17.375 85.4063,17.375 Q86.1094,17.375 86.75,17.5313 Q87.4063,17.6875 87.9688,17.9844 L87.9688,20.7031 Q87.3438,20.125 86.75,19.8594 Q86.1563,19.5781 85.5313,19.5781 Q84.1875,19.5781 83.5,20.6563 Q82.8125,21.7188 82.8125,23.8125 Q82.8125,25.9063 83.5,26.9844 Q84.1875,28.0469 85.5313,28.0469 Q86.1563,28.0469 86.75,27.7813 Q87.3438,27.5 87.9688,26.9219 L87.9688,29.6406 Z "/><text fill="#000000" font-family="sans-serif" font-size="12" lengthAdjust="spacingAndGlyphs" textLength="96" x="99" y="28.1543">MonoBehaviour</text><line style="stroke: #A80036; stroke-width: 1.5;" x1="71" x2="197" y1="40" y2="40"/><line style="stroke: #A80036; stroke-width: 1.5;" x1="71" x2="197" y1="48" y2="48"/><!--MD5=[8e486fb5192dfcbc78bdce3f534e0ef8]
reverse link MonoBehaviour to ItemActionMenu--><path d="M134,76.51 C134,89.14 134,103.01 134,115.93 " fill="none" id="MonoBehaviour&lt;-ItemActionMenu" style="stroke: #A80036; stroke-width: 1.0;"/><polygon fill="none" points="127,76.21,134,56.21,141,76.21,127,76.21" style="stroke: #A80036; stroke-width: 1.0;"/><!--MD5=[d5e6e7e5b4a4c5384c4643bdb33208bb]
@startuml
class ItemActionMenu {
    + Awake() : void
    + SetData(sprite:Sprite, quantity:int) : void
    Update() : void
    + Toggle(val:bool) : void
}
MonoBehaviour <|- - ItemActionMenu
@enduml

PlantUML version 1.2020.02(Sun Mar 01 10:22:07 GMT 2020)
(GPL source distribution)
Java Runtime: OpenJDK Runtime Environment
JVM: OpenJDK 64-Bit Server VM
Java Version: 11.0.9+11-Ubuntu-0ubuntu1
Operating System: Linux
Default Encoding: ANSI_X3.4-1968
Language: en
Country: US
--></g></svg>