<?xml version="1.0" encoding="UTF-8" standalone="no"?><svg xmlns="http://www.w3.org/2000/svg" xmlns:xlink="http://www.w3.org/1999/xlink" contentScriptType="application/ecmascript" contentStyleType="text/css" height="354px" preserveAspectRatio="none" style="width:881px;height:354px;" version="1.1" viewBox="0 0 881 354" width="881px" zoomAndPan="magnify"><defs><filter height="300%" id="f8cvxe5a1jgla" width="300%" x="-1" y="-1"><feGaussianBlur result="blurOut" stdDeviation="2.0"/><feColorMatrix in="blurOut" result="blurOut2" type="matrix" values="0 0 0 0 0 0 0 0 0 0 0 0 0 0 0 0 0 0 .4 0"/><feOffset dx="4.0" dy="4.0" in="blurOut2" result="blurOut3"/><feBlend in="SourceGraphic" in2="blurOut3" mode="normal"/></filter></defs><g><!--MD5=[81b3bd36ce7f1e22b971e992d3be66ab]
class UIInventoryPage--><rect fill="#FEFECE" filter="url(#f8cvxe5a1jgla)" height="227.2656" id="UIInventoryPage" style="stroke: #A80036; stroke-width: 1.5;" width="603" x="6" y="116"/><ellipse cx="252.75" cy="132" fill="#ADD1B2" rx="11" ry="11" style="stroke: #A80036; stroke-width: 1.0;"/><path d="M255.7188,137.6406 Q255.1406,137.9375 254.5,138.0781 Q253.8594,138.2344 253.1563,138.2344 Q250.6563,138.2344 249.3281,136.5938 Q248.0156,134.9375 248.0156,131.8125 Q248.0156,128.6875 249.3281,127.0313 Q250.6563,125.375 253.1563,125.375 Q253.8594,125.375 254.5,125.5313 Q255.1563,125.6875 255.7188,125.9844 L255.7188,128.7031 Q255.0938,128.125 254.5,127.8594 Q253.9063,127.5781 253.2813,127.5781 Q251.9375,127.5781 251.25,128.6563 Q250.5625,129.7188 250.5625,131.8125 Q250.5625,133.9063 251.25,134.9844 Q251.9375,136.0469 253.2813,136.0469 Q253.9063,136.0469 254.5,135.7813 Q255.0938,135.5 255.7188,134.9219 L255.7188,137.6406 Z "/><text fill="#000000" font-family="sans-serif" font-size="12" lengthAdjust="spacingAndGlyphs" textLength="101" x="273.25" y="136.1543">UIInventoryPage</text><line style="stroke: #A80036; stroke-width: 1.5;" x1="7" x2="608" y1="148" y2="148"/><ellipse cx="17" cy="159" fill="none" rx="3" ry="3" style="stroke: #038048; stroke-width: 1.0;"/><text fill="#000000" font-family="sans-serif" font-size="11" lengthAdjust="spacingAndGlyphs" text-decoration="underline" textLength="103" x="26" y="162.2104">CtrlPressed : bool</text><ellipse cx="17" cy="171.8047" fill="none" rx="3" ry="3" style="stroke: #038048; stroke-width: 1.0;"/><text fill="#000000" font-family="sans-serif" font-size="11" lengthAdjust="spacingAndGlyphs" textLength="577" x="26" y="175.0151">«event» OnSelect,OnUnselect,OnSplit,OnDrop,OnItemActionRequested,OnStartDragging : Action&lt;int&gt;</text><ellipse cx="17" cy="184.6094" fill="none" rx="3" ry="3" style="stroke: #038048; stroke-width: 1.0;"/><text fill="#000000" font-family="sans-serif" font-size="11" lengthAdjust="spacingAndGlyphs" textLength="228" x="26" y="187.8198">«event» OnSwapItems : Action&lt;int, int&gt;</text><line style="stroke: #A80036; stroke-width: 1.5;" x1="7" x2="608" y1="194.4141" y2="194.4141"/><ellipse cx="17" cy="205.4141" fill="#84BE84" rx="3" ry="3" style="stroke: #038048; stroke-width: 1.0;"/><text fill="#000000" font-family="sans-serif" font-size="11" lengthAdjust="spacingAndGlyphs" textLength="243" x="26" y="208.6245">InitializeInventoryUI(inventorysize:int) : void</text><ellipse cx="17" cy="218.2188" fill="#84BE84" rx="3" ry="3" style="stroke: #038048; stroke-width: 1.0;"/><text fill="#000000" font-family="sans-serif" font-size="11" lengthAdjust="spacingAndGlyphs" textLength="386" x="26" y="221.4292">UpdateData(itemIndex:int, itemImage:Sprite, itemQuantity:int) : void</text><ellipse cx="17" cy="231.0234" fill="#84BE84" rx="3" ry="3" style="stroke: #038048; stroke-width: 1.0;"/><text fill="#000000" font-family="sans-serif" font-size="11" lengthAdjust="spacingAndGlyphs" textLength="296" x="26" y="234.2339">CreateDraggedItem(sprite:Sprite, quantity:int) : void</text><ellipse cx="17" cy="243.8281" fill="#84BE84" rx="3" ry="3" style="stroke: #038048; stroke-width: 1.0;"/><text fill="#000000" font-family="sans-serif" font-size="11" lengthAdjust="spacingAndGlyphs" textLength="74" x="26" y="247.0386">Show() : void</text><ellipse cx="17" cy="256.6328" fill="#84BE84" rx="3" ry="3" style="stroke: #038048; stroke-width: 1.0;"/><text fill="#000000" font-family="sans-serif" font-size="11" lengthAdjust="spacingAndGlyphs" textLength="328" x="26" y="259.8433">AddAction(actionName:string, performAction:Action) : void</text><ellipse cx="17" cy="269.4375" fill="#84BE84" rx="3" ry="3" style="stroke: #038048; stroke-width: 1.0;"/><text fill="#000000" font-family="sans-serif" font-size="11" lengthAdjust="spacingAndGlyphs" textLength="206" x="26" y="272.6479">ShowItemAction(itemIndex:int) : void</text><ellipse cx="17" cy="282.2422" fill="#84BE84" rx="3" ry="3" style="stroke: #038048; stroke-width: 1.0;"/><text fill="#000000" font-family="sans-serif" font-size="11" lengthAdjust="spacingAndGlyphs" textLength="127" x="26" y="285.4526">HideItemAction() : void</text><ellipse cx="17" cy="295.0469" fill="#84BE84" rx="3" ry="3" style="stroke: #038048; stroke-width: 1.0;"/><text fill="#000000" font-family="sans-serif" font-size="11" lengthAdjust="spacingAndGlyphs" textLength="137" x="26" y="298.2573">DeselectAllItems() : void</text><ellipse cx="17" cy="307.8516" fill="#84BE84" rx="3" ry="3" style="stroke: #038048; stroke-width: 1.0;"/><text fill="#000000" font-family="sans-serif" font-size="11" lengthAdjust="spacingAndGlyphs" textLength="165" x="26" y="311.062">DeselectItem(index:int) : void</text><ellipse cx="17" cy="320.6563" fill="#84BE84" rx="3" ry="3" style="stroke: #038048; stroke-width: 1.0;"/><text fill="#000000" font-family="sans-serif" font-size="11" lengthAdjust="spacingAndGlyphs" textLength="68" x="26" y="323.8667">Hide() : void</text><ellipse cx="17" cy="333.4609" fill="#84BE84" rx="3" ry="3" style="stroke: #038048; stroke-width: 1.0;"/><text fill="#000000" font-family="sans-serif" font-size="11" lengthAdjust="spacingAndGlyphs" textLength="83" x="26" y="336.6714">Update() : void</text><!--MD5=[e644022de7dea015dd09463c37421447]
class List`1--><rect fill="#FEFECE" filter="url(#f8cvxe5a1jgla)" height="48" id="List`1" style="stroke: #A80036; stroke-width: 1.5;" width="78" x="789.5" y="205.5"/><ellipse cx="804.5" cy="221.5" fill="#ADD1B2" rx="11" ry="11" style="stroke: #A80036; stroke-width: 1.0;"/><path d="M807.4688,227.1406 Q806.8906,227.4375 806.25,227.5781 Q805.6094,227.7344 804.9063,227.7344 Q802.4063,227.7344 801.0781,226.0938 Q799.7656,224.4375 799.7656,221.3125 Q799.7656,218.1875 801.0781,216.5313 Q802.4063,214.875 804.9063,214.875 Q805.6094,214.875 806.25,215.0313 Q806.9063,215.1875 807.4688,215.4844 L807.4688,218.2031 Q806.8438,217.625 806.25,217.3594 Q805.6563,217.0781 805.0313,217.0781 Q803.6875,217.0781 803,218.1563 Q802.3125,219.2188 802.3125,221.3125 Q802.3125,223.4063 803,224.4844 Q803.6875,225.5469 805.0313,225.5469 Q805.6563,225.5469 806.25,225.2813 Q806.8438,225 807.4688,224.4219 L807.4688,227.1406 Z "/><text fill="#000000" font-family="sans-serif" font-size="12" lengthAdjust="spacingAndGlyphs" textLength="35" x="818.5" y="225.6543">List`1</text><rect fill="#FFFFFF" height="15.9688" style="stroke: #000000; stroke-width: 1.0; stroke-dasharray: 2.0,2.0;" width="9" x="861.5" y="202.5"/><text fill="#000000" font-family="sans-serif" font-size="12" font-style="italic" lengthAdjust="spacingAndGlyphs" textLength="7" x="862.5" y="214.6387">T</text><line style="stroke: #A80036; stroke-width: 1.5;" x1="790.5" x2="866.5" y1="237.5" y2="237.5"/><line style="stroke: #A80036; stroke-width: 1.5;" x1="790.5" x2="866.5" y1="245.5" y2="245.5"/><!--MD5=[75f1770188bed72f5adae599261d97dc]
class HashSet`1--><rect fill="#FEFECE" filter="url(#f8cvxe5a1jgla)" height="48" id="HashSet`1" style="stroke: #A80036; stroke-width: 1.5;" width="110" x="644.5" y="205.5"/><ellipse cx="659.5" cy="221.5" fill="#ADD1B2" rx="11" ry="11" style="stroke: #A80036; stroke-width: 1.0;"/><path d="M662.4688,227.1406 Q661.8906,227.4375 661.25,227.5781 Q660.6094,227.7344 659.9063,227.7344 Q657.4063,227.7344 656.0781,226.0938 Q654.7656,224.4375 654.7656,221.3125 Q654.7656,218.1875 656.0781,216.5313 Q657.4063,214.875 659.9063,214.875 Q660.6094,214.875 661.25,215.0313 Q661.9063,215.1875 662.4688,215.4844 L662.4688,218.2031 Q661.8438,217.625 661.25,217.3594 Q660.6563,217.0781 660.0313,217.0781 Q658.6875,217.0781 658,218.1563 Q657.3125,219.2188 657.3125,221.3125 Q657.3125,223.4063 658,224.4844 Q658.6875,225.5469 660.0313,225.5469 Q660.6563,225.5469 661.25,225.2813 Q661.8438,225 662.4688,224.4219 L662.4688,227.1406 Z "/><text fill="#000000" font-family="sans-serif" font-size="12" lengthAdjust="spacingAndGlyphs" textLength="67" x="673.5" y="225.6543">HashSet`1</text><rect fill="#FFFFFF" height="15.9688" style="stroke: #000000; stroke-width: 1.0; stroke-dasharray: 2.0,2.0;" width="9" x="748.5" y="202.5"/><text fill="#000000" font-family="sans-serif" font-size="12" font-style="italic" lengthAdjust="spacingAndGlyphs" textLength="7" x="749.5" y="214.6387">T</text><line style="stroke: #A80036; stroke-width: 1.5;" x1="645.5" x2="753.5" y1="237.5" y2="237.5"/><line style="stroke: #A80036; stroke-width: 1.5;" x1="645.5" x2="753.5" y1="245.5" y2="245.5"/><!--MD5=[83b3cf3d23d77c6f1e1b5291a241bc2a]
class MonoBehaviour--><rect fill="#FEFECE" filter="url(#f8cvxe5a1jgla)" height="48" id="MonoBehaviour" style="stroke: #A80036; stroke-width: 1.5;" width="128" x="243.5" y="8"/><ellipse cx="258.5" cy="24" fill="#ADD1B2" rx="11" ry="11" style="stroke: #A80036; stroke-width: 1.0;"/><path d="M261.4688,29.6406 Q260.8906,29.9375 260.25,30.0781 Q259.6094,30.2344 258.9063,30.2344 Q256.4063,30.2344 255.0781,28.5938 Q253.7656,26.9375 253.7656,23.8125 Q253.7656,20.6875 255.0781,19.0313 Q256.4063,17.375 258.9063,17.375 Q259.6094,17.375 260.25,17.5313 Q260.9063,17.6875 261.4688,17.9844 L261.4688,20.7031 Q260.8438,20.125 260.25,19.8594 Q259.6563,19.5781 259.0313,19.5781 Q257.6875,19.5781 257,20.6563 Q256.3125,21.7188 256.3125,23.8125 Q256.3125,25.9063 257,26.9844 Q257.6875,28.0469 259.0313,28.0469 Q259.6563,28.0469 260.25,27.7813 Q260.8438,27.5 261.4688,26.9219 L261.4688,29.6406 Z "/><text fill="#000000" font-family="sans-serif" font-size="12" lengthAdjust="spacingAndGlyphs" textLength="96" x="272.5" y="28.1543">MonoBehaviour</text><line style="stroke: #A80036; stroke-width: 1.5;" x1="244.5" x2="370.5" y1="40" y2="40"/><line style="stroke: #A80036; stroke-width: 1.5;" x1="244.5" x2="370.5" y1="48" y2="48"/><!--MD5=[469b465163ff691010da173a0d03667b]
reverse link MonoBehaviour to UIInventoryPage--><path d="M307.5,76.38 C307.5,88.38 307.5,101.97 307.5,115.98 " fill="none" id="MonoBehaviour&lt;-UIInventoryPage" style="stroke: #A80036; stroke-width: 1.0;"/><polygon fill="none" points="300.5,76.19,307.5,56.19,314.5,76.19,300.5,76.19" style="stroke: #A80036; stroke-width: 1.0;"/><!--MD5=[7ef52aae7315d8926a271303b6a2f24d]
link UIInventoryPage to List`1--><path d="M552.8095,111.9482 C552.8095,111.9482 614.84,92.15 645,86 C692.9,76.24 712.61,61.65 755,86 C793.46,108.09 812.47,157.82 821.37,192.5 " fill="none" id="UIInventoryPage-List`1" style="stroke: #A80036; stroke-width: 1.0;"/><polygon fill="#A80036" points="824.4,205.42,826.2372,195.744,823.2573,200.5523,818.4489,197.5724,824.4,205.42" style="stroke: #A80036; stroke-width: 1.0;"/><line style="stroke: #A80036; stroke-width: 1.0;" x1="823.2573" x2="821.43" y1="200.5523" y2="192.76"/><polygon fill="#FFFFFF" points="541.5,115.96,548.492,117.724,552.8095,111.9482,545.8175,110.1843,541.5,115.96" style="stroke: #A80036; stroke-width: 1.0;"/><text fill="#000000" font-family="sans-serif" font-size="13" lengthAdjust="spacingAndGlyphs" textLength="204" x="593.2119" y="194.4115">listOfUIItems&lt;UIInventoryItem&gt;</text><!--MD5=[b2e8e2af7d5852ce371fae2a9c231f93]
link UIInventoryPage to HashSet`1--><path d="M621.16,229.5 C621.16,229.5 628.36,229.5 631.35,229.5 " fill="none" id="UIInventoryPage-HashSet`1" style="stroke: #A80036; stroke-width: 1.0;"/><polygon fill="#A80036" points="644.45,229.5,635.45,225.5,639.45,229.5,635.45,233.5,644.45,229.5" style="stroke: #A80036; stroke-width: 1.0;"/><line style="stroke: #A80036; stroke-width: 1.0;" x1="639.45" x2="631.45" y1="229.5" y2="229.5"/><polygon fill="#FFFFFF" points="609.16,229.5,615.16,233.5,621.16,229.5,615.16,225.5,609.16,229.5" style="stroke: #A80036; stroke-width: 1.0;"/><text fill="#000000" font-family="sans-serif" font-size="13" lengthAdjust="spacingAndGlyphs" textLength="215" x="523.0636" y="194.11">currentlyPressedKeys&lt;KeyCode&gt;</text><!--MD5=[19852d74d2ceceee6154d048f204d9f0]
@startuml
class UIInventoryPage {
    + {static} CtrlPressed : bool
    +  <<event>> OnSelect,OnUnselect,OnSplit,OnDrop,OnItemActionRequested,OnStartDragging : Action<int> 
    +  <<event>> OnSwapItems : Action<int, int> 
    + InitializeInventoryUI(inventorysize:int) : void
    + UpdateData(itemIndex:int, itemImage:Sprite, itemQuantity:int) : void
    + CreateDraggedItem(sprite:Sprite, quantity:int) : void
    + Show() : void
    + AddAction(actionName:string, performAction:Action) : void
    + ShowItemAction(itemIndex:int) : void
    + HideItemAction() : void
    + DeselectAllItems() : void
    + DeselectItem(index:int) : void
    + Hide() : void
    + Update() : void
}
class "List`1"<T> {
}
class "HashSet`1"<T> {
}
MonoBehaviour <|- - UIInventoryPage
UIInventoryPage o-> "listOfUIItems<UIInventoryItem>" "List`1"
UIInventoryPage o-> "currentlyPressedKeys<KeyCode>" "HashSet`1"
@enduml

PlantUML version 1.2020.02(Sun Mar 01 10:22:07 GMT 2020)
(GPL source distribution)
Java Runtime: OpenJDK Runtime Environment
JVM: OpenJDK 64-Bit Server VM
Java Version: 11.0.9+11-Ubuntu-0ubuntu1
Operating System: Linux
Default Encoding: ANSI_X3.4-1968
Language: en
Country: US
--></g></svg>