<?xml version="1.0" encoding="UTF-8" standalone="no"?><svg xmlns="http://www.w3.org/2000/svg" xmlns:xlink="http://www.w3.org/1999/xlink" contentScriptType="application/ecmascript" contentStyleType="text/css" height="328px" preserveAspectRatio="none" style="width:994px;height:328px;" version="1.1" viewBox="0 0 994 328" width="994px" zoomAndPan="magnify"><defs><filter height="300%" id="f1m7vo3blfwpv3" width="300%" x="-1" y="-1"><feGaussianBlur result="blurOut" stdDeviation="2.0"/><feColorMatrix in="blurOut" result="blurOut2" type="matrix" values="0 0 0 0 0 0 0 0 0 0 0 0 0 0 0 0 0 0 .4 0"/><feOffset dx="4.0" dy="4.0" in="blurOut2" result="blurOut3"/><feBlend in="SourceGraphic" in2="blurOut3" mode="normal"/></filter></defs><g><!--MD5=[caddb904a663afa7080875127c73bfe6]
class UIInventoryItem--><rect fill="#FEFECE" filter="url(#f1m7vo3blfwpv3)" height="201.6563" id="UIInventoryItem" style="stroke: #A80036; stroke-width: 1.5;" width="744" x="130" y="116"/><ellipse cx="449.75" cy="132" fill="#ADD1B2" rx="11" ry="11" style="stroke: #A80036; stroke-width: 1.0;"/><path d="M452.7188,137.6406 Q452.1406,137.9375 451.5,138.0781 Q450.8594,138.2344 450.1563,138.2344 Q447.6563,138.2344 446.3281,136.5938 Q445.0156,134.9375 445.0156,131.8125 Q445.0156,128.6875 446.3281,127.0313 Q447.6563,125.375 450.1563,125.375 Q450.8594,125.375 451.5,125.5313 Q452.1563,125.6875 452.7188,125.9844 L452.7188,128.7031 Q452.0938,128.125 451.5,127.8594 Q450.9063,127.5781 450.2813,127.5781 Q448.9375,127.5781 448.25,128.6563 Q447.5625,129.7188 447.5625,131.8125 Q447.5625,133.9063 448.25,134.9844 Q448.9375,136.0469 450.2813,136.0469 Q450.9063,136.0469 451.5,135.7813 Q452.0938,135.5 452.7188,134.9219 L452.7188,137.6406 Z "/><text fill="#000000" font-family="sans-serif" font-size="12" lengthAdjust="spacingAndGlyphs" textLength="96" x="470.25" y="136.1543">UIInventoryItem</text><line style="stroke: #A80036; stroke-width: 1.5;" x1="131" x2="873" y1="148" y2="148"/><ellipse cx="141" cy="159" fill="none" rx="3" ry="3" style="stroke: #038048; stroke-width: 1.0;"/><text fill="#000000" font-family="sans-serif" font-size="11" lengthAdjust="spacingAndGlyphs" textLength="718" x="150" y="162.2104">«event» OnItemClicked,OnItemDroppedOn,OnItemBeginDrag,OnItemEndDrag,OnRightMouseBtnClick : Action&lt;UIInventoryItem&gt;</text><ellipse cx="141" cy="171.8047" fill="none" rx="3" ry="3" style="stroke: #038048; stroke-width: 1.0;"/><text fill="#000000" font-family="sans-serif" font-size="11" lengthAdjust="spacingAndGlyphs" textLength="129" x="150" y="175.0151">selected : bool = false</text><line style="stroke: #A80036; stroke-width: 1.5;" x1="131" x2="873" y1="181.6094" y2="181.6094"/><ellipse cx="141" cy="192.6094" fill="#84BE84" rx="3" ry="3" style="stroke: #038048; stroke-width: 1.0;"/><text fill="#000000" font-family="sans-serif" font-size="11" lengthAdjust="spacingAndGlyphs" textLength="79" x="150" y="195.8198">Awake() : void</text><ellipse cx="141" cy="205.4141" fill="#84BE84" rx="3" ry="3" style="stroke: #038048; stroke-width: 1.0;"/><text fill="#000000" font-family="sans-serif" font-size="11" lengthAdjust="spacingAndGlyphs" textLength="101" x="150" y="208.6245">ResetData() : void</text><ellipse cx="141" cy="218.2188" fill="#84BE84" rx="3" ry="3" style="stroke: #038048; stroke-width: 1.0;"/><text fill="#000000" font-family="sans-serif" font-size="11" lengthAdjust="spacingAndGlyphs" textLength="92" x="150" y="221.4292">Deselect() : void</text><ellipse cx="141" cy="231.0234" fill="#84BE84" rx="3" ry="3" style="stroke: #038048; stroke-width: 1.0;"/><text fill="#000000" font-family="sans-serif" font-size="11" lengthAdjust="spacingAndGlyphs" textLength="230" x="150" y="234.2339">SetData(sprite:Sprite, quantity:int) : void</text><ellipse cx="141" cy="243.8281" fill="#84BE84" rx="3" ry="3" style="stroke: #038048; stroke-width: 1.0;"/><text fill="#000000" font-family="sans-serif" font-size="11" lengthAdjust="spacingAndGlyphs" textLength="78" x="150" y="247.0386">Select() : void</text><ellipse cx="141" cy="256.6328" fill="#84BE84" rx="3" ry="3" style="stroke: #038048; stroke-width: 1.0;"/><text fill="#000000" font-family="sans-serif" font-size="11" lengthAdjust="spacingAndGlyphs" textLength="283" x="150" y="259.8433">OnPointerClick(eventData:PointerEventData) : void</text><ellipse cx="141" cy="269.4375" fill="#84BE84" rx="3" ry="3" style="stroke: #038048; stroke-width: 1.0;"/><text fill="#000000" font-family="sans-serif" font-size="11" lengthAdjust="spacingAndGlyphs" textLength="265" x="150" y="272.6479">OnEndDrag(eventData:PointerEventData) : void</text><ellipse cx="141" cy="282.2422" fill="#84BE84" rx="3" ry="3" style="stroke: #038048; stroke-width: 1.0;"/><text fill="#000000" font-family="sans-serif" font-size="11" lengthAdjust="spacingAndGlyphs" textLength="276" x="150" y="285.4526">OnBeginDrag(eventData:PointerEventData) : void</text><ellipse cx="141" cy="295.0469" fill="#84BE84" rx="3" ry="3" style="stroke: #038048; stroke-width: 1.0;"/><text fill="#000000" font-family="sans-serif" font-size="11" lengthAdjust="spacingAndGlyphs" textLength="244" x="150" y="298.2573">OnDrop(eventData:PointerEventData) : void</text><ellipse cx="141" cy="307.8516" fill="#84BE84" rx="3" ry="3" style="stroke: #038048; stroke-width: 1.0;"/><text fill="#000000" font-family="sans-serif" font-size="11" lengthAdjust="spacingAndGlyphs" textLength="244" x="150" y="311.062">OnDrag(eventData:PointerEventData) : void</text><!--MD5=[83b3cf3d23d77c6f1e1b5291a241bc2a]
class MonoBehaviour--><rect fill="#FEFECE" filter="url(#f1m7vo3blfwpv3)" height="48" id="MonoBehaviour" style="stroke: #A80036; stroke-width: 1.5;" width="128" x="6" y="8"/><ellipse cx="21" cy="24" fill="#ADD1B2" rx="11" ry="11" style="stroke: #A80036; stroke-width: 1.0;"/><path d="M23.9688,29.6406 Q23.3906,29.9375 22.75,30.0781 Q22.1094,30.2344 21.4063,30.2344 Q18.9063,30.2344 17.5781,28.5938 Q16.2656,26.9375 16.2656,23.8125 Q16.2656,20.6875 17.5781,19.0313 Q18.9063,17.375 21.4063,17.375 Q22.1094,17.375 22.75,17.5313 Q23.4063,17.6875 23.9688,17.9844 L23.9688,20.7031 Q23.3438,20.125 22.75,19.8594 Q22.1563,19.5781 21.5313,19.5781 Q20.1875,19.5781 19.5,20.6563 Q18.8125,21.7188 18.8125,23.8125 Q18.8125,25.9063 19.5,26.9844 Q20.1875,28.0469 21.5313,28.0469 Q22.1563,28.0469 22.75,27.7813 Q23.3438,27.5 23.9688,26.9219 L23.9688,29.6406 Z "/><text fill="#000000" font-family="sans-serif" font-size="12" lengthAdjust="spacingAndGlyphs" textLength="96" x="35" y="28.1543">MonoBehaviour</text><line style="stroke: #A80036; stroke-width: 1.5;" x1="7" x2="133" y1="40" y2="40"/><line style="stroke: #A80036; stroke-width: 1.5;" x1="7" x2="133" y1="48" y2="48"/><!--MD5=[013e6d23b9b4414f3460dbf272d438e4]
class IPointerClickHandler--><rect fill="#FEFECE" filter="url(#f1m7vo3blfwpv3)" height="48" id="IPointerClickHandler" style="stroke: #A80036; stroke-width: 1.5;" width="157" x="169.5" y="8"/><ellipse cx="184.5" cy="24" fill="#ADD1B2" rx="11" ry="11" style="stroke: #A80036; stroke-width: 1.0;"/><path d="M187.4688,29.6406 Q186.8906,29.9375 186.25,30.0781 Q185.6094,30.2344 184.9063,30.2344 Q182.4063,30.2344 181.0781,28.5938 Q179.7656,26.9375 179.7656,23.8125 Q179.7656,20.6875 181.0781,19.0313 Q182.4063,17.375 184.9063,17.375 Q185.6094,17.375 186.25,17.5313 Q186.9063,17.6875 187.4688,17.9844 L187.4688,20.7031 Q186.8438,20.125 186.25,19.8594 Q185.6563,19.5781 185.0313,19.5781 Q183.6875,19.5781 183,20.6563 Q182.3125,21.7188 182.3125,23.8125 Q182.3125,25.9063 183,26.9844 Q183.6875,28.0469 185.0313,28.0469 Q185.6563,28.0469 186.25,27.7813 Q186.8438,27.5 187.4688,26.9219 L187.4688,29.6406 Z "/><text fill="#000000" font-family="sans-serif" font-size="12" lengthAdjust="spacingAndGlyphs" textLength="125" x="198.5" y="28.1543">IPointerClickHandler</text><line style="stroke: #A80036; stroke-width: 1.5;" x1="170.5" x2="325.5" y1="40" y2="40"/><line style="stroke: #A80036; stroke-width: 1.5;" x1="170.5" x2="325.5" y1="48" y2="48"/><!--MD5=[e2af33228c628bba4b8dd1d02cac5292]
class IDragHandler--><rect fill="#FEFECE" filter="url(#f1m7vo3blfwpv3)" height="48" id="IDragHandler" style="stroke: #A80036; stroke-width: 1.5;" width="114" x="362" y="8"/><ellipse cx="377" cy="24" fill="#ADD1B2" rx="11" ry="11" style="stroke: #A80036; stroke-width: 1.0;"/><path d="M379.9688,29.6406 Q379.3906,29.9375 378.75,30.0781 Q378.1094,30.2344 377.4063,30.2344 Q374.9063,30.2344 373.5781,28.5938 Q372.2656,26.9375 372.2656,23.8125 Q372.2656,20.6875 373.5781,19.0313 Q374.9063,17.375 377.4063,17.375 Q378.1094,17.375 378.75,17.5313 Q379.4063,17.6875 379.9688,17.9844 L379.9688,20.7031 Q379.3438,20.125 378.75,19.8594 Q378.1563,19.5781 377.5313,19.5781 Q376.1875,19.5781 375.5,20.6563 Q374.8125,21.7188 374.8125,23.8125 Q374.8125,25.9063 375.5,26.9844 Q376.1875,28.0469 377.5313,28.0469 Q378.1563,28.0469 378.75,27.7813 Q379.3438,27.5 379.9688,26.9219 L379.9688,29.6406 Z "/><text fill="#000000" font-family="sans-serif" font-size="12" lengthAdjust="spacingAndGlyphs" textLength="82" x="391" y="28.1543">IDragHandler</text><line style="stroke: #A80036; stroke-width: 1.5;" x1="363" x2="475" y1="40" y2="40"/><line style="stroke: #A80036; stroke-width: 1.5;" x1="363" x2="475" y1="48" y2="48"/><!--MD5=[0a81ad221da21d348dd7340f357abf22]
class IBeginDragHandler--><rect fill="#FEFECE" filter="url(#f1m7vo3blfwpv3)" height="48" id="IBeginDragHandler" style="stroke: #A80036; stroke-width: 1.5;" width="149" x="511.5" y="8"/><ellipse cx="526.5" cy="24" fill="#ADD1B2" rx="11" ry="11" style="stroke: #A80036; stroke-width: 1.0;"/><path d="M529.4688,29.6406 Q528.8906,29.9375 528.25,30.0781 Q527.6094,30.2344 526.9063,30.2344 Q524.4063,30.2344 523.0781,28.5938 Q521.7656,26.9375 521.7656,23.8125 Q521.7656,20.6875 523.0781,19.0313 Q524.4063,17.375 526.9063,17.375 Q527.6094,17.375 528.25,17.5313 Q528.9063,17.6875 529.4688,17.9844 L529.4688,20.7031 Q528.8438,20.125 528.25,19.8594 Q527.6563,19.5781 527.0313,19.5781 Q525.6875,19.5781 525,20.6563 Q524.3125,21.7188 524.3125,23.8125 Q524.3125,25.9063 525,26.9844 Q525.6875,28.0469 527.0313,28.0469 Q527.6563,28.0469 528.25,27.7813 Q528.8438,27.5 529.4688,26.9219 L529.4688,29.6406 Z "/><text fill="#000000" font-family="sans-serif" font-size="12" lengthAdjust="spacingAndGlyphs" textLength="117" x="540.5" y="28.1543">IBeginDragHandler</text><line style="stroke: #A80036; stroke-width: 1.5;" x1="512.5" x2="659.5" y1="40" y2="40"/><line style="stroke: #A80036; stroke-width: 1.5;" x1="512.5" x2="659.5" y1="48" y2="48"/><!--MD5=[4cb68356d824232a0cd82ff547f1524d]
class IEndDragHandler--><rect fill="#FEFECE" filter="url(#f1m7vo3blfwpv3)" height="48" id="IEndDragHandler" style="stroke: #A80036; stroke-width: 1.5;" width="138" x="696" y="8"/><ellipse cx="711" cy="24" fill="#ADD1B2" rx="11" ry="11" style="stroke: #A80036; stroke-width: 1.0;"/><path d="M713.9688,29.6406 Q713.3906,29.9375 712.75,30.0781 Q712.1094,30.2344 711.4063,30.2344 Q708.9063,30.2344 707.5781,28.5938 Q706.2656,26.9375 706.2656,23.8125 Q706.2656,20.6875 707.5781,19.0313 Q708.9063,17.375 711.4063,17.375 Q712.1094,17.375 712.75,17.5313 Q713.4063,17.6875 713.9688,17.9844 L713.9688,20.7031 Q713.3438,20.125 712.75,19.8594 Q712.1563,19.5781 711.5313,19.5781 Q710.1875,19.5781 709.5,20.6563 Q708.8125,21.7188 708.8125,23.8125 Q708.8125,25.9063 709.5,26.9844 Q710.1875,28.0469 711.5313,28.0469 Q712.1563,28.0469 712.75,27.7813 Q713.3438,27.5 713.9688,26.9219 L713.9688,29.6406 Z "/><text fill="#000000" font-family="sans-serif" font-size="12" lengthAdjust="spacingAndGlyphs" textLength="106" x="725" y="28.1543">IEndDragHandler</text><line style="stroke: #A80036; stroke-width: 1.5;" x1="697" x2="833" y1="40" y2="40"/><line style="stroke: #A80036; stroke-width: 1.5;" x1="697" x2="833" y1="48" y2="48"/><!--MD5=[aa9769f8558533f610611bf0f7280bb8]
class IDropHandler--><rect fill="#FEFECE" filter="url(#f1m7vo3blfwpv3)" height="48" id="IDropHandler" style="stroke: #A80036; stroke-width: 1.5;" width="114" x="869" y="8"/><ellipse cx="884" cy="24" fill="#ADD1B2" rx="11" ry="11" style="stroke: #A80036; stroke-width: 1.0;"/><path d="M886.9688,29.6406 Q886.3906,29.9375 885.75,30.0781 Q885.1094,30.2344 884.4063,30.2344 Q881.9063,30.2344 880.5781,28.5938 Q879.2656,26.9375 879.2656,23.8125 Q879.2656,20.6875 880.5781,19.0313 Q881.9063,17.375 884.4063,17.375 Q885.1094,17.375 885.75,17.5313 Q886.4063,17.6875 886.9688,17.9844 L886.9688,20.7031 Q886.3438,20.125 885.75,19.8594 Q885.1563,19.5781 884.5313,19.5781 Q883.1875,19.5781 882.5,20.6563 Q881.8125,21.7188 881.8125,23.8125 Q881.8125,25.9063 882.5,26.9844 Q883.1875,28.0469 884.5313,28.0469 Q885.1563,28.0469 885.75,27.7813 Q886.3438,27.5 886.9688,26.9219 L886.9688,29.6406 Z "/><text fill="#000000" font-family="sans-serif" font-size="12" lengthAdjust="spacingAndGlyphs" textLength="82" x="898" y="28.1543">IDropHandler</text><line style="stroke: #A80036; stroke-width: 1.5;" x1="870" x2="982" y1="40" y2="40"/><line style="stroke: #A80036; stroke-width: 1.5;" x1="870" x2="982" y1="48" y2="48"/><!--MD5=[313e41f74976d214dca901872c9b4800]
reverse link MonoBehaviour to UIInventoryItem--><path d="M143.45,64.11 C177.96,78.73 221.25,97.07 265.69,115.9 " fill="none" id="MonoBehaviour&lt;-UIInventoryItem" style="stroke: #A80036; stroke-width: 1.0;"/><polygon fill="none" points="140.4,70.42,124.71,56.18,145.86,57.53,140.4,70.42" style="stroke: #A80036; stroke-width: 1.0;"/><!--MD5=[d368f1481ed8329a34a71955b13aa5b6]
reverse link IPointerClickHandler to UIInventoryItem--><path d="M296.68,68.07 C315.98,81.98 339.24,98.73 363.06,115.9 " fill="none" id="IPointerClickHandler&lt;-UIInventoryItem" style="stroke: #A80036; stroke-width: 1.0;"/><polygon fill="none" points="292.3,73.55,280.17,56.18,300.49,62.19,292.3,73.55" style="stroke: #A80036; stroke-width: 1.0;"/><!--MD5=[8a079a653fc3fdfec1afb7baef67cf2b]
reverse link IDragHandler to UIInventoryItem--><path d="M437.89,74.65 C443.54,87.12 450,101.36 456.6,115.9 " fill="none" id="IDragHandler&lt;-UIInventoryItem" style="stroke: #A80036; stroke-width: 1.0;"/><polygon fill="none" points="431.4,77.28,429.51,56.18,444.15,71.5,431.4,77.28" style="stroke: #A80036; stroke-width: 1.0;"/><!--MD5=[a7e33a0ce04f1cec32a542198f991de7]
reverse link IBeginDragHandler to UIInventoryItem--><path d="M566.88,74.65 C561.16,87.12 554.62,101.36 547.95,115.9 " fill="none" id="IBeginDragHandler&lt;-UIInventoryItem" style="stroke: #A80036; stroke-width: 1.0;"/><polygon fill="none" points="560.66,71.43,575.36,56.18,573.38,77.27,560.66,71.43" style="stroke: #A80036; stroke-width: 1.0;"/><!--MD5=[58292fb5952d4be0de0666e239943ac6]
reverse link IEndDragHandler to UIInventoryItem--><path d="M715.2,67.65 C695.1,81.64 670.78,98.56 645.87,115.9 " fill="none" id="IEndDragHandler&lt;-UIInventoryItem" style="stroke: #A80036; stroke-width: 1.0;"/><polygon fill="none" points="711.28,61.85,731.69,56.18,719.27,73.35,711.28,61.85" style="stroke: #A80036; stroke-width: 1.0;"/><!--MD5=[e7a0991d131541f02a936605cfbb15d6]
reverse link IDropHandler to UIInventoryItem--><path d="M853.91,64.11 C820.04,78.73 777.56,97.07 733.94,115.9 " fill="none" id="IDropHandler&lt;-UIInventoryItem" style="stroke: #A80036; stroke-width: 1.0;"/><polygon fill="none" points="851.16,57.68,872.3,56.18,856.71,70.53,851.16,57.68" style="stroke: #A80036; stroke-width: 1.0;"/><!--MD5=[bdaf693bae2fac38bc55d1a01c4e58f9]
@startuml
class UIInventoryItem {
    +  <<event>> OnItemClicked,OnItemDroppedOn,OnItemBeginDrag,OnItemEndDrag,OnRightMouseBtnClick : Action<UIInventoryItem> 
    + selected : bool = false
    + Awake() : void
    + ResetData() : void
    + Deselect() : void
    + SetData(sprite:Sprite, quantity:int) : void
    + Select() : void
    + OnPointerClick(eventData:PointerEventData) : void
    + OnEndDrag(eventData:PointerEventData) : void
    + OnBeginDrag(eventData:PointerEventData) : void
    + OnDrop(eventData:PointerEventData) : void
    + OnDrag(eventData:PointerEventData) : void
}
MonoBehaviour <|- - UIInventoryItem
IPointerClickHandler <|- - UIInventoryItem
IDragHandler <|- - UIInventoryItem
IBeginDragHandler <|- - UIInventoryItem
IEndDragHandler <|- - UIInventoryItem
IDropHandler <|- - UIInventoryItem
@enduml

PlantUML version 1.2020.02(Sun Mar 01 10:22:07 GMT 2020)
(GPL source distribution)
Java Runtime: OpenJDK Runtime Environment
JVM: OpenJDK 64-Bit Server VM
Java Version: 11.0.9+11-Ubuntu-0ubuntu1
Operating System: Linux
Default Encoding: ANSI_X3.4-1968
Language: en
Country: US
--></g></svg>