<?xml version="1.0" encoding="UTF-8" standalone="no"?><svg xmlns="http://www.w3.org/2000/svg" xmlns:xlink="http://www.w3.org/1999/xlink" contentScriptType="application/ecmascript" contentStyleType="text/css" height="213px" preserveAspectRatio="none" style="width:477px;height:213px;" version="1.1" viewBox="0 0 477 213" width="477px" zoomAndPan="magnify"><defs><filter height="300%" id="f1qga62vldgkt5" width="300%" x="-1" y="-1"><feGaussianBlur result="blurOut" stdDeviation="2.0"/><feColorMatrix in="blurOut" result="blurOut2" type="matrix" values="0 0 0 0 0 0 0 0 0 0 0 0 0 0 0 0 0 0 .4 0"/><feOffset dx="4.0" dy="4.0" in="blurOut2" result="blurOut3"/><feBlend in="SourceGraphic" in2="blurOut3" mode="normal"/></filter></defs><g><!--MD5=[178599caa86e2f1d14f71f933fe69d78]
class UIInventoryDescription--><rect fill="#FEFECE" filter="url(#f1qga62vldgkt5)" height="86.4141" id="UIInventoryDescription" style="stroke: #A80036; stroke-width: 1.5;" width="460" x="6" y="116"/><ellipse cx="161.75" cy="132" fill="#ADD1B2" rx="11" ry="11" style="stroke: #A80036; stroke-width: 1.0;"/><path d="M164.7188,137.6406 Q164.1406,137.9375 163.5,138.0781 Q162.8594,138.2344 162.1563,138.2344 Q159.6563,138.2344 158.3281,136.5938 Q157.0156,134.9375 157.0156,131.8125 Q157.0156,128.6875 158.3281,127.0313 Q159.6563,125.375 162.1563,125.375 Q162.8594,125.375 163.5,125.5313 Q164.1563,125.6875 164.7188,125.9844 L164.7188,128.7031 Q164.0938,128.125 163.5,127.8594 Q162.9063,127.5781 162.2813,127.5781 Q160.9375,127.5781 160.25,128.6563 Q159.5625,129.7188 159.5625,131.8125 Q159.5625,133.9063 160.25,134.9844 Q160.9375,136.0469 162.2813,136.0469 Q162.9063,136.0469 163.5,135.7813 Q164.0938,135.5 164.7188,134.9219 L164.7188,137.6406 Z "/><text fill="#000000" font-family="sans-serif" font-size="12" lengthAdjust="spacingAndGlyphs" textLength="140" x="182.25" y="136.1543">UIInventoryDescription</text><line style="stroke: #A80036; stroke-width: 1.5;" x1="7" x2="465" y1="148" y2="148"/><line style="stroke: #A80036; stroke-width: 1.5;" x1="7" x2="465" y1="156" y2="156"/><ellipse cx="17" cy="167" fill="#84BE84" rx="3" ry="3" style="stroke: #038048; stroke-width: 1.0;"/><text fill="#000000" font-family="sans-serif" font-size="11" lengthAdjust="spacingAndGlyphs" textLength="79" x="26" y="170.2104">Awake() : void</text><ellipse cx="17" cy="179.8047" fill="#84BE84" rx="3" ry="3" style="stroke: #038048; stroke-width: 1.0;"/><text fill="#000000" font-family="sans-serif" font-size="11" lengthAdjust="spacingAndGlyphs" textLength="139" x="26" y="183.0151">ResetDescription() : void</text><ellipse cx="17" cy="192.6094" fill="#84BE84" rx="3" ry="3" style="stroke: #038048; stroke-width: 1.0;"/><text fill="#000000" font-family="sans-serif" font-size="11" lengthAdjust="spacingAndGlyphs" textLength="434" x="26" y="195.8198">SetDescription(sprite:Sprite, itemName:string, itemDescription:string) : void</text><!--MD5=[83b3cf3d23d77c6f1e1b5291a241bc2a]
class MonoBehaviour--><rect fill="#FEFECE" filter="url(#f1qga62vldgkt5)" height="48" id="MonoBehaviour" style="stroke: #A80036; stroke-width: 1.5;" width="128" x="172" y="8"/><ellipse cx="187" cy="24" fill="#ADD1B2" rx="11" ry="11" style="stroke: #A80036; stroke-width: 1.0;"/><path d="M189.9688,29.6406 Q189.3906,29.9375 188.75,30.0781 Q188.1094,30.2344 187.4063,30.2344 Q184.9063,30.2344 183.5781,28.5938 Q182.2656,26.9375 182.2656,23.8125 Q182.2656,20.6875 183.5781,19.0313 Q184.9063,17.375 187.4063,17.375 Q188.1094,17.375 188.75,17.5313 Q189.4063,17.6875 189.9688,17.9844 L189.9688,20.7031 Q189.3438,20.125 188.75,19.8594 Q188.1563,19.5781 187.5313,19.5781 Q186.1875,19.5781 185.5,20.6563 Q184.8125,21.7188 184.8125,23.8125 Q184.8125,25.9063 185.5,26.9844 Q186.1875,28.0469 187.5313,28.0469 Q188.1563,28.0469 188.75,27.7813 Q189.3438,27.5 189.9688,26.9219 L189.9688,29.6406 Z "/><text fill="#000000" font-family="sans-serif" font-size="12" lengthAdjust="spacingAndGlyphs" textLength="96" x="201" y="28.1543">MonoBehaviour</text><line style="stroke: #A80036; stroke-width: 1.5;" x1="173" x2="299" y1="40" y2="40"/><line style="stroke: #A80036; stroke-width: 1.5;" x1="173" x2="299" y1="48" y2="48"/><!--MD5=[70a66108b9bce418f3dc6ba4cc64d993]
reverse link MonoBehaviour to UIInventoryDescription--><path d="M236,76.27 C236,89.12 236,103.17 236,115.94 " fill="none" id="MonoBehaviour&lt;-UIInventoryDescription" style="stroke: #A80036; stroke-width: 1.0;"/><polygon fill="none" points="229,76.22,236,56.22,243,76.22,229,76.22" style="stroke: #A80036; stroke-width: 1.0;"/><!--MD5=[912854521d21ec93ae08b848b7c2a0f2]
@startuml
class UIInventoryDescription {
    + Awake() : void
    + ResetDescription() : void
    + SetDescription(sprite:Sprite, itemName:string, itemDescription:string) : void
}
MonoBehaviour <|- - UIInventoryDescription
@enduml

PlantUML version 1.2020.02(Sun Mar 01 10:22:07 GMT 2020)
(GPL source distribution)
Java Runtime: OpenJDK Runtime Environment
JVM: OpenJDK 64-Bit Server VM
Java Version: 11.0.9+11-Ubuntu-0ubuntu1
Operating System: Linux
Default Encoding: ANSI_X3.4-1968
Language: en
Country: US
--></g></svg>