<?xml version="1.0" encoding="UTF-8" standalone="no"?><svg xmlns="http://www.w3.org/2000/svg" xmlns:xlink="http://www.w3.org/1999/xlink" contentScriptType="application/ecmascript" contentStyleType="text/css" height="200px" preserveAspectRatio="none" style="width:210px;height:200px;" version="1.1" viewBox="0 0 210 200" width="210px" zoomAndPan="magnify"><defs><filter height="300%" id="f8nng8maorbt8" width="300%" x="-1" y="-1"><feGaussianBlur result="blurOut" stdDeviation="2.0"/><feColorMatrix in="blurOut" result="blurOut2" type="matrix" values="0 0 0 0 0 0 0 0 0 0 0 0 0 0 0 0 0 0 .4 0"/><feOffset dx="4.0" dy="4.0" in="blurOut2" result="blurOut3"/><feBlend in="SourceGraphic" in2="blurOut3" mode="normal"/></filter></defs><g><!--MD5=[75f7f65310a01f92e025e9c96cc5eb2a]
class PlayerInteractionManager--><rect fill="#FEFECE" filter="url(#f8nng8maorbt8)" height="73.6094" id="PlayerInteractionManager" style="stroke: #A80036; stroke-width: 1.5;" width="193" x="6" y="116"/><ellipse cx="21" cy="132" fill="#ADD1B2" rx="11" ry="11" style="stroke: #A80036; stroke-width: 1.0;"/><path d="M23.9688,137.6406 Q23.3906,137.9375 22.75,138.0781 Q22.1094,138.2344 21.4063,138.2344 Q18.9063,138.2344 17.5781,136.5938 Q16.2656,134.9375 16.2656,131.8125 Q16.2656,128.6875 17.5781,127.0313 Q18.9063,125.375 21.4063,125.375 Q22.1094,125.375 22.75,125.5313 Q23.4063,125.6875 23.9688,125.9844 L23.9688,128.7031 Q23.3438,128.125 22.75,127.8594 Q22.1563,127.5781 21.5313,127.5781 Q20.1875,127.5781 19.5,128.6563 Q18.8125,129.7188 18.8125,131.8125 Q18.8125,133.9063 19.5,134.9844 Q20.1875,136.0469 21.5313,136.0469 Q22.1563,136.0469 22.75,135.7813 Q23.3438,135.5 23.9688,134.9219 L23.9688,137.6406 Z "/><text fill="#000000" font-family="sans-serif" font-size="12" lengthAdjust="spacingAndGlyphs" textLength="161" x="35" y="136.1543">PlayerInteractionManager</text><line style="stroke: #A80036; stroke-width: 1.5;" x1="7" x2="198" y1="148" y2="148"/><line style="stroke: #A80036; stroke-width: 1.5;" x1="7" x2="198" y1="156" y2="156"/><ellipse cx="17" cy="167" fill="#84BE84" rx="3" ry="3" style="stroke: #038048; stroke-width: 1.0;"/><text fill="#000000" font-family="sans-serif" font-size="11" lengthAdjust="spacingAndGlyphs" textLength="79" x="26" y="170.2104">Awake() : void</text><ellipse cx="17" cy="179.8047" fill="#84BE84" rx="3" ry="3" style="stroke: #038048; stroke-width: 1.0;"/><text fill="#000000" font-family="sans-serif" font-size="11" lengthAdjust="spacingAndGlyphs" textLength="165" x="26" y="183.0151">Interact(context:object) : void</text><!--MD5=[83b3cf3d23d77c6f1e1b5291a241bc2a]
class MonoBehaviour--><rect fill="#FEFECE" filter="url(#f8nng8maorbt8)" height="48" id="MonoBehaviour" style="stroke: #A80036; stroke-width: 1.5;" width="128" x="38.5" y="8"/><ellipse cx="53.5" cy="24" fill="#ADD1B2" rx="11" ry="11" style="stroke: #A80036; stroke-width: 1.0;"/><path d="M56.4688,29.6406 Q55.8906,29.9375 55.25,30.0781 Q54.6094,30.2344 53.9063,30.2344 Q51.4063,30.2344 50.0781,28.5938 Q48.7656,26.9375 48.7656,23.8125 Q48.7656,20.6875 50.0781,19.0313 Q51.4063,17.375 53.9063,17.375 Q54.6094,17.375 55.25,17.5313 Q55.9063,17.6875 56.4688,17.9844 L56.4688,20.7031 Q55.8438,20.125 55.25,19.8594 Q54.6563,19.5781 54.0313,19.5781 Q52.6875,19.5781 52,20.6563 Q51.3125,21.7188 51.3125,23.8125 Q51.3125,25.9063 52,26.9844 Q52.6875,28.0469 54.0313,28.0469 Q54.6563,28.0469 55.25,27.7813 Q55.8438,27.5 56.4688,26.9219 L56.4688,29.6406 Z "/><text fill="#000000" font-family="sans-serif" font-size="12" lengthAdjust="spacingAndGlyphs" textLength="96" x="67.5" y="28.1543">MonoBehaviour</text><line style="stroke: #A80036; stroke-width: 1.5;" x1="39.5" x2="165.5" y1="40" y2="40"/><line style="stroke: #A80036; stroke-width: 1.5;" x1="39.5" x2="165.5" y1="48" y2="48"/><!--MD5=[98dbda0d52b1dce27debdee577caa7a5]
reverse link MonoBehaviour to PlayerInteractionManager--><path d="M102.5,76.43 C102.5,89.33 102.5,103.32 102.5,115.71 " fill="none" id="MonoBehaviour&lt;-PlayerInteractionManager" style="stroke: #A80036; stroke-width: 1.0;"/><polygon fill="none" points="95.5,76.23,102.5,56.23,109.5,76.23,95.5,76.23" style="stroke: #A80036; stroke-width: 1.0;"/><!--MD5=[348cf056043966d56b89cb261c5732bb]
@startuml
class PlayerInteractionManager {
    + Awake() : void
    + Interact(context:object) : void
}
MonoBehaviour <|- - PlayerInteractionManager
@enduml

PlantUML version 1.2020.02(Sun Mar 01 10:22:07 GMT 2020)
(GPL source distribution)
Java Runtime: OpenJDK Runtime Environment
JVM: OpenJDK 64-Bit Server VM
Java Version: 11.0.9+11-Ubuntu-0ubuntu1
Operating System: Linux
Default Encoding: ANSI_X3.4-1968
Language: en
Country: US
--></g></svg>