<?xml version="1.0" encoding="UTF-8" standalone="no"?><svg xmlns="http://www.w3.org/2000/svg" xmlns:xlink="http://www.w3.org/1999/xlink" contentScriptType="application/ecmascript" contentStyleType="text/css" height="373px" preserveAspectRatio="none" style="width:353px;height:373px;" version="1.1" viewBox="0 0 353 373" width="353px" zoomAndPan="magnify"><defs><filter height="300%" id="f1g2bcwnvwo9gg" width="300%" x="-1" y="-1"><feGaussianBlur result="blurOut" stdDeviation="2.0"/><feColorMatrix in="blurOut" result="blurOut2" type="matrix" values="0 0 0 0 0 0 0 0 0 0 0 0 0 0 0 0 0 0 .4 0"/><feOffset dx="4.0" dy="4.0" in="blurOut2" result="blurOut3"/><feBlend in="SourceGraphic" in2="blurOut3" mode="normal"/></filter></defs><g><!--MD5=[430c56efdc5c84421c5ec4872e25ea17]
class PlayerControlledMovement--><rect fill="#FEFECE" filter="url(#f1g2bcwnvwo9gg)" height="137.6328" id="PlayerControlledMovement" style="stroke: #A80036; stroke-width: 1.5;" width="313" x="29" y="116"/><ellipse cx="98.25" cy="132" fill="#ADD1B2" rx="11" ry="11" style="stroke: #A80036; stroke-width: 1.0;"/><path d="M101.2188,137.6406 Q100.6406,137.9375 100,138.0781 Q99.3594,138.2344 98.6563,138.2344 Q96.1563,138.2344 94.8281,136.5938 Q93.5156,134.9375 93.5156,131.8125 Q93.5156,128.6875 94.8281,127.0313 Q96.1563,125.375 98.6563,125.375 Q99.3594,125.375 100,125.5313 Q100.6563,125.6875 101.2188,125.9844 L101.2188,128.7031 Q100.5938,128.125 100,127.8594 Q99.4063,127.5781 98.7813,127.5781 Q97.4375,127.5781 96.75,128.6563 Q96.0625,129.7188 96.0625,131.8125 Q96.0625,133.9063 96.75,134.9844 Q97.4375,136.0469 98.7813,136.0469 Q99.4063,136.0469 100,135.7813 Q100.5938,135.5 101.2188,134.9219 L101.2188,137.6406 Z "/><text fill="#000000" font-family="sans-serif" font-size="12" lengthAdjust="spacingAndGlyphs" textLength="166" x="118.75" y="136.1543">PlayerControlledMovement</text><line style="stroke: #A80036; stroke-width: 1.5;" x1="30" x2="341" y1="148" y2="148"/><ellipse cx="40" cy="159" fill="none" rx="3" ry="3" style="stroke: #038048; stroke-width: 1.0;"/><text fill="#000000" font-family="sans-serif" font-size="11" lengthAdjust="spacingAndGlyphs" textLength="146" x="49" y="162.2104">moveSpeed : float = 100f</text><ellipse cx="40" cy="171.8047" fill="none" rx="3" ry="3" style="stroke: #038048; stroke-width: 1.0;"/><text fill="#000000" font-family="sans-serif" font-size="11" lengthAdjust="spacingAndGlyphs" textLength="223" x="49" y="175.0151">«event» OnInteraction : Action&lt;object&gt;</text><line style="stroke: #A80036; stroke-width: 1.5;" x1="30" x2="341" y1="181.6094" y2="181.6094"/><ellipse cx="40" cy="192.6094" fill="#84BE84" rx="3" ry="3" style="stroke: #038048; stroke-width: 1.0;"/><text fill="#000000" font-family="sans-serif" font-size="11" lengthAdjust="spacingAndGlyphs" textLength="71" x="49" y="195.8198">Start() : void</text><ellipse cx="40" cy="205.4141" fill="#84BE84" rx="3" ry="3" style="stroke: #038048; stroke-width: 1.0;"/><text fill="#000000" font-family="sans-serif" font-size="11" lengthAdjust="spacingAndGlyphs" textLength="79" x="49" y="208.6245">Awake() : void</text><ellipse cx="40" cy="218.2188" fill="#84BE84" rx="3" ry="3" style="stroke: #038048; stroke-width: 1.0;"/><text fill="#000000" font-family="sans-serif" font-size="11" lengthAdjust="spacingAndGlyphs" textLength="97" x="49" y="221.4292">OnEnable() : void</text><ellipse cx="40" cy="231.0234" fill="#84BE84" rx="3" ry="3" style="stroke: #038048; stroke-width: 1.0;"/><text fill="#000000" font-family="sans-serif" font-size="11" lengthAdjust="spacingAndGlyphs" textLength="101" x="49" y="234.2339">OnDisable() : void</text><ellipse cx="40" cy="243.8281" fill="#84BE84" rx="3" ry="3" style="stroke: #038048; stroke-width: 1.0;"/><text fill="#000000" font-family="sans-serif" font-size="11" lengthAdjust="spacingAndGlyphs" textLength="287" x="49" y="247.0386">Interact(context:InputAction.CallbackContext) : void</text><!--MD5=[29b626c5e6d17e99120f826488031b0a]
class IInteractionInvoker`1--><rect fill="#FEFECE" filter="url(#f1g2bcwnvwo9gg)" height="48" id="IInteractionInvoker`1" style="stroke: #A80036; stroke-width: 1.5;" width="173" x="6" y="8"/><ellipse cx="21" cy="24" fill="#ADD1B2" rx="11" ry="11" style="stroke: #A80036; stroke-width: 1.0;"/><path d="M23.9688,29.6406 Q23.3906,29.9375 22.75,30.0781 Q22.1094,30.2344 21.4063,30.2344 Q18.9063,30.2344 17.5781,28.5938 Q16.2656,26.9375 16.2656,23.8125 Q16.2656,20.6875 17.5781,19.0313 Q18.9063,17.375 21.4063,17.375 Q22.1094,17.375 22.75,17.5313 Q23.4063,17.6875 23.9688,17.9844 L23.9688,20.7031 Q23.3438,20.125 22.75,19.8594 Q22.1563,19.5781 21.5313,19.5781 Q20.1875,19.5781 19.5,20.6563 Q18.8125,21.7188 18.8125,23.8125 Q18.8125,25.9063 19.5,26.9844 Q20.1875,28.0469 21.5313,28.0469 Q22.1563,28.0469 22.75,27.7813 Q23.3438,27.5 23.9688,26.9219 L23.9688,29.6406 Z "/><text fill="#000000" font-family="sans-serif" font-size="12" lengthAdjust="spacingAndGlyphs" textLength="130" x="35" y="28.1543">IInteractionInvoker`1</text><rect fill="#FFFFFF" height="15.9688" style="stroke: #000000; stroke-width: 1.0; stroke-dasharray: 2.0,2.0;" width="9" x="173" y="5"/><text fill="#000000" font-family="sans-serif" font-size="12" font-style="italic" lengthAdjust="spacingAndGlyphs" textLength="7" x="174" y="17.1387">T</text><line style="stroke: #A80036; stroke-width: 1.5;" x1="7" x2="178" y1="40" y2="40"/><line style="stroke: #A80036; stroke-width: 1.5;" x1="7" x2="178" y1="48" y2="48"/><!--MD5=[83b3cf3d23d77c6f1e1b5291a241bc2a]
class MonoBehaviour--><rect fill="#FEFECE" filter="url(#f1g2bcwnvwo9gg)" height="48" id="MonoBehaviour" style="stroke: #A80036; stroke-width: 1.5;" width="128" x="214.5" y="8"/><ellipse cx="229.5" cy="24" fill="#ADD1B2" rx="11" ry="11" style="stroke: #A80036; stroke-width: 1.0;"/><path d="M232.4688,29.6406 Q231.8906,29.9375 231.25,30.0781 Q230.6094,30.2344 229.9063,30.2344 Q227.4063,30.2344 226.0781,28.5938 Q224.7656,26.9375 224.7656,23.8125 Q224.7656,20.6875 226.0781,19.0313 Q227.4063,17.375 229.9063,17.375 Q230.6094,17.375 231.25,17.5313 Q231.9063,17.6875 232.4688,17.9844 L232.4688,20.7031 Q231.8438,20.125 231.25,19.8594 Q230.6563,19.5781 230.0313,19.5781 Q228.6875,19.5781 228,20.6563 Q227.3125,21.7188 227.3125,23.8125 Q227.3125,25.9063 228,26.9844 Q228.6875,28.0469 230.0313,28.0469 Q230.6563,28.0469 231.25,27.7813 Q231.8438,27.5 232.4688,26.9219 L232.4688,29.6406 Z "/><text fill="#000000" font-family="sans-serif" font-size="12" lengthAdjust="spacingAndGlyphs" textLength="96" x="243.5" y="28.1543">MonoBehaviour</text><line style="stroke: #A80036; stroke-width: 1.5;" x1="215.5" x2="341.5" y1="40" y2="40"/><line style="stroke: #A80036; stroke-width: 1.5;" x1="215.5" x2="341.5" y1="48" y2="48"/><!--MD5=[9541084ddaa1fec56a549847ca84025a]
class Rigidbody2D--><rect fill="#FEFECE" filter="url(#f1g2bcwnvwo9gg)" height="48" id="Rigidbody2D" style="stroke: #A80036; stroke-width: 1.5;" width="109" x="64" y="314"/><ellipse cx="79" cy="330" fill="#ADD1B2" rx="11" ry="11" style="stroke: #A80036; stroke-width: 1.0;"/><path d="M81.9688,335.6406 Q81.3906,335.9375 80.75,336.0781 Q80.1094,336.2344 79.4063,336.2344 Q76.9063,336.2344 75.5781,334.5938 Q74.2656,332.9375 74.2656,329.8125 Q74.2656,326.6875 75.5781,325.0313 Q76.9063,323.375 79.4063,323.375 Q80.1094,323.375 80.75,323.5313 Q81.4063,323.6875 81.9688,323.9844 L81.9688,326.7031 Q81.3438,326.125 80.75,325.8594 Q80.1563,325.5781 79.5313,325.5781 Q78.1875,325.5781 77.5,326.6563 Q76.8125,327.7188 76.8125,329.8125 Q76.8125,331.9063 77.5,332.9844 Q78.1875,334.0469 79.5313,334.0469 Q80.1563,334.0469 80.75,333.7813 Q81.3438,333.5 81.9688,332.9219 L81.9688,335.6406 Z "/><text fill="#000000" font-family="sans-serif" font-size="12" lengthAdjust="spacingAndGlyphs" textLength="77" x="93" y="334.1543">Rigidbody2D</text><line style="stroke: #A80036; stroke-width: 1.5;" x1="65" x2="172" y1="346" y2="346"/><line style="stroke: #A80036; stroke-width: 1.5;" x1="65" x2="172" y1="354" y2="354"/><!--MD5=[8b805049d0499e23d33da8a1efc9f54d]
class Animator--><rect fill="#FEFECE" filter="url(#f1g2bcwnvwo9gg)" height="48" id="Animator" style="stroke: #A80036; stroke-width: 1.5;" width="88" x="208.5" y="314"/><ellipse cx="223.5" cy="330" fill="#ADD1B2" rx="11" ry="11" style="stroke: #A80036; stroke-width: 1.0;"/><path d="M226.4688,335.6406 Q225.8906,335.9375 225.25,336.0781 Q224.6094,336.2344 223.9063,336.2344 Q221.4063,336.2344 220.0781,334.5938 Q218.7656,332.9375 218.7656,329.8125 Q218.7656,326.6875 220.0781,325.0313 Q221.4063,323.375 223.9063,323.375 Q224.6094,323.375 225.25,323.5313 Q225.9063,323.6875 226.4688,323.9844 L226.4688,326.7031 Q225.8438,326.125 225.25,325.8594 Q224.6563,325.5781 224.0313,325.5781 Q222.6875,325.5781 222,326.6563 Q221.3125,327.7188 221.3125,329.8125 Q221.3125,331.9063 222,332.9844 Q222.6875,334.0469 224.0313,334.0469 Q224.6563,334.0469 225.25,333.7813 Q225.8438,333.5 226.4688,332.9219 L226.4688,335.6406 Z "/><text fill="#000000" font-family="sans-serif" font-size="12" lengthAdjust="spacingAndGlyphs" textLength="56" x="237.5" y="334.1543">Animator</text><line style="stroke: #A80036; stroke-width: 1.5;" x1="209.5" x2="295.5" y1="346" y2="346"/><line style="stroke: #A80036; stroke-width: 1.5;" x1="209.5" x2="295.5" y1="354" y2="354"/><!--MD5=[b92237ff4cb80b4bae334e5a5551a033]
reverse link MonoBehaviour to PlayerControlledMovement--><path d="M253.64,73.36 C245.57,86.47 236.37,101.4 227.41,115.96 " fill="none" id="MonoBehaviour&lt;-PlayerControlledMovement" style="stroke: #A80036; stroke-width: 1.0;"/><polygon fill="none" points="247.72,69.62,264.17,56.26,259.64,76.96,247.72,69.62" style="stroke: #A80036; stroke-width: 1.0;"/><!--MD5=[7b5759072256d0280953e5fed506b82b]
reverse link IInteractionInvoker`1 to PlayerControlledMovement--><path d="M117.36,73.36 C125.43,86.47 134.63,101.4 143.59,115.96 " fill="none" id="IInteractionInvoker`1&lt;-PlayerControlledMovement" style="stroke: #A80036; stroke-width: 1.0;"/><polygon fill="none" points="111.36,76.96,106.83,56.26,123.28,69.62,111.36,76.96" style="stroke: #A80036; stroke-width: 1.0;"/><text fill="#000000" font-family="sans-serif" font-size="13" lengthAdjust="spacingAndGlyphs" textLength="61" x="41.8886" y="76.0846">&lt;object&gt;</text><!--MD5=[de713caff2c66176f235cd069c2931a2]
link PlayerControlledMovement to Rigidbody2D--><path d="M155.14,254.43 C146.54,273.81 137.66,293.81 130.8,309.27 " fill="none" id="PlayerControlledMovement-&gt;Rigidbody2D" style="stroke: #A80036; stroke-width: 1.0;"/><polygon fill="#A80036" points="128.74,313.92,136.0467,307.316,130.768,309.3498,128.7343,304.0711,128.74,313.92" style="stroke: #A80036; stroke-width: 1.0;"/><text fill="#000000" font-family="sans-serif" font-size="13" lengthAdjust="spacingAndGlyphs" textLength="13" x="116.6984" y="302.9115">rb</text><!--MD5=[daa7cee1a3025203ad35070fb0757a9b]
link PlayerControlledMovement to Animator--><path d="M215.86,254.43 C224.46,273.81 233.34,293.81 240.2,309.27 " fill="none" id="PlayerControlledMovement-&gt;Animator" style="stroke: #A80036; stroke-width: 1.0;"/><polygon fill="#A80036" points="242.26,313.92,242.2657,304.0711,240.232,309.3498,234.9533,307.316,242.26,313.92" style="stroke: #A80036; stroke-width: 1.0;"/><text fill="#000000" font-family="sans-serif" font-size="13" lengthAdjust="spacingAndGlyphs" textLength="58" x="174.2048" y="302.9115">animator</text><!--MD5=[4ce1de07dde37c332780a107e5cfa063]
@startuml
class PlayerControlledMovement {
    + moveSpeed : float = 100f
    +  <<event>> OnInteraction : Action<object> 
    + Start() : void
    + Awake() : void
    + OnEnable() : void
    + OnDisable() : void
    + Interact(context:InputAction.CallbackContext) : void
}
class "IInteractionInvoker`1"<T> {
}
MonoBehaviour <|- - PlayerControlledMovement
"IInteractionInvoker`1" "<object>" <|- - PlayerControlledMovement
PlayerControlledMovement - -> "rb" Rigidbody2D
PlayerControlledMovement - -> "animator" Animator
@enduml

PlantUML version 1.2020.02(Sun Mar 01 10:22:07 GMT 2020)
(GPL source distribution)
Java Runtime: OpenJDK Runtime Environment
JVM: OpenJDK 64-Bit Server VM
Java Version: 11.0.9+11-Ubuntu-0ubuntu1
Operating System: Linux
Default Encoding: ANSI_X3.4-1968
Language: en
Country: US
--></g></svg>