<?xml version="1.0" encoding="UTF-8" standalone="no"?><svg xmlns="http://www.w3.org/2000/svg" xmlns:xlink="http://www.w3.org/1999/xlink" contentScriptType="application/ecmascript" contentStyleType="text/css" height="187px" preserveAspectRatio="none" style="width:155px;height:187px;" version="1.1" viewBox="0 0 155 187" width="155px" zoomAndPan="magnify"><defs><filter height="300%" id="fcglsk9csynwd" width="300%" x="-1" y="-1"><feGaussianBlur result="blurOut" stdDeviation="2.0"/><feColorMatrix in="blurOut" result="blurOut2" type="matrix" values="0 0 0 0 0 0 0 0 0 0 0 0 0 0 0 0 0 0 .4 0"/><feOffset dx="4.0" dy="4.0" in="blurOut2" result="blurOut3"/><feBlend in="SourceGraphic" in2="blurOut3" mode="normal"/></filter></defs><g><!--MD5=[d960516881e872cc6865305edfddcfd2]
class AttachToObject--><rect fill="#FEFECE" filter="url(#fcglsk9csynwd)" height="60.8047" id="AttachToObject" style="stroke: #A80036; stroke-width: 1.5;" width="138" x="6" y="116"/><ellipse cx="25.5" cy="132" fill="#ADD1B2" rx="11" ry="11" style="stroke: #A80036; stroke-width: 1.0;"/><path d="M28.4688,137.6406 Q27.8906,137.9375 27.25,138.0781 Q26.6094,138.2344 25.9063,138.2344 Q23.4063,138.2344 22.0781,136.5938 Q20.7656,134.9375 20.7656,131.8125 Q20.7656,128.6875 22.0781,127.0313 Q23.4063,125.375 25.9063,125.375 Q26.6094,125.375 27.25,125.5313 Q27.9063,125.6875 28.4688,125.9844 L28.4688,128.7031 Q27.8438,128.125 27.25,127.8594 Q26.6563,127.5781 26.0313,127.5781 Q24.6875,127.5781 24,128.6563 Q23.3125,129.7188 23.3125,131.8125 Q23.3125,133.9063 24,134.9844 Q24.6875,136.0469 26.0313,136.0469 Q26.6563,136.0469 27.25,135.7813 Q27.8438,135.5 28.4688,134.9219 L28.4688,137.6406 Z "/><text fill="#000000" font-family="sans-serif" font-size="12" lengthAdjust="spacingAndGlyphs" textLength="96" x="40.5" y="136.1543">AttachToObject</text><line style="stroke: #A80036; stroke-width: 1.5;" x1="7" x2="143" y1="148" y2="148"/><line style="stroke: #A80036; stroke-width: 1.5;" x1="7" x2="143" y1="156" y2="156"/><ellipse cx="17" cy="167" fill="#84BE84" rx="3" ry="3" style="stroke: #038048; stroke-width: 1.0;"/><text fill="#000000" font-family="sans-serif" font-size="11" lengthAdjust="spacingAndGlyphs" textLength="112" x="26" y="170.2104">FixedUpdate() : void</text><!--MD5=[83b3cf3d23d77c6f1e1b5291a241bc2a]
class MonoBehaviour--><rect fill="#FEFECE" filter="url(#fcglsk9csynwd)" height="48" id="MonoBehaviour" style="stroke: #A80036; stroke-width: 1.5;" width="128" x="11" y="8"/><ellipse cx="26" cy="24" fill="#ADD1B2" rx="11" ry="11" style="stroke: #A80036; stroke-width: 1.0;"/><path d="M28.9688,29.6406 Q28.3906,29.9375 27.75,30.0781 Q27.1094,30.2344 26.4063,30.2344 Q23.9063,30.2344 22.5781,28.5938 Q21.2656,26.9375 21.2656,23.8125 Q21.2656,20.6875 22.5781,19.0313 Q23.9063,17.375 26.4063,17.375 Q27.1094,17.375 27.75,17.5313 Q28.4063,17.6875 28.9688,17.9844 L28.9688,20.7031 Q28.3438,20.125 27.75,19.8594 Q27.1563,19.5781 26.5313,19.5781 Q25.1875,19.5781 24.5,20.6563 Q23.8125,21.7188 23.8125,23.8125 Q23.8125,25.9063 24.5,26.9844 Q25.1875,28.0469 26.5313,28.0469 Q27.1563,28.0469 27.75,27.7813 Q28.3438,27.5 28.9688,26.9219 L28.9688,29.6406 Z "/><text fill="#000000" font-family="sans-serif" font-size="12" lengthAdjust="spacingAndGlyphs" textLength="96" x="40" y="28.1543">MonoBehaviour</text><line style="stroke: #A80036; stroke-width: 1.5;" x1="12" x2="138" y1="40" y2="40"/><line style="stroke: #A80036; stroke-width: 1.5;" x1="12" x2="138" y1="48" y2="48"/><!--MD5=[eb286267290d420ce6ff90abefc9cc3b]
reverse link MonoBehaviour to AttachToObject--><path d="M75,76.11 C75,89.31 75,103.54 75,115.65 " fill="none" id="MonoBehaviour&lt;-AttachToObject" style="stroke: #A80036; stroke-width: 1.0;"/><polygon fill="none" points="68,76.04,75,56.04,82,76.04,68,76.04" style="stroke: #A80036; stroke-width: 1.0;"/><!--MD5=[81f8daaf8f0b4cc944b7e316c805e3d6]
@startuml
class AttachToObject {
    + FixedUpdate() : void
}
MonoBehaviour <|- - AttachToObject
@enduml

PlantUML version 1.2020.02(Sun Mar 01 10:22:07 GMT 2020)
(GPL source distribution)
Java Runtime: OpenJDK Runtime Environment
JVM: OpenJDK 64-Bit Server VM
Java Version: 11.0.9+11-Ubuntu-0ubuntu1
Operating System: Linux
Default Encoding: ANSI_X3.4-1968
Language: en
Country: US
--></g></svg>