<?xml version="1.0" encoding="UTF-8" standalone="no"?><svg xmlns="http://www.w3.org/2000/svg" xmlns:xlink="http://www.w3.org/1999/xlink" contentScriptType="application/ecmascript" contentStyleType="text/css" height="200px" preserveAspectRatio="none" style="width:166px;height:200px;" version="1.1" viewBox="0 0 166 200" width="166px" zoomAndPan="magnify"><defs><filter height="300%" id="f1v7kosdr4wccs" width="300%" x="-1" y="-1"><feGaussianBlur result="blurOut" stdDeviation="2.0"/><feColorMatrix in="blurOut" result="blurOut2" type="matrix" values="0 0 0 0 0 0 0 0 0 0 0 0 0 0 0 0 0 0 .4 0"/><feOffset dx="4.0" dy="4.0" in="blurOut2" result="blurOut3"/><feBlend in="SourceGraphic" in2="blurOut3" mode="normal"/></filter></defs><g><!--MD5=[48dd001e511d0ff5bbf79aaa512a4644]
class InteractiveObject--><rect fill="#FEFECE" filter="url(#f1v7kosdr4wccs)" height="73.6094" id="InteractiveObject" style="stroke: #A80036; stroke-width: 1.5;" width="149" x="6" y="116"/><ellipse cx="25.95" cy="132" fill="#ADD1B2" rx="11" ry="11" style="stroke: #A80036; stroke-width: 1.0;"/><path d="M28.9188,137.6406 Q28.3406,137.9375 27.7,138.0781 Q27.0594,138.2344 26.3563,138.2344 Q23.8563,138.2344 22.5281,136.5938 Q21.2156,134.9375 21.2156,131.8125 Q21.2156,128.6875 22.5281,127.0313 Q23.8563,125.375 26.3563,125.375 Q27.0594,125.375 27.7,125.5313 Q28.3563,125.6875 28.9188,125.9844 L28.9188,128.7031 Q28.2938,128.125 27.7,127.8594 Q27.1063,127.5781 26.4813,127.5781 Q25.1375,127.5781 24.45,128.6563 Q23.7625,129.7188 23.7625,131.8125 Q23.7625,133.9063 24.45,134.9844 Q25.1375,136.0469 26.4813,136.0469 Q27.1063,136.0469 27.7,135.7813 Q28.2938,135.5 28.9188,134.9219 L28.9188,137.6406 Z "/><text fill="#000000" font-family="sans-serif" font-size="12" lengthAdjust="spacingAndGlyphs" textLength="106" x="41.05" y="136.1543">InteractiveObject</text><line style="stroke: #A80036; stroke-width: 1.5;" x1="7" x2="154" y1="148" y2="148"/><line style="stroke: #A80036; stroke-width: 1.5;" x1="7" x2="154" y1="156" y2="156"/><ellipse cx="17" cy="167" fill="#84BE84" rx="3" ry="3" style="stroke: #038048; stroke-width: 1.0;"/><text fill="#000000" font-family="sans-serif" font-size="11" lengthAdjust="spacingAndGlyphs" textLength="123" x="26" y="170.2104">ShowHighlight() : void</text><ellipse cx="17" cy="179.8047" fill="#84BE84" rx="3" ry="3" style="stroke: #038048; stroke-width: 1.0;"/><text fill="#000000" font-family="sans-serif" font-size="11" lengthAdjust="spacingAndGlyphs" textLength="117" x="26" y="183.0151">HideHighlight() : void</text><!--MD5=[83b3cf3d23d77c6f1e1b5291a241bc2a]
class MonoBehaviour--><rect fill="#FEFECE" filter="url(#f1v7kosdr4wccs)" height="48" id="MonoBehaviour" style="stroke: #A80036; stroke-width: 1.5;" width="128" x="16.5" y="8"/><ellipse cx="31.5" cy="24" fill="#ADD1B2" rx="11" ry="11" style="stroke: #A80036; stroke-width: 1.0;"/><path d="M34.4688,29.6406 Q33.8906,29.9375 33.25,30.0781 Q32.6094,30.2344 31.9063,30.2344 Q29.4063,30.2344 28.0781,28.5938 Q26.7656,26.9375 26.7656,23.8125 Q26.7656,20.6875 28.0781,19.0313 Q29.4063,17.375 31.9063,17.375 Q32.6094,17.375 33.25,17.5313 Q33.9063,17.6875 34.4688,17.9844 L34.4688,20.7031 Q33.8438,20.125 33.25,19.8594 Q32.6563,19.5781 32.0313,19.5781 Q30.6875,19.5781 30,20.6563 Q29.3125,21.7188 29.3125,23.8125 Q29.3125,25.9063 30,26.9844 Q30.6875,28.0469 32.0313,28.0469 Q32.6563,28.0469 33.25,27.7813 Q33.8438,27.5 34.4688,26.9219 L34.4688,29.6406 Z "/><text fill="#000000" font-family="sans-serif" font-size="12" lengthAdjust="spacingAndGlyphs" textLength="96" x="45.5" y="28.1543">MonoBehaviour</text><line style="stroke: #A80036; stroke-width: 1.5;" x1="17.5" x2="143.5" y1="40" y2="40"/><line style="stroke: #A80036; stroke-width: 1.5;" x1="17.5" x2="143.5" y1="48" y2="48"/><!--MD5=[ef4881ab1e9807c6350a01185e7afa60]
reverse link MonoBehaviour to InteractiveObject--><path d="M80.5,76.43 C80.5,89.33 80.5,103.32 80.5,115.71 " fill="none" id="MonoBehaviour&lt;-InteractiveObject" style="stroke: #A80036; stroke-width: 1.0;"/><polygon fill="none" points="73.5,76.23,80.5,56.23,87.5,76.23,73.5,76.23" style="stroke: #A80036; stroke-width: 1.0;"/><!--MD5=[9853b064ab1cf252cf330ebdbffc9163]
@startuml
class InteractiveObject {
    + ShowHighlight() : void
    + HideHighlight() : void
}
MonoBehaviour <|- - InteractiveObject
@enduml

PlantUML version 1.2020.02(Sun Mar 01 10:22:07 GMT 2020)
(GPL source distribution)
Java Runtime: OpenJDK Runtime Environment
JVM: OpenJDK 64-Bit Server VM
Java Version: 11.0.9+11-Ubuntu-0ubuntu1
Operating System: Linux
Default Encoding: ANSI_X3.4-1968
Language: en
Country: US
--></g></svg>