<?xml version="1.0" encoding="UTF-8" standalone="no"?><svg xmlns="http://www.w3.org/2000/svg" xmlns:xlink="http://www.w3.org/1999/xlink" contentScriptType="application/ecmascript" contentStyleType="text/css" height="621px" preserveAspectRatio="none" style="width:2263px;height:621px;" version="1.1" viewBox="0 0 2263 621" width="2263px" zoomAndPan="magnify"><defs><filter height="300%" id="fnepswa2d22p0" width="300%" x="-1" y="-1"><feGaussianBlur result="blurOut" stdDeviation="2.0"/><feColorMatrix in="blurOut" result="blurOut2" type="matrix" values="0 0 0 0 0 0 0 0 0 0 0 0 0 0 0 0 0 0 .4 0"/><feOffset dx="4.0" dy="4.0" in="blurOut2" result="blurOut3"/><feBlend in="SourceGraphic" in2="blurOut3" mode="normal"/></filter></defs><g><!--MD5=[117b57e648b2dadb8e21ed73ac24008a]
class @PlayerInput--><rect fill="#FEFECE" filter="url(#fnepswa2d22p0)" height="194.7891" id="@PlayerInput" style="stroke: #A80036; stroke-width: 1.5;" width="421" x="1264.02" y="116"/><ellipse cx="1428.77" cy="134.9688" fill="#ADD1B2" rx="11" ry="11" style="stroke: #A80036; stroke-width: 1.0;"/><path d="M1431.7388,140.6094 Q1431.1606,140.9063 1430.52,141.0469 Q1429.8794,141.2031 1429.1763,141.2031 Q1426.6763,141.2031 1425.3481,139.5625 Q1424.0356,137.9063 1424.0356,134.7813 Q1424.0356,131.6563 1425.3481,130 Q1426.6763,128.3438 1429.1763,128.3438 Q1429.8794,128.3438 1430.52,128.5 Q1431.1763,128.6563 1431.7388,128.9531 L1431.7388,131.6719 Q1431.1138,131.0938 1430.52,130.8281 Q1429.9263,130.5469 1429.3013,130.5469 Q1427.9575,130.5469 1427.27,131.625 Q1426.5825,132.6875 1426.5825,134.7813 Q1426.5825,136.875 1427.27,137.9531 Q1427.9575,139.0156 1429.3013,139.0156 Q1429.9263,139.0156 1430.52,138.75 Q1431.1138,138.4688 1431.7388,137.8906 L1431.7388,140.6094 Z "/><text fill="#000000" font-family="sans-serif" font-size="12" font-style="italic" lengthAdjust="spacingAndGlyphs" textLength="54" x="1463.77" y="132.1387">«partial»</text><text fill="#000000" font-family="sans-serif" font-size="12" lengthAdjust="spacingAndGlyphs" textLength="83" x="1449.27" y="146.1074">@PlayerInput</text><line style="stroke: #A80036; stroke-width: 1.5;" x1="1265.02" x2="1684.02" y1="153.9375" y2="153.9375"/><ellipse cx="1275.02" cy="164.9375" fill="none" rx="3" ry="3" style="stroke: #038048; stroke-width: 1.0;"/><text fill="#000000" font-family="sans-serif" font-size="11" lengthAdjust="spacingAndGlyphs" textLength="230" x="1284.02" y="168.1479">bindingMask : InputBinding? «get» «set»</text><ellipse cx="1275.02" cy="177.7422" fill="none" rx="3" ry="3" style="stroke: #038048; stroke-width: 1.0;"/><text fill="#000000" font-family="sans-serif" font-size="11" lengthAdjust="spacingAndGlyphs" textLength="299" x="1284.02" y="180.9526">devices : ReadOnlyArray&lt;InputDevice&gt;? «get» «set»</text><line style="stroke: #A80036; stroke-width: 1.5;" x1="1265.02" x2="1684.02" y1="187.5469" y2="187.5469"/><ellipse cx="1275.02" cy="198.5469" fill="#84BE84" rx="3" ry="3" style="stroke: #038048; stroke-width: 1.0;"/><text fill="#000000" font-family="sans-serif" font-size="11" lengthAdjust="spacingAndGlyphs" textLength="83" x="1284.02" y="201.7573">@PlayerInput()</text><ellipse cx="1275.02" cy="211.3516" fill="#84BE84" rx="3" ry="3" style="stroke: #038048; stroke-width: 1.0;"/><text fill="#000000" font-family="sans-serif" font-size="11" lengthAdjust="spacingAndGlyphs" textLength="89" x="1284.02" y="214.562">Dispose() : void</text><ellipse cx="1275.02" cy="224.1563" fill="#84BE84" rx="3" ry="3" style="stroke: #038048; stroke-width: 1.0;"/><text fill="#000000" font-family="sans-serif" font-size="11" lengthAdjust="spacingAndGlyphs" textLength="194" x="1284.02" y="227.3667">Contains(action:InputAction) : bool</text><ellipse cx="1275.02" cy="236.9609" fill="#84BE84" rx="3" ry="3" style="stroke: #038048; stroke-width: 1.0;"/><text fill="#000000" font-family="sans-serif" font-size="11" lengthAdjust="spacingAndGlyphs" textLength="257" x="1284.02" y="240.1714">GetEnumerator() : IEnumerator&lt;InputAction&gt;</text><text fill="#000000" font-family="sans-serif" font-size="11" lengthAdjust="spacingAndGlyphs" textLength="177" x="1284.02" y="252.9761">GetEnumerator() : IEnumerator</text><ellipse cx="1275.02" cy="262.5703" fill="#84BE84" rx="3" ry="3" style="stroke: #038048; stroke-width: 1.0;"/><text fill="#000000" font-family="sans-serif" font-size="11" lengthAdjust="spacingAndGlyphs" textLength="81" x="1284.02" y="265.7808">Enable() : void</text><ellipse cx="1275.02" cy="275.375" fill="#84BE84" rx="3" ry="3" style="stroke: #038048; stroke-width: 1.0;"/><text fill="#000000" font-family="sans-serif" font-size="11" lengthAdjust="spacingAndGlyphs" textLength="85" x="1284.02" y="278.5854">Disable() : void</text><ellipse cx="1275.02" cy="288.1797" fill="#84BE84" rx="3" ry="3" style="stroke: #038048; stroke-width: 1.0;"/><text fill="#000000" font-family="sans-serif" font-size="11" lengthAdjust="spacingAndGlyphs" textLength="395" x="1284.02" y="291.3901">FindAction(actionNameOrId:string, throwIfNotFound:bool) : InputAction</text><ellipse cx="1275.02" cy="300.9844" fill="#84BE84" rx="3" ry="3" style="stroke: #038048; stroke-width: 1.0;"/><text fill="#000000" font-family="sans-serif" font-size="11" lengthAdjust="spacingAndGlyphs" textLength="351" x="1284.02" y="304.1948">FindBinding(bindingMask:InputBinding, action:InputAction) : int</text><!--MD5=[ca7af697e2afe71fb3a5f4a422583352]
class ReadOnlyArray`1--><rect fill="#FEFECE" filter="url(#fnepswa2d22p0)" height="48" id="ReadOnlyArray`1" style="stroke: #A80036; stroke-width: 1.5;" width="147" x="179.02" y="412.5"/><ellipse cx="194.02" cy="428.5" fill="#ADD1B2" rx="11" ry="11" style="stroke: #A80036; stroke-width: 1.0;"/><path d="M196.9888,434.1406 Q196.4106,434.4375 195.77,434.5781 Q195.1294,434.7344 194.4263,434.7344 Q191.9263,434.7344 190.5981,433.0938 Q189.2856,431.4375 189.2856,428.3125 Q189.2856,425.1875 190.5981,423.5313 Q191.9263,421.875 194.4263,421.875 Q195.1294,421.875 195.77,422.0313 Q196.4263,422.1875 196.9888,422.4844 L196.9888,425.2031 Q196.3638,424.625 195.77,424.3594 Q195.1763,424.0781 194.5513,424.0781 Q193.2075,424.0781 192.52,425.1563 Q191.8325,426.2188 191.8325,428.3125 Q191.8325,430.4063 192.52,431.4844 Q193.2075,432.5469 194.5513,432.5469 Q195.1763,432.5469 195.77,432.2813 Q196.3638,432 196.9888,431.4219 L196.9888,434.1406 Z "/><text fill="#000000" font-family="sans-serif" font-size="12" lengthAdjust="spacingAndGlyphs" textLength="104" x="208.02" y="432.6543">ReadOnlyArray`1</text><rect fill="#FFFFFF" height="15.9688" style="stroke: #000000; stroke-width: 1.0; stroke-dasharray: 2.0,2.0;" width="9" x="320.02" y="409.5"/><text fill="#000000" font-family="sans-serif" font-size="12" font-style="italic" lengthAdjust="spacingAndGlyphs" textLength="7" x="321.02" y="421.6387">T</text><line style="stroke: #A80036; stroke-width: 1.5;" x1="180.02" x2="325.02" y1="444.5" y2="444.5"/><line style="stroke: #A80036; stroke-width: 1.5;" x1="180.02" x2="325.02" y1="452.5" y2="452.5"/><!--MD5=[6fcf91f8cf9ffbe80305b00d1b111ce3]
class IEnumerable`1--><rect fill="#FEFECE" filter="url(#fnepswa2d22p0)" height="48" id="IEnumerable`1" style="stroke: #A80036; stroke-width: 1.5;" width="135" x="361.02" y="412.5"/><ellipse cx="376.02" cy="428.5" fill="#ADD1B2" rx="11" ry="11" style="stroke: #A80036; stroke-width: 1.0;"/><path d="M378.9888,434.1406 Q378.4106,434.4375 377.77,434.5781 Q377.1294,434.7344 376.4263,434.7344 Q373.9263,434.7344 372.5981,433.0938 Q371.2856,431.4375 371.2856,428.3125 Q371.2856,425.1875 372.5981,423.5313 Q373.9263,421.875 376.4263,421.875 Q377.1294,421.875 377.77,422.0313 Q378.4263,422.1875 378.9888,422.4844 L378.9888,425.2031 Q378.3638,424.625 377.77,424.3594 Q377.1763,424.0781 376.5513,424.0781 Q375.2075,424.0781 374.52,425.1563 Q373.8325,426.2188 373.8325,428.3125 Q373.8325,430.4063 374.52,431.4844 Q375.2075,432.5469 376.5513,432.5469 Q377.1763,432.5469 377.77,432.2813 Q378.3638,432 378.9888,431.4219 L378.9888,434.1406 Z "/><text fill="#000000" font-family="sans-serif" font-size="12" lengthAdjust="spacingAndGlyphs" textLength="92" x="390.02" y="432.6543">IEnumerable`1</text><rect fill="#FFFFFF" height="15.9688" style="stroke: #000000; stroke-width: 1.0; stroke-dasharray: 2.0,2.0;" width="9" x="490.02" y="409.5"/><text fill="#000000" font-family="sans-serif" font-size="12" font-style="italic" lengthAdjust="spacingAndGlyphs" textLength="7" x="491.02" y="421.6387">T</text><line style="stroke: #A80036; stroke-width: 1.5;" x1="362.02" x2="495.02" y1="444.5" y2="444.5"/><line style="stroke: #A80036; stroke-width: 1.5;" x1="362.02" x2="495.02" y1="452.5" y2="452.5"/><!--MD5=[f1d074ae0db03f497c075808272e6c5c]
class PlayerActions--><rect fill="#FEFECE" filter="url(#fnepswa2d22p0)" height="130.7656" id="PlayerActions" style="stroke: #A80036; stroke-width: 1.5;" width="273" x="531.02" y="371"/><ellipse cx="621.27" cy="389.9688" fill="#ADD1B2" rx="11" ry="11" style="stroke: #A80036; stroke-width: 1.0;"/><path d="M624.2388,395.6094 Q623.6606,395.9063 623.02,396.0469 Q622.3794,396.2031 621.6763,396.2031 Q619.1763,396.2031 617.8481,394.5625 Q616.5356,392.9063 616.5356,389.7813 Q616.5356,386.6563 617.8481,385 Q619.1763,383.3438 621.6763,383.3438 Q622.3794,383.3438 623.02,383.5 Q623.6763,383.6563 624.2388,383.9531 L624.2388,386.6719 Q623.6138,386.0938 623.02,385.8281 Q622.4263,385.5469 621.8013,385.5469 Q620.4575,385.5469 619.77,386.625 Q619.0825,387.6875 619.0825,389.7813 Q619.0825,391.875 619.77,392.9531 Q620.4575,394.0156 621.8013,394.0156 Q622.4263,394.0156 623.02,393.75 Q623.6138,393.4688 624.2388,392.8906 L624.2388,395.6094 Z "/><text fill="#000000" font-family="sans-serif" font-size="12" font-style="italic" lengthAdjust="spacingAndGlyphs" textLength="50" x="658.77" y="387.1387">«struct»</text><text fill="#000000" font-family="sans-serif" font-size="12" lengthAdjust="spacingAndGlyphs" textLength="84" x="641.77" y="401.1074">PlayerActions</text><line style="stroke: #A80036; stroke-width: 1.5;" x1="532.02" x2="803.02" y1="408.9375" y2="408.9375"/><ellipse cx="542.02" cy="419.9375" fill="none" rx="3" ry="3" style="stroke: #038048; stroke-width: 1.0;"/><text fill="#000000" font-family="sans-serif" font-size="11" lengthAdjust="spacingAndGlyphs" textLength="117" x="551.02" y="423.1479">enabled : bool «get»</text><line style="stroke: #A80036; stroke-width: 1.5;" x1="532.02" x2="803.02" y1="429.7422" y2="429.7422"/><ellipse cx="542.02" cy="440.7422" fill="#84BE84" rx="3" ry="3" style="stroke: #038048; stroke-width: 1.0;"/><text fill="#000000" font-family="sans-serif" font-size="11" lengthAdjust="spacingAndGlyphs" textLength="210" x="551.02" y="443.9526">PlayerActions(wrapper:@PlayerInput)</text><ellipse cx="542.02" cy="453.5469" fill="#84BE84" rx="3" ry="3" style="stroke: #038048; stroke-width: 1.0;"/><text fill="#000000" font-family="sans-serif" font-size="11" lengthAdjust="spacingAndGlyphs" textLength="125" x="551.02" y="456.7573">Get() : InputActionMap</text><ellipse cx="542.02" cy="466.3516" fill="#84BE84" rx="3" ry="3" style="stroke: #038048; stroke-width: 1.0;"/><text fill="#000000" font-family="sans-serif" font-size="11" lengthAdjust="spacingAndGlyphs" textLength="81" x="551.02" y="469.562">Enable() : void</text><ellipse cx="542.02" cy="479.1563" fill="#84BE84" rx="3" ry="3" style="stroke: #038048; stroke-width: 1.0;"/><text fill="#000000" font-family="sans-serif" font-size="11" lengthAdjust="spacingAndGlyphs" textLength="85" x="551.02" y="482.3667">Disable() : void</text><ellipse cx="542.02" cy="491.9609" fill="#84BE84" rx="3" ry="3" style="stroke: #038048; stroke-width: 1.0;"/><text fill="#000000" font-family="sans-serif" font-size="11" lengthAdjust="spacingAndGlyphs" textLength="247" x="551.02" y="495.1714">SetCallbacks(instance:IPlayerActions) : void</text><!--MD5=[9f449219d7f8e17248abcd84af1f0675]
class MenuActions--><rect fill="#FEFECE" filter="url(#fnepswa2d22p0)" height="130.7656" id="MenuActions" style="stroke: #A80036; stroke-width: 1.5;" width="268" x="839.52" y="371"/><ellipse cx="929.27" cy="389.9688" fill="#ADD1B2" rx="11" ry="11" style="stroke: #A80036; stroke-width: 1.0;"/><path d="M932.2388,395.6094 Q931.6606,395.9063 931.02,396.0469 Q930.3794,396.2031 929.6763,396.2031 Q927.1763,396.2031 925.8481,394.5625 Q924.5356,392.9063 924.5356,389.7813 Q924.5356,386.6563 925.8481,385 Q927.1763,383.3438 929.6763,383.3438 Q930.3794,383.3438 931.02,383.5 Q931.6763,383.6563 932.2388,383.9531 L932.2388,386.6719 Q931.6138,386.0938 931.02,385.8281 Q930.4263,385.5469 929.8013,385.5469 Q928.4575,385.5469 927.77,386.625 Q927.0825,387.6875 927.0825,389.7813 Q927.0825,391.875 927.77,392.9531 Q928.4575,394.0156 929.8013,394.0156 Q930.4263,394.0156 931.02,393.75 Q931.6138,393.4688 932.2388,392.8906 L932.2388,395.6094 Z "/><text fill="#000000" font-family="sans-serif" font-size="12" font-style="italic" lengthAdjust="spacingAndGlyphs" textLength="50" x="964.77" y="387.1387">«struct»</text><text fill="#000000" font-family="sans-serif" font-size="12" lengthAdjust="spacingAndGlyphs" textLength="80" x="949.77" y="401.1074">MenuActions</text><line style="stroke: #A80036; stroke-width: 1.5;" x1="840.52" x2="1106.52" y1="408.9375" y2="408.9375"/><ellipse cx="850.52" cy="419.9375" fill="none" rx="3" ry="3" style="stroke: #038048; stroke-width: 1.0;"/><text fill="#000000" font-family="sans-serif" font-size="11" lengthAdjust="spacingAndGlyphs" textLength="117" x="859.52" y="423.1479">enabled : bool «get»</text><line style="stroke: #A80036; stroke-width: 1.5;" x1="840.52" x2="1106.52" y1="429.7422" y2="429.7422"/><ellipse cx="850.52" cy="440.7422" fill="#84BE84" rx="3" ry="3" style="stroke: #038048; stroke-width: 1.0;"/><text fill="#000000" font-family="sans-serif" font-size="11" lengthAdjust="spacingAndGlyphs" textLength="205" x="859.52" y="443.9526">MenuActions(wrapper:@PlayerInput)</text><ellipse cx="850.52" cy="453.5469" fill="#84BE84" rx="3" ry="3" style="stroke: #038048; stroke-width: 1.0;"/><text fill="#000000" font-family="sans-serif" font-size="11" lengthAdjust="spacingAndGlyphs" textLength="125" x="859.52" y="456.7573">Get() : InputActionMap</text><ellipse cx="850.52" cy="466.3516" fill="#84BE84" rx="3" ry="3" style="stroke: #038048; stroke-width: 1.0;"/><text fill="#000000" font-family="sans-serif" font-size="11" lengthAdjust="spacingAndGlyphs" textLength="81" x="859.52" y="469.562">Enable() : void</text><ellipse cx="850.52" cy="479.1563" fill="#84BE84" rx="3" ry="3" style="stroke: #038048; stroke-width: 1.0;"/><text fill="#000000" font-family="sans-serif" font-size="11" lengthAdjust="spacingAndGlyphs" textLength="85" x="859.52" y="482.3667">Disable() : void</text><ellipse cx="850.52" cy="491.9609" fill="#84BE84" rx="3" ry="3" style="stroke: #038048; stroke-width: 1.0;"/><text fill="#000000" font-family="sans-serif" font-size="11" lengthAdjust="spacingAndGlyphs" textLength="242" x="859.52" y="495.1714">SetCallbacks(instance:IMenuActions) : void</text><!--MD5=[ff19ff72b32ea0bb3a21e8e84f9d7bcd]
class IPlayerActions--><rect fill="#FEFECE" filter="url(#fnepswa2d22p0)" height="73.6094" id="IPlayerActions" style="stroke: #A80036; stroke-width: 1.5;" width="315" x="1143.02" y="399.5"/><ellipse cx="1252.77" cy="415.5" fill="#B4A7E5" rx="11" ry="11" style="stroke: #A80036; stroke-width: 1.0;"/><path d="M1248.6919,411.2656 L1248.6919,409.1094 L1256.0825,409.1094 L1256.0825,411.2656 L1253.6138,411.2656 L1253.6138,419.3438 L1256.0825,419.3438 L1256.0825,421.5 L1248.6919,421.5 L1248.6919,419.3438 L1251.1606,419.3438 L1251.1606,411.2656 L1248.6919,411.2656 Z "/><text fill="#000000" font-family="sans-serif" font-size="12" font-style="italic" lengthAdjust="spacingAndGlyphs" textLength="87" x="1273.27" y="419.6543">IPlayerActions</text><line style="stroke: #A80036; stroke-width: 1.5;" x1="1144.02" x2="1457.02" y1="431.5" y2="431.5"/><line style="stroke: #A80036; stroke-width: 1.5;" x1="1144.02" x2="1457.02" y1="439.5" y2="439.5"/><text fill="#000000" font-family="sans-serif" font-size="11" lengthAdjust="spacingAndGlyphs" textLength="289" x="1149.02" y="453.7104">OnMove(context:InputAction.CallbackContext) : void</text><text fill="#000000" font-family="sans-serif" font-size="11" lengthAdjust="spacingAndGlyphs" textLength="303" x="1149.02" y="466.5151">OnInteract(context:InputAction.CallbackContext) : void</text><!--MD5=[d40fbb98ff7f76b29f5d00068d1eef45]
class IMenuActions--><rect fill="#FEFECE" filter="url(#fnepswa2d22p0)" height="60.8047" id="IMenuActions" style="stroke: #A80036; stroke-width: 1.5;" width="313" x="1493.02" y="406"/><ellipse cx="1603.77" cy="422" fill="#B4A7E5" rx="11" ry="11" style="stroke: #A80036; stroke-width: 1.0;"/><path d="M1599.6919,417.7656 L1599.6919,415.6094 L1607.0825,415.6094 L1607.0825,417.7656 L1604.6138,417.7656 L1604.6138,425.8438 L1607.0825,425.8438 L1607.0825,428 L1599.6919,428 L1599.6919,425.8438 L1602.1606,425.8438 L1602.1606,417.7656 L1599.6919,417.7656 Z "/><text fill="#000000" font-family="sans-serif" font-size="12" font-style="italic" lengthAdjust="spacingAndGlyphs" textLength="83" x="1624.27" y="426.1543">IMenuActions</text><line style="stroke: #A80036; stroke-width: 1.5;" x1="1494.02" x2="1805.02" y1="438" y2="438"/><line style="stroke: #A80036; stroke-width: 1.5;" x1="1494.02" x2="1805.02" y1="446" y2="446"/><text fill="#000000" font-family="sans-serif" font-size="11" lengthAdjust="spacingAndGlyphs" textLength="301" x="1499.02" y="460.2104">OnEscape(context:InputAction.CallbackContext) : void</text><!--MD5=[c4cad755655c2693d7ab643319c583e1]
class IInputActionCollection2--><rect fill="#FEFECE" filter="url(#fnepswa2d22p0)" height="48" id="IInputActionCollection2" style="stroke: #A80036; stroke-width: 1.5;" width="175" x="1300.02" y="8"/><ellipse cx="1315.02" cy="24" fill="#ADD1B2" rx="11" ry="11" style="stroke: #A80036; stroke-width: 1.0;"/><path d="M1317.9888,29.6406 Q1317.4106,29.9375 1316.77,30.0781 Q1316.1294,30.2344 1315.4263,30.2344 Q1312.9263,30.2344 1311.5981,28.5938 Q1310.2856,26.9375 1310.2856,23.8125 Q1310.2856,20.6875 1311.5981,19.0313 Q1312.9263,17.375 1315.4263,17.375 Q1316.1294,17.375 1316.77,17.5313 Q1317.4263,17.6875 1317.9888,17.9844 L1317.9888,20.7031 Q1317.3638,20.125 1316.77,19.8594 Q1316.1763,19.5781 1315.5513,19.5781 Q1314.2075,19.5781 1313.52,20.6563 Q1312.8325,21.7188 1312.8325,23.8125 Q1312.8325,25.9063 1313.52,26.9844 Q1314.2075,28.0469 1315.5513,28.0469 Q1316.1763,28.0469 1316.77,27.7813 Q1317.3638,27.5 1317.9888,26.9219 L1317.9888,29.6406 Z "/><text fill="#000000" font-family="sans-serif" font-size="12" lengthAdjust="spacingAndGlyphs" textLength="143" x="1329.02" y="28.1543">IInputActionCollection2</text><line style="stroke: #A80036; stroke-width: 1.5;" x1="1301.02" x2="1474.02" y1="40" y2="40"/><line style="stroke: #A80036; stroke-width: 1.5;" x1="1301.02" x2="1474.02" y1="48" y2="48"/><!--MD5=[fe50a4f6767356ff4dcdadb85ef8cbdd]
class IDisposable--><rect fill="#FEFECE" filter="url(#fnepswa2d22p0)" height="48" id="IDisposable" style="stroke: #A80036; stroke-width: 1.5;" width="104" x="1510.52" y="8"/><ellipse cx="1525.52" cy="24" fill="#ADD1B2" rx="11" ry="11" style="stroke: #A80036; stroke-width: 1.0;"/><path d="M1528.4888,29.6406 Q1527.9106,29.9375 1527.27,30.0781 Q1526.6294,30.2344 1525.9263,30.2344 Q1523.4263,30.2344 1522.0981,28.5938 Q1520.7856,26.9375 1520.7856,23.8125 Q1520.7856,20.6875 1522.0981,19.0313 Q1523.4263,17.375 1525.9263,17.375 Q1526.6294,17.375 1527.27,17.5313 Q1527.9263,17.6875 1528.4888,17.9844 L1528.4888,20.7031 Q1527.8638,20.125 1527.27,19.8594 Q1526.6763,19.5781 1526.0513,19.5781 Q1524.7075,19.5781 1524.02,20.6563 Q1523.3325,21.7188 1523.3325,23.8125 Q1523.3325,25.9063 1524.02,26.9844 Q1524.7075,28.0469 1526.0513,28.0469 Q1526.6763,28.0469 1527.27,27.7813 Q1527.8638,27.5 1528.4888,26.9219 L1528.4888,29.6406 Z "/><text fill="#000000" font-family="sans-serif" font-size="12" lengthAdjust="spacingAndGlyphs" textLength="72" x="1539.52" y="28.1543">IDisposable</text><line style="stroke: #A80036; stroke-width: 1.5;" x1="1511.52" x2="1613.52" y1="40" y2="40"/><line style="stroke: #A80036; stroke-width: 1.5;" x1="1511.52" x2="1613.52" y1="48" y2="48"/><!--MD5=[65758da862cdb4292622ca08bd5e6eef]
class InputActionAsset--><rect fill="#FEFECE" filter="url(#fnepswa2d22p0)" height="48" id="InputActionAsset" style="stroke: #A80036; stroke-width: 1.5;" width="138" x="1841.52" y="412.5"/><ellipse cx="1856.52" cy="428.5" fill="#ADD1B2" rx="11" ry="11" style="stroke: #A80036; stroke-width: 1.0;"/><path d="M1859.4888,434.1406 Q1858.9106,434.4375 1858.27,434.5781 Q1857.6294,434.7344 1856.9263,434.7344 Q1854.4263,434.7344 1853.0981,433.0938 Q1851.7856,431.4375 1851.7856,428.3125 Q1851.7856,425.1875 1853.0981,423.5313 Q1854.4263,421.875 1856.9263,421.875 Q1857.6294,421.875 1858.27,422.0313 Q1858.9263,422.1875 1859.4888,422.4844 L1859.4888,425.2031 Q1858.8638,424.625 1858.27,424.3594 Q1857.6763,424.0781 1857.0513,424.0781 Q1855.7075,424.0781 1855.02,425.1563 Q1854.3325,426.2188 1854.3325,428.3125 Q1854.3325,430.4063 1855.02,431.4844 Q1855.7075,432.5469 1857.0513,432.5469 Q1857.6763,432.5469 1858.27,432.2813 Q1858.8638,432 1859.4888,431.4219 L1859.4888,434.1406 Z "/><text fill="#000000" font-family="sans-serif" font-size="12" lengthAdjust="spacingAndGlyphs" textLength="106" x="1870.52" y="432.6543">InputActionAsset</text><line style="stroke: #A80036; stroke-width: 1.5;" x1="1842.52" x2="1978.52" y1="444.5" y2="444.5"/><line style="stroke: #A80036; stroke-width: 1.5;" x1="1842.52" x2="1978.52" y1="452.5" y2="452.5"/><!--MD5=[3c37fd371313b6f11328eec8fbc8af03]
class InputControlScheme--><rect fill="#FEFECE" filter="url(#fnepswa2d22p0)" height="48" id="InputControlScheme" style="stroke: #A80036; stroke-width: 1.5;" width="159" x="2015.02" y="412.5"/><ellipse cx="2030.02" cy="428.5" fill="#ADD1B2" rx="11" ry="11" style="stroke: #A80036; stroke-width: 1.0;"/><path d="M2032.9888,434.1406 Q2032.4106,434.4375 2031.77,434.5781 Q2031.1294,434.7344 2030.4263,434.7344 Q2027.9263,434.7344 2026.5981,433.0938 Q2025.2856,431.4375 2025.2856,428.3125 Q2025.2856,425.1875 2026.5981,423.5313 Q2027.9263,421.875 2030.4263,421.875 Q2031.1294,421.875 2031.77,422.0313 Q2032.4263,422.1875 2032.9888,422.4844 L2032.9888,425.2031 Q2032.3638,424.625 2031.77,424.3594 Q2031.1763,424.0781 2030.5513,424.0781 Q2029.2075,424.0781 2028.52,425.1563 Q2027.8325,426.2188 2027.8325,428.3125 Q2027.8325,430.4063 2028.52,431.4844 Q2029.2075,432.5469 2030.5513,432.5469 Q2031.1763,432.5469 2031.77,432.2813 Q2032.3638,432 2032.9888,431.4219 L2032.9888,434.1406 Z "/><text fill="#000000" font-family="sans-serif" font-size="12" lengthAdjust="spacingAndGlyphs" textLength="127" x="2044.02" y="432.6543">InputControlScheme</text><line style="stroke: #A80036; stroke-width: 1.5;" x1="2016.02" x2="2173.02" y1="444.5" y2="444.5"/><line style="stroke: #A80036; stroke-width: 1.5;" x1="2016.02" x2="2173.02" y1="452.5" y2="452.5"/><!--MD5=[013b658a1d1982222fcba254b13a13cc]
class InputAction--><rect fill="#FEFECE" filter="url(#fnepswa2d22p0)" height="48" id="InputAction" style="stroke: #A80036; stroke-width: 1.5;" width="103" x="616.02" y="562"/><ellipse cx="631.02" cy="578" fill="#ADD1B2" rx="11" ry="11" style="stroke: #A80036; stroke-width: 1.0;"/><path d="M633.9888,583.6406 Q633.4106,583.9375 632.77,584.0781 Q632.1294,584.2344 631.4263,584.2344 Q628.9263,584.2344 627.5981,582.5938 Q626.2856,580.9375 626.2856,577.8125 Q626.2856,574.6875 627.5981,573.0313 Q628.9263,571.375 631.4263,571.375 Q632.1294,571.375 632.77,571.5313 Q633.4263,571.6875 633.9888,571.9844 L633.9888,574.7031 Q633.3638,574.125 632.77,573.8594 Q632.1763,573.5781 631.5513,573.5781 Q630.2075,573.5781 629.52,574.6563 Q628.8325,575.7188 628.8325,577.8125 Q628.8325,579.9063 629.52,580.9844 Q630.2075,582.0469 631.5513,582.0469 Q632.1763,582.0469 632.77,581.7813 Q633.3638,581.5 633.9888,580.9219 L633.9888,583.6406 Z "/><text fill="#000000" font-family="sans-serif" font-size="12" lengthAdjust="spacingAndGlyphs" textLength="71" x="645.02" y="582.1543">InputAction</text><line style="stroke: #A80036; stroke-width: 1.5;" x1="617.02" x2="718.02" y1="594" y2="594"/><line style="stroke: #A80036; stroke-width: 1.5;" x1="617.02" x2="718.02" y1="602" y2="602"/><!--MD5=[4810a4ed9dc327fdd390c25c9bc5b360]
reverse link IInputActionCollection2 to @PlayerInput--><path d="M1407.47,74.17 C1413.58,86.78 1420.58,101.21 1427.69,115.89 " fill="none" id="IInputActionCollection2&lt;-@PlayerInput" style="stroke: #A80036; stroke-width: 1.0;"/><polygon fill="none" points="1401.14,77.15,1398.71,56.1,1413.74,71.04,1401.14,77.15" style="stroke: #A80036; stroke-width: 1.0;"/><!--MD5=[94907eef87cd7143d2a79d64a4516102]
reverse link IDisposable to @PlayerInput--><path d="M1542.33,74.17 C1536.16,86.78 1529.08,101.21 1521.88,115.89 " fill="none" id="IDisposable&lt;-@PlayerInput" style="stroke: #A80036; stroke-width: 1.0;"/><polygon fill="none" points="1536.11,70.98,1551.19,56.1,1548.68,77.14,1536.11,70.98" style="stroke: #A80036; stroke-width: 1.0;"/><!--MD5=[05b6f506be43656c7c5f9aa5f875ad07]
link @PlayerInput to InputActionAsset--><path d="M1685.37,300.2 C1731.84,321.5 1780.11,345.58 1823.52,371 C1842.66,382.21 1862.64,396.79 1878.62,409.25 " fill="none" id="@PlayerInput-&gt;InputActionAsset" style="stroke: #A80036; stroke-width: 1.0;"/><polygon fill="#A80036" points="1882.59,412.37,1877.983,403.6651,1878.6579,409.2815,1873.0415,409.9564,1882.59,412.37" style="stroke: #A80036; stroke-width: 1.0;"/><text fill="#000000" font-family="sans-serif" font-size="13" lengthAdjust="spacingAndGlyphs" textLength="35" x="1835.9486" y="401.3487">asset</text><!--MD5=[248bbda06d7ff706e59018f9ccebd977]
link @PlayerInput to ReadOnlyArray`1--><path d="M1263.88,231.61 C984.18,256.39 506.51,306.46 343.52,371 C321.11,379.87 298.98,395.36 282.16,408.94 " fill="none" id="@PlayerInput-&gt;ReadOnlyArray`1" style="stroke: #A80036; stroke-width: 1.0;"/><polygon fill="#A80036" points="278,412.34,287.497,409.731,281.8679,409.1715,282.4274,403.5424,278,412.34" style="stroke: #A80036; stroke-width: 1.0;"/><text fill="#000000" font-family="sans-serif" font-size="13" lengthAdjust="spacingAndGlyphs" textLength="257" x="-5.3989" y="401.311">controlSchemes&lt;InputControlScheme&gt;</text><!--MD5=[7cecd51848c2837a786cd6a42a867907]
link @PlayerInput to IEnumerable`1--><path d="M1263.94,219.67 C1063.6,231.21 757.41,266.36 513.52,371 C492.49,380.02 471.96,395.36 456.35,408.81 " fill="none" id="@PlayerInput-&gt;IEnumerable`1" style="stroke: #A80036; stroke-width: 1.0;"/><polygon fill="#A80036" points="452.49,412.18,461.8917,409.2461,456.2467,408.8804,456.6124,403.2354,452.49,412.18" style="stroke: #A80036; stroke-width: 1.0;"/><text fill="#000000" font-family="sans-serif" font-size="13" lengthAdjust="spacingAndGlyphs" textLength="154" x="328.4279" y="401.4452">bindings&lt;InputBinding&gt;</text><!--MD5=[58e3c4a9d6bacdfeecc6cc2c2618da87]
link @PlayerInput to PlayerActions--><path d="M1263.84,252.88 C1131.85,280.28 959.11,320.81 808.99,369.54 " fill="none" id="@PlayerInput-&gt;PlayerActions" style="stroke: #A80036; stroke-width: 1.0;"/><polygon fill="#A80036" points="804.11,371.14,813.905,372.1683,808.8661,369.5975,811.437,364.5586,804.11,371.14" style="stroke: #A80036; stroke-width: 1.0;"/><text fill="#000000" font-family="sans-serif" font-size="13" lengthAdjust="spacingAndGlyphs" textLength="52" x="803.7263" y="360.0434">@Player</text><!--MD5=[53e327f06e84d59e66b06a22eb1072a9]
reverse link @PlayerInput to PlayerActions--><path d="M1249.09,262.63 C1126.71,289.84 973.55,327.19 839.52,371 C827.95,374.78 816.03,379.06 804.11,383.57 " fill="none" id="@PlayerInput&lt;-PlayerActions" style="stroke: #A80036; stroke-width: 1.0;"/><ellipse cx="1256.0489" cy="261.0882" fill="#FFFFFF" rx="8" ry="8" style="stroke: #A80036; stroke-width: 1.0;"/><line style="stroke: #A80036; stroke-width: 1.0;" x1="1248.2378" x2="1263.86" y1="262.8164" y2="259.36"/><line style="stroke: #A80036; stroke-width: 1.0;" x1="1254.3207" x2="1257.7771" y1="253.2771" y2="268.8993"/><!--MD5=[9c0210d56787968acfcef3614e4b15b4]
link @PlayerInput to MenuActions--><path d="M1264.01,301.85 C1212.88,324.18 1159.48,347.84 1112.59,368.95 " fill="none" id="@PlayerInput-&gt;MenuActions" style="stroke: #A80036; stroke-width: 1.0;"/><polygon fill="#A80036" points="1107.78,371.11,1117.6287,371.0529,1112.3372,369.0528,1114.3372,363.7613,1107.78,371.11" style="stroke: #A80036; stroke-width: 1.0;"/><text fill="#000000" font-family="sans-serif" font-size="13" lengthAdjust="spacingAndGlyphs" textLength="48" x="1115.4457" y="364.6552">@Menu</text><!--MD5=[9513da5912384a2c1cb735cdb2c91049]
reverse link @PlayerInput to MenuActions--><path d="M1255.14,317.22 C1204.89,339.45 1152.96,362.11 1107.56,381.57 " fill="none" id="@PlayerInput&lt;-MenuActions" style="stroke: #A80036; stroke-width: 1.0;"/><ellipse cx="1261.5948" cy="314.3485" fill="#FFFFFF" rx="8" ry="8" style="stroke: #A80036; stroke-width: 1.0;"/><line style="stroke: #A80036; stroke-width: 1.0;" x1="1254.2796" x2="1268.91" y1="317.587" y2="311.11"/><line style="stroke: #A80036; stroke-width: 1.0;" x1="1258.3563" x2="1264.8333" y1="307.0333" y2="321.6637"/><!--MD5=[5f2deebf549a42e9bbc852135626497b]
link @PlayerInput to InputControlScheme--><path d="M1685.33,281.06 C1763.22,304.83 1850.51,334.86 1927.52,371 C1953.15,383.03 1979.76,401.19 2010.06,415.18 " fill="none" id="@PlayerInput-&gt;InputControlScheme" style="stroke: #A80036; stroke-width: 1.0;"/><polygon fill="#A80036" points="2014.96,417.39,2008.4028,410.0413,2010.4028,415.3328,2005.1113,417.3329,2014.96,417.39" style="stroke: #A80036; stroke-width: 1.0;"/><text fill="#000000" font-family="sans-serif" font-size="13" lengthAdjust="spacingAndGlyphs" textLength="155" x="2013.9558" y="401.5169">KeyboardMouseScheme</text><!--MD5=[5f2deebf549a42e9bbc852135626497b]
link @PlayerInput to InputControlScheme--><path d="M1685.2,271.22 C1772.96,296.34 1874.47,329.68 1962.52,371 C1985,381.55 2008.24,396.82 2030.19,409.86 " fill="none" id="@PlayerInput-&gt;InputControlScheme-1" style="stroke: #A80036; stroke-width: 1.0;"/><polygon fill="#A80036" points="2034.57,412.43,2028.8593,404.4058,2030.2662,409.8849,2024.7871,411.2919,2034.57,412.43" style="stroke: #A80036; stroke-width: 1.0;"/><text fill="#000000" font-family="sans-serif" font-size="13" lengthAdjust="spacingAndGlyphs" textLength="116" x="1935.4953" y="401.4241">GamepadScheme</text><!--MD5=[5f2deebf549a42e9bbc852135626497b]
link @PlayerInput to InputControlScheme--><path d="M1685.29,262.32 C1782.79,288.25 1898.64,324.59 1997.52,371 C2019.63,381.38 2042.46,396.32 2060.42,409.21 " fill="none" id="@PlayerInput-&gt;InputControlScheme-2" style="stroke: #A80036; stroke-width: 1.0;"/><polygon fill="#A80036" points="2064.88,412.43,2059.9433,403.9077,2060.8326,409.4942,2055.2461,410.3835,2064.88,412.43" style="stroke: #A80036; stroke-width: 1.0;"/><text fill="#000000" font-family="sans-serif" font-size="13" lengthAdjust="spacingAndGlyphs" textLength="91" x="2068.9441" y="401.4241">TouchScheme</text><!--MD5=[5f2deebf549a42e9bbc852135626497b]
link @PlayerInput to InputControlScheme--><path d="M1685.22,254.33 C1792.71,280.57 1923.02,319.61 2032.52,371 C2054.44,381.29 2077.08,396.06 2091.38,408.88 " fill="none" id="@PlayerInput-&gt;InputControlScheme-3" style="stroke: #A80036; stroke-width: 1.0;"/><polygon fill="#A80036" points="2095.19,412.43,2091.341,403.3644,2091.5352,409.0179,2085.8817,409.2121,2095.19,412.43" style="stroke: #A80036; stroke-width: 1.0;"/><text fill="#000000" font-family="sans-serif" font-size="13" lengthAdjust="spacingAndGlyphs" textLength="100" x="2108.1742" y="401.4241">JoystickScheme</text><!--MD5=[5f2deebf549a42e9bbc852135626497b]
link @PlayerInput to InputControlScheme--><path d="M1685.18,247.34 C1803.28,273.41 1947.83,314.83 2067.52,371 C2089.07,381.11 2111.3,395.56 2122.24,408.22 " fill="none" id="@PlayerInput-&gt;InputControlScheme-4" style="stroke: #A80036; stroke-width: 1.0;"/><polygon fill="#A80036" points="2125.5,412.43,2123.1464,402.8665,2122.4362,408.4786,2116.8241,407.7685,2125.5,412.43" style="stroke: #A80036; stroke-width: 1.0;"/><text fill="#000000" font-family="sans-serif" font-size="13" lengthAdjust="spacingAndGlyphs" textLength="69" x="2182.795" y="410.0563">XRScheme</text><!--MD5=[8ea74d44e6766b613097b389b3a00b90]
link PlayerActions to InputAction--><path d="M654.85,502.2 C654.49,521.25 655.28,541.12 657.22,556.62 " fill="none" id="PlayerActions-&gt;InputAction" style="stroke: #A80036; stroke-width: 1.0;"/><polygon fill="#A80036" points="657.92,561.71,660.6491,552.2468,657.2349,556.7572,652.7245,553.343,657.92,561.71" style="stroke: #A80036; stroke-width: 1.0;"/><text fill="#000000" font-family="sans-serif" font-size="13" lengthAdjust="spacingAndGlyphs" textLength="47" x="602.8519" y="551.0443">@Move</text><!--MD5=[8ea74d44e6766b613097b389b3a00b90]
link PlayerActions to InputAction--><path d="M680.93,502.2 C681.31,521.25 680.48,541.12 678.43,556.62 " fill="none" id="PlayerActions-&gt;InputAction-1" style="stroke: #A80036; stroke-width: 1.0;"/><polygon fill="#A80036" points="677.68,561.71,682.9261,553.3746,678.3951,556.7614,675.0083,552.2304,677.68,561.71" style="stroke: #A80036; stroke-width: 1.0;"/><text fill="#000000" font-family="sans-serif" font-size="13" lengthAdjust="spacingAndGlyphs" textLength="62" x="687.7127" y="551.0443">@Interact</text><!--MD5=[8c9ae73d1182b165b74218bb93b2fcf8]
link MenuActions to InputAction--><path d="M839.3,502.2 C797.21,522.48 753.2,543.7 720.26,559.58 " fill="none" id="MenuActions-&gt;InputAction" style="stroke: #A80036; stroke-width: 1.0;"/><polygon fill="#A80036" points="715.48,561.88,725.3244,561.5834,719.9858,559.7126,721.8566,554.3741,715.48,561.88" style="stroke: #A80036; stroke-width: 1.0;"/><text fill="#000000" font-family="sans-serif" font-size="13" lengthAdjust="spacingAndGlyphs" textLength="59" x="726.8569" y="571.5156">@Escape</text><!--MD5=[0f633be6a208025b6345dd707534bbda]
reverse link @PlayerInput to IPlayerActions--><path d="M1389.15,322.92 C1367.4,350.55 1345.51,378.36 1328.93,399.42 " fill="none" id="@PlayerInput&lt;-IPlayerActions" style="stroke: #A80036; stroke-width: 1.0;"/><ellipse cx="1393.499" cy="317.3939" fill="#FFFFFF" rx="8" ry="8" style="stroke: #A80036; stroke-width: 1.0;"/><line style="stroke: #A80036; stroke-width: 1.0;" x1="1388.548" x2="1398.45" y1="323.6779" y2="311.11"/><line style="stroke: #A80036; stroke-width: 1.0;" x1="1387.2151" x2="1399.783" y1="312.443" y2="322.3449"/><!--MD5=[d8c3115ad4c91f372d8254994b5159d7]
reverse link @PlayerInput to IMenuActions--><path d="M1560.57,323.17 C1584.61,353.53 1608.79,384.07 1625.86,405.62 " fill="none" id="@PlayerInput&lt;-IMenuActions" style="stroke: #A80036; stroke-width: 1.0;"/><ellipse cx="1555.9878" cy="317.3807" fill="#FFFFFF" rx="8" ry="8" style="stroke: #A80036; stroke-width: 1.0;"/><line style="stroke: #A80036; stroke-width: 1.0;" x1="1560.9555" x2="1551.02" y1="323.6513" y2="311.11"/><line style="stroke: #A80036; stroke-width: 1.0;" x1="1549.7171" x2="1562.2584" y1="322.3484" y2="312.4129"/><!--MD5=[96501308d2fbf41cc93a81ea44fe439b]
@startuml
class "@PlayerInput" <<partial>> {
    + @PlayerInput()
    + Dispose() : void
    + bindingMask : InputBinding? <<get>> <<set>>
    + devices : ReadOnlyArray<InputDevice>? <<get>> <<set>>
    + Contains(action:InputAction) : bool
    + GetEnumerator() : IEnumerator<InputAction>
    GetEnumerator() : IEnumerator
    + Enable() : void
    + Disable() : void
    + FindAction(actionNameOrId:string, throwIfNotFound:bool) : InputAction
    + FindBinding(bindingMask:InputBinding, action:InputAction) : int
}
class "ReadOnlyArray`1"<T> {
}
class "IEnumerable`1"<T> {
}
class PlayerActions <<struct>> {
    + PlayerActions(wrapper:@PlayerInput)
    + Get() : InputActionMap
    + Enable() : void
    + Disable() : void
    + enabled : bool <<get>>
    + SetCallbacks(instance:IPlayerActions) : void
}
class MenuActions <<struct>> {
    + MenuActions(wrapper:@PlayerInput)
    + Get() : InputActionMap
    + Enable() : void
    + Disable() : void
    + enabled : bool <<get>>
    + SetCallbacks(instance:IMenuActions) : void
}
interface IPlayerActions {
    OnMove(context:InputAction.CallbackContext) : void
    OnInteract(context:InputAction.CallbackContext) : void
}
interface IMenuActions {
    OnEscape(context:InputAction.CallbackContext) : void
}
IInputActionCollection2 <|- - "@PlayerInput"
IDisposable <|- - "@PlayerInput"
"@PlayerInput" - -> "asset" InputActionAsset
"@PlayerInput" - -> "controlSchemes<InputControlScheme>" "ReadOnlyArray`1"
"@PlayerInput" - -> "bindings<InputBinding>" "IEnumerable`1"
"@PlayerInput" - -> "@Player" PlayerActions
"@PlayerInput" - -> "@Menu" MenuActions
"@PlayerInput" - -> "KeyboardMouseScheme" InputControlScheme
"@PlayerInput" - -> "GamepadScheme" InputControlScheme
"@PlayerInput" - -> "TouchScheme" InputControlScheme
"@PlayerInput" - -> "JoystickScheme" InputControlScheme
"@PlayerInput" - -> "XRScheme" InputControlScheme
"@PlayerInput" +- - PlayerActions
PlayerActions - -> "@Move" InputAction
PlayerActions - -> "@Interact" InputAction
"@PlayerInput" +- - MenuActions
MenuActions - -> "@Escape" InputAction
"@PlayerInput" +- - IPlayerActions
"@PlayerInput" +- - IMenuActions
@enduml

PlantUML version 1.2020.02(Sun Mar 01 10:22:07 GMT 2020)
(GPL source distribution)
Java Runtime: OpenJDK Runtime Environment
JVM: OpenJDK 64-Bit Server VM
Java Version: 11.0.9+11-Ubuntu-0ubuntu1
Operating System: Linux
Default Encoding: ANSI_X3.4-1968
Language: en
Country: US
--></g></svg>