<?xml version="1.0" encoding="UTF-8" standalone="no"?><svg xmlns="http://www.w3.org/2000/svg" xmlns:xlink="http://www.w3.org/1999/xlink" contentScriptType="application/ecmascript" contentStyleType="text/css" height="226px" preserveAspectRatio="none" style="width:628px;height:226px;" version="1.1" viewBox="0 0 628 226" width="628px" zoomAndPan="magnify"><defs><filter height="300%" id="ftf40m1887hw3" width="300%" x="-1" y="-1"><feGaussianBlur result="blurOut" stdDeviation="2.0"/><feColorMatrix in="blurOut" result="blurOut2" type="matrix" values="0 0 0 0 0 0 0 0 0 0 0 0 0 0 0 0 0 0 .4 0"/><feOffset dx="4.0" dy="4.0" in="blurOut2" result="blurOut3"/><feBlend in="SourceGraphic" in2="blurOut3" mode="normal"/></filter></defs><g><!--MD5=[7656a3a726918333a1022946def81424]
class GlobalConstants--><rect fill="#FEFECE" filter="url(#ftf40m1887hw3)" height="99.2188" id="GlobalConstants" style="stroke: #A80036; stroke-width: 1.5;" width="611" x="6" y="116"/><ellipse cx="255.75" cy="132" fill="#ADD1B2" rx="11" ry="11" style="stroke: #A80036; stroke-width: 1.0;"/><path d="M258.7188,137.6406 Q258.1406,137.9375 257.5,138.0781 Q256.8594,138.2344 256.1563,138.2344 Q253.6563,138.2344 252.3281,136.5938 Q251.0156,134.9375 251.0156,131.8125 Q251.0156,128.6875 252.3281,127.0313 Q253.6563,125.375 256.1563,125.375 Q256.8594,125.375 257.5,125.5313 Q258.1563,125.6875 258.7188,125.9844 L258.7188,128.7031 Q258.0938,128.125 257.5,127.8594 Q256.9063,127.5781 256.2813,127.5781 Q254.9375,127.5781 254.25,128.6563 Q253.5625,129.7188 253.5625,131.8125 Q253.5625,133.9063 254.25,134.9844 Q254.9375,136.0469 256.2813,136.0469 Q256.9063,136.0469 257.5,135.7813 Q258.0938,135.5 258.7188,134.9219 L258.7188,137.6406 Z "/><text fill="#000000" font-family="sans-serif" font-size="12" lengthAdjust="spacingAndGlyphs" textLength="103" x="276.25" y="136.1543">GlobalConstants</text><line style="stroke: #A80036; stroke-width: 1.5;" x1="7" x2="616" y1="148" y2="148"/><ellipse cx="17" cy="159" fill="none" rx="3" ry="3" style="stroke: #038048; stroke-width: 1.0;"/><text fill="#000000" font-family="sans-serif" font-size="11" lengthAdjust="spacingAndGlyphs" text-decoration="underline" textLength="499" x="26" y="162.2104">«readonly» PLAYER_IDLE_ANIMATION_TRIGGER : string = "player_idle_animation_trigger"</text><ellipse cx="17" cy="171.8047" fill="none" rx="3" ry="3" style="stroke: #038048; stroke-width: 1.0;"/><text fill="#000000" font-family="sans-serif" font-size="11" lengthAdjust="spacingAndGlyphs" text-decoration="underline" textLength="585" x="26" y="175.0151">«readonly» PLAYER_WALK_DOWN_ANIMATION_TRIGGER : string = "player_walk_down_animation_trigger"</text><ellipse cx="17" cy="184.6094" fill="none" rx="3" ry="3" style="stroke: #038048; stroke-width: 1.0;"/><text fill="#000000" font-family="sans-serif" font-size="11" lengthAdjust="spacingAndGlyphs" text-decoration="underline" textLength="550" x="26" y="187.8198">«readonly» PLAYER_WALK_UP_ANIMATION_TRIGGER : string = "player_walk_up_animation_trigger"</text><ellipse cx="17" cy="197.4141" fill="none" rx="3" ry="3" style="stroke: #038048; stroke-width: 1.0;"/><text fill="#000000" font-family="sans-serif" font-size="11" lengthAdjust="spacingAndGlyphs" text-decoration="underline" textLength="571" x="26" y="200.6245">«readonly» PLAYER_WALK_SIDE_ANIMATION_TRIGGER : string = "player_walk_side_animation_trigger"</text><line style="stroke: #A80036; stroke-width: 1.5;" x1="7" x2="616" y1="207.2188" y2="207.2188"/><!--MD5=[44895057fba17b10f3053a7baa21df04]
class ScriptableObject--><rect fill="#FEFECE" filter="url(#ftf40m1887hw3)" height="48" id="ScriptableObject" style="stroke: #A80036; stroke-width: 1.5;" width="135" x="244" y="8"/><ellipse cx="259" cy="24" fill="#ADD1B2" rx="11" ry="11" style="stroke: #A80036; stroke-width: 1.0;"/><path d="M261.9688,29.6406 Q261.3906,29.9375 260.75,30.0781 Q260.1094,30.2344 259.4063,30.2344 Q256.9063,30.2344 255.5781,28.5938 Q254.2656,26.9375 254.2656,23.8125 Q254.2656,20.6875 255.5781,19.0313 Q256.9063,17.375 259.4063,17.375 Q260.1094,17.375 260.75,17.5313 Q261.4063,17.6875 261.9688,17.9844 L261.9688,20.7031 Q261.3438,20.125 260.75,19.8594 Q260.1563,19.5781 259.5313,19.5781 Q258.1875,19.5781 257.5,20.6563 Q256.8125,21.7188 256.8125,23.8125 Q256.8125,25.9063 257.5,26.9844 Q258.1875,28.0469 259.5313,28.0469 Q260.1563,28.0469 260.75,27.7813 Q261.3438,27.5 261.9688,26.9219 L261.9688,29.6406 Z "/><text fill="#000000" font-family="sans-serif" font-size="12" lengthAdjust="spacingAndGlyphs" textLength="103" x="273" y="28.1543">ScriptableObject</text><line style="stroke: #A80036; stroke-width: 1.5;" x1="245" x2="378" y1="40" y2="40"/><line style="stroke: #A80036; stroke-width: 1.5;" x1="245" x2="378" y1="48" y2="48"/><!--MD5=[de44a4f211df7c615ddc69145173405c]
reverse link ScriptableObject to GlobalConstants--><path d="M311.5,76.51 C311.5,89.14 311.5,103.01 311.5,115.93 " fill="none" id="ScriptableObject&lt;-GlobalConstants" style="stroke: #A80036; stroke-width: 1.0;"/><polygon fill="none" points="304.5,76.21,311.5,56.21,318.5,76.21,304.5,76.21" style="stroke: #A80036; stroke-width: 1.0;"/><!--MD5=[1ea2cb3197c91f552ebbc947872574c8]
@startuml
class GlobalConstants {
    + {static} <<readonly>> PLAYER_IDLE_ANIMATION_TRIGGER : string = "player_idle_animation_trigger"
    + {static} <<readonly>> PLAYER_WALK_DOWN_ANIMATION_TRIGGER : string = "player_walk_down_animation_trigger"
    + {static} <<readonly>> PLAYER_WALK_UP_ANIMATION_TRIGGER : string = "player_walk_up_animation_trigger"
    + {static} <<readonly>> PLAYER_WALK_SIDE_ANIMATION_TRIGGER : string = "player_walk_side_animation_trigger"
}
ScriptableObject <|- - GlobalConstants
@enduml

PlantUML version 1.2020.02(Sun Mar 01 10:22:07 GMT 2020)
(GPL source distribution)
Java Runtime: OpenJDK Runtime Environment
JVM: OpenJDK 64-Bit Server VM
Java Version: 11.0.9+11-Ubuntu-0ubuntu1
Operating System: Linux
Default Encoding: ANSI_X3.4-1968
Language: en
Country: US
--></g></svg>