<?xml version="1.0" encoding="UTF-8" standalone="no"?><svg xmlns="http://www.w3.org/2000/svg" xmlns:xlink="http://www.w3.org/1999/xlink" contentScriptType="application/ecmascript" contentStyleType="text/css" height="226px" preserveAspectRatio="none" style="width:296px;height:226px;" version="1.1" viewBox="0 0 296 226" width="296px" zoomAndPan="magnify"><defs><filter height="300%" id="f1aij5jua2sdrt" width="300%" x="-1" y="-1"><feGaussianBlur result="blurOut" stdDeviation="2.0"/><feColorMatrix in="blurOut" result="blurOut2" type="matrix" values="0 0 0 0 0 0 0 0 0 0 0 0 0 0 0 0 0 0 .4 0"/><feOffset dx="4.0" dy="4.0" in="blurOut2" result="blurOut3"/><feBlend in="SourceGraphic" in2="blurOut3" mode="normal"/></filter></defs><g><!--MD5=[ed3d7f3fdc98ae1cb3cfe3195ebf03cd]
class SpriteMaskController--><rect fill="#FEFECE" filter="url(#f1aij5jua2sdrt)" height="99.2188" id="SpriteMaskController" style="stroke: #A80036; stroke-width: 1.5;" width="279" x="6" y="116"/><ellipse cx="76.25" cy="132" fill="#ADD1B2" rx="11" ry="11" style="stroke: #A80036; stroke-width: 1.0;"/><path d="M79.2188,137.6406 Q78.6406,137.9375 78,138.0781 Q77.3594,138.2344 76.6563,138.2344 Q74.1563,138.2344 72.8281,136.5938 Q71.5156,134.9375 71.5156,131.8125 Q71.5156,128.6875 72.8281,127.0313 Q74.1563,125.375 76.6563,125.375 Q77.3594,125.375 78,125.5313 Q78.6563,125.6875 79.2188,125.9844 L79.2188,128.7031 Q78.5938,128.125 78,127.8594 Q77.4063,127.5781 76.7813,127.5781 Q75.4375,127.5781 74.75,128.6563 Q74.0625,129.7188 74.0625,131.8125 Q74.0625,133.9063 74.75,134.9844 Q75.4375,136.0469 76.7813,136.0469 Q77.4063,136.0469 78,135.7813 Q78.5938,135.5 79.2188,134.9219 L79.2188,137.6406 Z "/><text fill="#000000" font-family="sans-serif" font-size="12" lengthAdjust="spacingAndGlyphs" textLength="130" x="96.75" y="136.1543">SpriteMaskController</text><line style="stroke: #A80036; stroke-width: 1.5;" x1="7" x2="284" y1="148" y2="148"/><line style="stroke: #A80036; stroke-width: 1.5;" x1="7" x2="284" y1="156" y2="156"/><ellipse cx="17" cy="167" fill="#84BE84" rx="3" ry="3" style="stroke: #038048; stroke-width: 1.0;"/><text fill="#000000" font-family="sans-serif" font-size="11" lengthAdjust="spacingAndGlyphs" textLength="79" x="26" y="170.2104">Awake() : void</text><ellipse cx="17" cy="179.8047" fill="#84BE84" rx="3" ry="3" style="stroke: #038048; stroke-width: 1.0;"/><text fill="#000000" font-family="sans-serif" font-size="11" lengthAdjust="spacingAndGlyphs" textLength="83" x="26" y="183.0151">Update() : void</text><ellipse cx="17" cy="192.6094" fill="#84BE84" rx="3" ry="3" style="stroke: #038048; stroke-width: 1.0;"/><text fill="#000000" font-family="sans-serif" font-size="11" lengthAdjust="spacingAndGlyphs" textLength="253" x="26" y="195.8198">OnTriggerEnter2D(collision:Collider2D) : void</text><ellipse cx="17" cy="205.4141" fill="#84BE84" rx="3" ry="3" style="stroke: #038048; stroke-width: 1.0;"/><text fill="#000000" font-family="sans-serif" font-size="11" lengthAdjust="spacingAndGlyphs" textLength="243" x="26" y="208.6245">OnTriggerExit2D(collision:Collider2D) : void</text><!--MD5=[83b3cf3d23d77c6f1e1b5291a241bc2a]
class MonoBehaviour--><rect fill="#FEFECE" filter="url(#f1aij5jua2sdrt)" height="48" id="MonoBehaviour" style="stroke: #A80036; stroke-width: 1.5;" width="128" x="81.5" y="8"/><ellipse cx="96.5" cy="24" fill="#ADD1B2" rx="11" ry="11" style="stroke: #A80036; stroke-width: 1.0;"/><path d="M99.4688,29.6406 Q98.8906,29.9375 98.25,30.0781 Q97.6094,30.2344 96.9063,30.2344 Q94.4063,30.2344 93.0781,28.5938 Q91.7656,26.9375 91.7656,23.8125 Q91.7656,20.6875 93.0781,19.0313 Q94.4063,17.375 96.9063,17.375 Q97.6094,17.375 98.25,17.5313 Q98.9063,17.6875 99.4688,17.9844 L99.4688,20.7031 Q98.8438,20.125 98.25,19.8594 Q97.6563,19.5781 97.0313,19.5781 Q95.6875,19.5781 95,20.6563 Q94.3125,21.7188 94.3125,23.8125 Q94.3125,25.9063 95,26.9844 Q95.6875,28.0469 97.0313,28.0469 Q97.6563,28.0469 98.25,27.7813 Q98.8438,27.5 99.4688,26.9219 L99.4688,29.6406 Z "/><text fill="#000000" font-family="sans-serif" font-size="12" lengthAdjust="spacingAndGlyphs" textLength="96" x="110.5" y="28.1543">MonoBehaviour</text><line style="stroke: #A80036; stroke-width: 1.5;" x1="82.5" x2="208.5" y1="40" y2="40"/><line style="stroke: #A80036; stroke-width: 1.5;" x1="82.5" x2="208.5" y1="48" y2="48"/><!--MD5=[ebb85a6ff49dfe9962f06418134e7eeb]
reverse link MonoBehaviour to SpriteMaskController--><path d="M145.5,76.51 C145.5,89.14 145.5,103.01 145.5,115.93 " fill="none" id="MonoBehaviour&lt;-SpriteMaskController" style="stroke: #A80036; stroke-width: 1.0;"/><polygon fill="none" points="138.5,76.21,145.5,56.21,152.5,76.21,138.5,76.21" style="stroke: #A80036; stroke-width: 1.0;"/><!--MD5=[a46334f2b42ee968e6c5bd64d5206f43]
@startuml
class SpriteMaskController {
    + Awake() : void
    + Update() : void
    + OnTriggerEnter2D(collision:Collider2D) : void
    + OnTriggerExit2D(collision:Collider2D) : void
}
MonoBehaviour <|- - SpriteMaskController
@enduml

PlantUML version 1.2020.02(Sun Mar 01 10:22:07 GMT 2020)
(GPL source distribution)
Java Runtime: OpenJDK Runtime Environment
JVM: OpenJDK 64-Bit Server VM
Java Version: 11.0.9+11-Ubuntu-0ubuntu1
Operating System: Linux
Default Encoding: ANSI_X3.4-1968
Language: en
Country: US
--></g></svg>