<?xml version="1.0" encoding="UTF-8" standalone="no"?><svg xmlns="http://www.w3.org/2000/svg" xmlns:xlink="http://www.w3.org/1999/xlink" contentScriptType="application/ecmascript" contentStyleType="text/css" height="226px" preserveAspectRatio="none" style="width:423px;height:226px;" version="1.1" viewBox="0 0 423 226" width="423px" zoomAndPan="magnify"><defs><filter height="300%" id="f4tnzoupynub7" width="300%" x="-1" y="-1"><feGaussianBlur result="blurOut" stdDeviation="2.0"/><feColorMatrix in="blurOut" result="blurOut2" type="matrix" values="0 0 0 0 0 0 0 0 0 0 0 0 0 0 0 0 0 0 .4 0"/><feOffset dx="4.0" dy="4.0" in="blurOut2" result="blurOut3"/><feBlend in="SourceGraphic" in2="blurOut3" mode="normal"/></filter></defs><g><!--MD5=[95faf3e826e0617cfa87834eaab010ac]
class DetectionArea--><rect fill="#FEFECE" filter="url(#f4tnzoupynub7)" height="99.2188" id="DetectionArea" style="stroke: #A80036; stroke-width: 1.5;" width="406" x="6" y="116"/><ellipse cx="159.75" cy="132" fill="#ADD1B2" rx="11" ry="11" style="stroke: #A80036; stroke-width: 1.0;"/><path d="M162.7188,137.6406 Q162.1406,137.9375 161.5,138.0781 Q160.8594,138.2344 160.1563,138.2344 Q157.6563,138.2344 156.3281,136.5938 Q155.0156,134.9375 155.0156,131.8125 Q155.0156,128.6875 156.3281,127.0313 Q157.6563,125.375 160.1563,125.375 Q160.8594,125.375 161.5,125.5313 Q162.1563,125.6875 162.7188,125.9844 L162.7188,128.7031 Q162.0938,128.125 161.5,127.8594 Q160.9063,127.5781 160.2813,127.5781 Q158.9375,127.5781 158.25,128.6563 Q157.5625,129.7188 157.5625,131.8125 Q157.5625,133.9063 158.25,134.9844 Q158.9375,136.0469 160.2813,136.0469 Q160.9063,136.0469 161.5,135.7813 Q162.0938,135.5 162.7188,134.9219 L162.7188,137.6406 Z "/><text fill="#000000" font-family="sans-serif" font-size="12" lengthAdjust="spacingAndGlyphs" textLength="90" x="180.25" y="136.1543">DetectionArea</text><line style="stroke: #A80036; stroke-width: 1.5;" x1="7" x2="411" y1="148" y2="148"/><ellipse cx="17" cy="159" fill="none" rx="3" ry="3" style="stroke: #038048; stroke-width: 1.0;"/><text fill="#000000" font-family="sans-serif" font-size="11" lengthAdjust="spacingAndGlyphs" textLength="380" x="26" y="162.2104">«event» OnAreaEnter,OnAreaStay,OnAreaExit : Action&lt;Collider2D&gt;</text><line style="stroke: #A80036; stroke-width: 1.5;" x1="7" x2="411" y1="168.8047" y2="168.8047"/><ellipse cx="17" cy="179.8047" fill="#84BE84" rx="3" ry="3" style="stroke: #038048; stroke-width: 1.0;"/><text fill="#000000" font-family="sans-serif" font-size="11" lengthAdjust="spacingAndGlyphs" textLength="253" x="26" y="183.0151">OnTriggerEnter2D(collision:Collider2D) : void</text><ellipse cx="17" cy="192.6094" fill="#84BE84" rx="3" ry="3" style="stroke: #038048; stroke-width: 1.0;"/><text fill="#000000" font-family="sans-serif" font-size="11" lengthAdjust="spacingAndGlyphs" textLength="248" x="26" y="195.8198">OnTriggerStay2D(collision:Collider2D) : void</text><ellipse cx="17" cy="205.4141" fill="#84BE84" rx="3" ry="3" style="stroke: #038048; stroke-width: 1.0;"/><text fill="#000000" font-family="sans-serif" font-size="11" lengthAdjust="spacingAndGlyphs" textLength="243" x="26" y="208.6245">OnTriggerExit2D(collision:Collider2D) : void</text><!--MD5=[83b3cf3d23d77c6f1e1b5291a241bc2a]
class MonoBehaviour--><rect fill="#FEFECE" filter="url(#f4tnzoupynub7)" height="48" id="MonoBehaviour" style="stroke: #A80036; stroke-width: 1.5;" width="128" x="145" y="8"/><ellipse cx="160" cy="24" fill="#ADD1B2" rx="11" ry="11" style="stroke: #A80036; stroke-width: 1.0;"/><path d="M162.9688,29.6406 Q162.3906,29.9375 161.75,30.0781 Q161.1094,30.2344 160.4063,30.2344 Q157.9063,30.2344 156.5781,28.5938 Q155.2656,26.9375 155.2656,23.8125 Q155.2656,20.6875 156.5781,19.0313 Q157.9063,17.375 160.4063,17.375 Q161.1094,17.375 161.75,17.5313 Q162.4063,17.6875 162.9688,17.9844 L162.9688,20.7031 Q162.3438,20.125 161.75,19.8594 Q161.1563,19.5781 160.5313,19.5781 Q159.1875,19.5781 158.5,20.6563 Q157.8125,21.7188 157.8125,23.8125 Q157.8125,25.9063 158.5,26.9844 Q159.1875,28.0469 160.5313,28.0469 Q161.1563,28.0469 161.75,27.7813 Q162.3438,27.5 162.9688,26.9219 L162.9688,29.6406 Z "/><text fill="#000000" font-family="sans-serif" font-size="12" lengthAdjust="spacingAndGlyphs" textLength="96" x="174" y="28.1543">MonoBehaviour</text><line style="stroke: #A80036; stroke-width: 1.5;" x1="146" x2="272" y1="40" y2="40"/><line style="stroke: #A80036; stroke-width: 1.5;" x1="146" x2="272" y1="48" y2="48"/><!--MD5=[57b682486f9899c800befafbe8c7e98b]
reverse link MonoBehaviour to DetectionArea--><path d="M209,76.51 C209,89.14 209,103.01 209,115.93 " fill="none" id="MonoBehaviour&lt;-DetectionArea" style="stroke: #A80036; stroke-width: 1.0;"/><polygon fill="none" points="202,76.21,209,56.21,216,76.21,202,76.21" style="stroke: #A80036; stroke-width: 1.0;"/><!--MD5=[ae7bef3ab5f307b9298e0b2d4722d24f]
@startuml
class DetectionArea {
    +  <<event>> OnAreaEnter,OnAreaStay,OnAreaExit : Action<Collider2D> 
    + OnTriggerEnter2D(collision:Collider2D) : void
    + OnTriggerStay2D(collision:Collider2D) : void
    + OnTriggerExit2D(collision:Collider2D) : void
}
MonoBehaviour <|- - DetectionArea
@enduml

PlantUML version 1.2020.02(Sun Mar 01 10:22:07 GMT 2020)
(GPL source distribution)
Java Runtime: OpenJDK Runtime Environment
JVM: OpenJDK 64-Bit Server VM
Java Version: 11.0.9+11-Ubuntu-0ubuntu1
Operating System: Linux
Default Encoding: ANSI_X3.4-1968
Language: en
Country: US
--></g></svg>