<?xml version="1.0" encoding="UTF-8" standalone="no"?><svg xmlns="http://www.w3.org/2000/svg" xmlns:xlink="http://www.w3.org/1999/xlink" contentScriptType="application/ecmascript" contentStyleType="text/css" height="334px" preserveAspectRatio="none" style="width:248px;height:334px;" version="1.1" viewBox="0 0 248 334" width="248px" zoomAndPan="magnify"><defs><filter height="300%" id="fwb7lwougr2rc" width="300%" x="-1" y="-1"><feGaussianBlur result="blurOut" stdDeviation="2.0"/><feColorMatrix in="blurOut" result="blurOut2" type="matrix" values="0 0 0 0 0 0 0 0 0 0 0 0 0 0 0 0 0 0 .4 0"/><feOffset dx="4.0" dy="4.0" in="blurOut2" result="blurOut3"/><feBlend in="SourceGraphic" in2="blurOut3" mode="normal"/></filter></defs><g><!--MD5=[c45d0e7ede71b8b94ccfeee376c435a1]
class EnemyGhostController--><rect fill="#FEFECE" filter="url(#fwb7lwougr2rc)" height="99.2188" id="EnemyGhostController" style="stroke: #A80036; stroke-width: 1.5;" width="171" x="40.5" y="116"/><ellipse cx="55.5" cy="132" fill="#ADD1B2" rx="11" ry="11" style="stroke: #A80036; stroke-width: 1.0;"/><path d="M58.4688,137.6406 Q57.8906,137.9375 57.25,138.0781 Q56.6094,138.2344 55.9063,138.2344 Q53.4063,138.2344 52.0781,136.5938 Q50.7656,134.9375 50.7656,131.8125 Q50.7656,128.6875 52.0781,127.0313 Q53.4063,125.375 55.9063,125.375 Q56.6094,125.375 57.25,125.5313 Q57.9063,125.6875 58.4688,125.9844 L58.4688,128.7031 Q57.8438,128.125 57.25,127.8594 Q56.6563,127.5781 56.0313,127.5781 Q54.6875,127.5781 54,128.6563 Q53.3125,129.7188 53.3125,131.8125 Q53.3125,133.9063 54,134.9844 Q54.6875,136.0469 56.0313,136.0469 Q56.6563,136.0469 57.25,135.7813 Q57.8438,135.5 58.4688,134.9219 L58.4688,137.6406 Z "/><text fill="#000000" font-family="sans-serif" font-size="12" lengthAdjust="spacingAndGlyphs" textLength="139" x="69.5" y="136.1543">EnemyGhostController</text><line style="stroke: #A80036; stroke-width: 1.5;" x1="41.5" x2="210.5" y1="148" y2="148"/><line style="stroke: #A80036; stroke-width: 1.5;" x1="41.5" x2="210.5" y1="156" y2="156"/><ellipse cx="51.5" cy="167" fill="#84BE84" rx="3" ry="3" style="stroke: #038048; stroke-width: 1.0;"/><text fill="#000000" font-family="sans-serif" font-size="11" lengthAdjust="spacingAndGlyphs" textLength="71" x="60.5" y="170.2104">Start() : void</text><ellipse cx="51.5" cy="179.8047" fill="#84BE84" rx="3" ry="3" style="stroke: #038048; stroke-width: 1.0;"/><text fill="#000000" font-family="sans-serif" font-size="11" lengthAdjust="spacingAndGlyphs" textLength="83" x="60.5" y="183.0151">Update() : void</text><ellipse cx="51.5" cy="192.6094" fill="#84BE84" rx="3" ry="3" style="stroke: #038048; stroke-width: 1.0;"/><text fill="#000000" font-family="sans-serif" font-size="11" lengthAdjust="spacingAndGlyphs" textLength="93" x="60.5" y="195.8198">RunAway() : void</text><ellipse cx="51.5" cy="205.4141" fill="#84BE84" rx="3" ry="3" style="stroke: #038048; stroke-width: 1.0;"/><text fill="#000000" font-family="sans-serif" font-size="11" lengthAdjust="spacingAndGlyphs" textLength="112" x="60.5" y="208.6245">FixedUpdate() : void</text><!--MD5=[83b3cf3d23d77c6f1e1b5291a241bc2a]
class MonoBehaviour--><rect fill="#FEFECE" filter="url(#fwb7lwougr2rc)" height="48" id="MonoBehaviour" style="stroke: #A80036; stroke-width: 1.5;" width="128" x="62" y="8"/><ellipse cx="77" cy="24" fill="#ADD1B2" rx="11" ry="11" style="stroke: #A80036; stroke-width: 1.0;"/><path d="M79.9688,29.6406 Q79.3906,29.9375 78.75,30.0781 Q78.1094,30.2344 77.4063,30.2344 Q74.9063,30.2344 73.5781,28.5938 Q72.2656,26.9375 72.2656,23.8125 Q72.2656,20.6875 73.5781,19.0313 Q74.9063,17.375 77.4063,17.375 Q78.1094,17.375 78.75,17.5313 Q79.4063,17.6875 79.9688,17.9844 L79.9688,20.7031 Q79.3438,20.125 78.75,19.8594 Q78.1563,19.5781 77.5313,19.5781 Q76.1875,19.5781 75.5,20.6563 Q74.8125,21.7188 74.8125,23.8125 Q74.8125,25.9063 75.5,26.9844 Q76.1875,28.0469 77.5313,28.0469 Q78.1563,28.0469 78.75,27.7813 Q79.3438,27.5 79.9688,26.9219 L79.9688,29.6406 Z "/><text fill="#000000" font-family="sans-serif" font-size="12" lengthAdjust="spacingAndGlyphs" textLength="96" x="91" y="28.1543">MonoBehaviour</text><line style="stroke: #A80036; stroke-width: 1.5;" x1="63" x2="189" y1="40" y2="40"/><line style="stroke: #A80036; stroke-width: 1.5;" x1="63" x2="189" y1="48" y2="48"/><!--MD5=[064f7a74fee85463ec1a30143664ee17]
class GameObject--><rect fill="#FEFECE" filter="url(#fwb7lwougr2rc)" height="48" id="GameObject" style="stroke: #A80036; stroke-width: 1.5;" width="108" x="6" y="275"/><ellipse cx="21" cy="291" fill="#ADD1B2" rx="11" ry="11" style="stroke: #A80036; stroke-width: 1.0;"/><path d="M23.9688,296.6406 Q23.3906,296.9375 22.75,297.0781 Q22.1094,297.2344 21.4063,297.2344 Q18.9063,297.2344 17.5781,295.5938 Q16.2656,293.9375 16.2656,290.8125 Q16.2656,287.6875 17.5781,286.0313 Q18.9063,284.375 21.4063,284.375 Q22.1094,284.375 22.75,284.5313 Q23.4063,284.6875 23.9688,284.9844 L23.9688,287.7031 Q23.3438,287.125 22.75,286.8594 Q22.1563,286.5781 21.5313,286.5781 Q20.1875,286.5781 19.5,287.6563 Q18.8125,288.7188 18.8125,290.8125 Q18.8125,292.9063 19.5,293.9844 Q20.1875,295.0469 21.5313,295.0469 Q22.1563,295.0469 22.75,294.7813 Q23.3438,294.5 23.9688,293.9219 L23.9688,296.6406 Z "/><text fill="#000000" font-family="sans-serif" font-size="12" lengthAdjust="spacingAndGlyphs" textLength="76" x="35" y="295.1543">GameObject</text><line style="stroke: #A80036; stroke-width: 1.5;" x1="7" x2="113" y1="307" y2="307"/><line style="stroke: #A80036; stroke-width: 1.5;" x1="7" x2="113" y1="315" y2="315"/><!--MD5=[8b805049d0499e23d33da8a1efc9f54d]
class Animator--><rect fill="#FEFECE" filter="url(#fwb7lwougr2rc)" height="48" id="Animator" style="stroke: #A80036; stroke-width: 1.5;" width="88" x="149" y="275"/><ellipse cx="164" cy="291" fill="#ADD1B2" rx="11" ry="11" style="stroke: #A80036; stroke-width: 1.0;"/><path d="M166.9688,296.6406 Q166.3906,296.9375 165.75,297.0781 Q165.1094,297.2344 164.4063,297.2344 Q161.9063,297.2344 160.5781,295.5938 Q159.2656,293.9375 159.2656,290.8125 Q159.2656,287.6875 160.5781,286.0313 Q161.9063,284.375 164.4063,284.375 Q165.1094,284.375 165.75,284.5313 Q166.4063,284.6875 166.9688,284.9844 L166.9688,287.7031 Q166.3438,287.125 165.75,286.8594 Q165.1563,286.5781 164.5313,286.5781 Q163.1875,286.5781 162.5,287.6563 Q161.8125,288.7188 161.8125,290.8125 Q161.8125,292.9063 162.5,293.9844 Q163.1875,295.0469 164.5313,295.0469 Q165.1563,295.0469 165.75,294.7813 Q166.3438,294.5 166.9688,293.9219 L166.9688,296.6406 Z "/><text fill="#000000" font-family="sans-serif" font-size="12" lengthAdjust="spacingAndGlyphs" textLength="56" x="178" y="295.1543">Animator</text><line style="stroke: #A80036; stroke-width: 1.5;" x1="150" x2="236" y1="307" y2="307"/><line style="stroke: #A80036; stroke-width: 1.5;" x1="150" x2="236" y1="315" y2="315"/><!--MD5=[d60f786a965c1ee8bb8e436b444c4706]
reverse link MonoBehaviour to EnemyGhostController--><path d="M126,76.51 C126,89.14 126,103.01 126,115.93 " fill="none" id="MonoBehaviour&lt;-EnemyGhostController" style="stroke: #A80036; stroke-width: 1.0;"/><polygon fill="none" points="119,76.21,126,56.21,133,76.21,119,76.21" style="stroke: #A80036; stroke-width: 1.0;"/><!--MD5=[d6163b7db74b7220b3297b7811367876]
link EnemyGhostController to GameObject--><path d="M101.61,215.09 C92.29,233.66 81.99,254.18 73.97,270.17 " fill="none" id="EnemyGhostController-&gt;GameObject" style="stroke: #A80036; stroke-width: 1.0;"/><polygon fill="#A80036" points="71.56,274.98,79.1706,268.7287,73.8018,270.5107,72.0198,265.1419,71.56,274.98" style="stroke: #A80036; stroke-width: 1.0;"/><text fill="#000000" font-family="sans-serif" font-size="13" lengthAdjust="spacingAndGlyphs" textLength="39" x="30.5254" y="263.9869">target</text><!--MD5=[c9e516d0a3bc5598bfb554e0fad4c53b]
link EnemyGhostController to Animator--><path d="M150.76,215.09 C160.22,233.66 170.68,254.18 178.82,270.17 " fill="none" id="EnemyGhostController-&gt;Animator" style="stroke: #A80036; stroke-width: 1.0;"/><polygon fill="#A80036" points="181.27,274.98,180.7474,265.145,178.9997,270.5251,173.6196,268.7774,181.27,274.98" style="stroke: #A80036; stroke-width: 1.0;"/><text fill="#000000" font-family="sans-serif" font-size="13" lengthAdjust="spacingAndGlyphs" textLength="58" x="112.8329" y="263.9869">animator</text><!--MD5=[c7f2ee544d34ace5cbc2b8ceaf6f0d68]
@startuml
class EnemyGhostController {
    + Start() : void
    + Update() : void
    + RunAway() : void
    + FixedUpdate() : void
}
MonoBehaviour <|- - EnemyGhostController
EnemyGhostController - -> "target" GameObject
EnemyGhostController - -> "animator" Animator
@enduml

PlantUML version 1.2020.02(Sun Mar 01 10:22:07 GMT 2020)
(GPL source distribution)
Java Runtime: OpenJDK Runtime Environment
JVM: OpenJDK 64-Bit Server VM
Java Version: 11.0.9+11-Ubuntu-0ubuntu1
Operating System: Linux
Default Encoding: ANSI_X3.4-1968
Language: en
Country: US
--></g></svg>