<?xml version="1.0" encoding="UTF-8" standalone="no"?><svg xmlns="http://www.w3.org/2000/svg" xmlns:xlink="http://www.w3.org/1999/xlink" contentScriptType="application/ecmascript" contentStyleType="text/css" height="213px" preserveAspectRatio="none" style="width:239px;height:213px;" version="1.1" viewBox="0 0 239 213" width="239px" zoomAndPan="magnify"><defs><filter height="300%" id="fzofn9ttrkmut" width="300%" x="-1" y="-1"><feGaussianBlur result="blurOut" stdDeviation="2.0"/><feColorMatrix in="blurOut" result="blurOut2" type="matrix" values="0 0 0 0 0 0 0 0 0 0 0 0 0 0 0 0 0 0 .4 0"/><feOffset dx="4.0" dy="4.0" in="blurOut2" result="blurOut3"/><feBlend in="SourceGraphic" in2="blurOut3" mode="normal"/></filter></defs><g><!--MD5=[fd10b1e8b1459b205f41116d1796d8e1]
class SimpleMeleeAttackComponent--><rect fill="#FEFECE" filter="url(#fzofn9ttrkmut)" height="86.4141" id="SimpleMeleeAttackComponent" style="stroke: #A80036; stroke-width: 1.5;" width="222" x="6" y="116"/><ellipse cx="21" cy="132" fill="#ADD1B2" rx="11" ry="11" style="stroke: #A80036; stroke-width: 1.0;"/><path d="M23.9688,137.6406 Q23.3906,137.9375 22.75,138.0781 Q22.1094,138.2344 21.4063,138.2344 Q18.9063,138.2344 17.5781,136.5938 Q16.2656,134.9375 16.2656,131.8125 Q16.2656,128.6875 17.5781,127.0313 Q18.9063,125.375 21.4063,125.375 Q22.1094,125.375 22.75,125.5313 Q23.4063,125.6875 23.9688,125.9844 L23.9688,128.7031 Q23.3438,128.125 22.75,127.8594 Q22.1563,127.5781 21.5313,127.5781 Q20.1875,127.5781 19.5,128.6563 Q18.8125,129.7188 18.8125,131.8125 Q18.8125,133.9063 19.5,134.9844 Q20.1875,136.0469 21.5313,136.0469 Q22.1563,136.0469 22.75,135.7813 Q23.3438,135.5 23.9688,134.9219 L23.9688,137.6406 Z "/><text fill="#000000" font-family="sans-serif" font-size="12" lengthAdjust="spacingAndGlyphs" textLength="190" x="35" y="136.1543">SimpleMeleeAttackComponent</text><line style="stroke: #A80036; stroke-width: 1.5;" x1="7" x2="227" y1="148" y2="148"/><line style="stroke: #A80036; stroke-width: 1.5;" x1="7" x2="227" y1="156" y2="156"/><ellipse cx="17" cy="167" fill="#84BE84" rx="3" ry="3" style="stroke: #038048; stroke-width: 1.0;"/><text fill="#000000" font-family="sans-serif" font-size="11" lengthAdjust="spacingAndGlyphs" textLength="79" x="26" y="170.2104">Awake() : void</text><ellipse cx="17" cy="179.8047" fill="#84BE84" rx="3" ry="3" style="stroke: #038048; stroke-width: 1.0;"/><text fill="#000000" font-family="sans-serif" font-size="11" lengthAdjust="spacingAndGlyphs" textLength="77" x="26" y="183.0151">Attack() : void</text><ellipse cx="17" cy="192.6094" fill="#84BE84" rx="3" ry="3" style="stroke: #038048; stroke-width: 1.0;"/><text fill="#000000" font-family="sans-serif" font-size="11" lengthAdjust="spacingAndGlyphs" textLength="105" x="26" y="195.8198">DoDamage() : void</text><!--MD5=[83b3cf3d23d77c6f1e1b5291a241bc2a]
class MonoBehaviour--><rect fill="#FEFECE" filter="url(#fzofn9ttrkmut)" height="48" id="MonoBehaviour" style="stroke: #A80036; stroke-width: 1.5;" width="128" x="53" y="8"/><ellipse cx="68" cy="24" fill="#ADD1B2" rx="11" ry="11" style="stroke: #A80036; stroke-width: 1.0;"/><path d="M70.9688,29.6406 Q70.3906,29.9375 69.75,30.0781 Q69.1094,30.2344 68.4063,30.2344 Q65.9063,30.2344 64.5781,28.5938 Q63.2656,26.9375 63.2656,23.8125 Q63.2656,20.6875 64.5781,19.0313 Q65.9063,17.375 68.4063,17.375 Q69.1094,17.375 69.75,17.5313 Q70.4063,17.6875 70.9688,17.9844 L70.9688,20.7031 Q70.3438,20.125 69.75,19.8594 Q69.1563,19.5781 68.5313,19.5781 Q67.1875,19.5781 66.5,20.6563 Q65.8125,21.7188 65.8125,23.8125 Q65.8125,25.9063 66.5,26.9844 Q67.1875,28.0469 68.5313,28.0469 Q69.1563,28.0469 69.75,27.7813 Q70.3438,27.5 70.9688,26.9219 L70.9688,29.6406 Z "/><text fill="#000000" font-family="sans-serif" font-size="12" lengthAdjust="spacingAndGlyphs" textLength="96" x="82" y="28.1543">MonoBehaviour</text><line style="stroke: #A80036; stroke-width: 1.5;" x1="54" x2="180" y1="40" y2="40"/><line style="stroke: #A80036; stroke-width: 1.5;" x1="54" x2="180" y1="48" y2="48"/><!--MD5=[f0e52d5316762e93cd20f835ad3e1347]
reverse link MonoBehaviour to SimpleMeleeAttackComponent--><path d="M117,76.27 C117,89.12 117,103.17 117,115.94 " fill="none" id="MonoBehaviour&lt;-SimpleMeleeAttackComponent" style="stroke: #A80036; stroke-width: 1.0;"/><polygon fill="none" points="110,76.22,117,56.22,124,76.22,110,76.22" style="stroke: #A80036; stroke-width: 1.0;"/><!--MD5=[ac94b0fa5474f94ed1b21d8780272477]
@startuml
class SimpleMeleeAttackComponent {
    + Awake() : void
    + Attack() : void
    + DoDamage() : void
}
MonoBehaviour <|- - SimpleMeleeAttackComponent
@enduml

PlantUML version 1.2020.02(Sun Mar 01 10:22:07 GMT 2020)
(GPL source distribution)
Java Runtime: OpenJDK Runtime Environment
JVM: OpenJDK 64-Bit Server VM
Java Version: 11.0.9+11-Ubuntu-0ubuntu1
Operating System: Linux
Default Encoding: ANSI_X3.4-1968
Language: en
Country: US
--></g></svg>