<?xml version="1.0" encoding="UTF-8" standalone="no"?><svg xmlns="http://www.w3.org/2000/svg" xmlns:xlink="http://www.w3.org/1999/xlink" contentScriptType="application/ecmascript" contentStyleType="text/css" height="187px" preserveAspectRatio="none" style="width:516px;height:187px;" version="1.1" viewBox="0 0 516 187" width="516px" zoomAndPan="magnify"><defs><filter height="300%" id="f1rrgahuga3c9e" width="300%" x="-1" y="-1"><feGaussianBlur result="blurOut" stdDeviation="2.0"/><feColorMatrix in="blurOut" result="blurOut2" type="matrix" values="0 0 0 0 0 0 0 0 0 0 0 0 0 0 0 0 0 0 .4 0"/><feOffset dx="4.0" dy="4.0" in="blurOut2" result="blurOut3"/><feBlend in="SourceGraphic" in2="blurOut3" mode="normal"/></filter></defs><g><!--MD5=[7b08d06b02f7db32ab19f98028ca4af7]
class ItemDropActionSO--><rect fill="#FEFECE" filter="url(#f1rrgahuga3c9e)" height="60.8047" id="ItemDropActionSO" style="stroke: #A80036; stroke-width: 1.5;" width="499" x="6" y="116"/><ellipse cx="194.75" cy="132" fill="#ADD1B2" rx="11" ry="11" style="stroke: #A80036; stroke-width: 1.0;"/><path d="M197.7188,137.6406 Q197.1406,137.9375 196.5,138.0781 Q195.8594,138.2344 195.1563,138.2344 Q192.6563,138.2344 191.3281,136.5938 Q190.0156,134.9375 190.0156,131.8125 Q190.0156,128.6875 191.3281,127.0313 Q192.6563,125.375 195.1563,125.375 Q195.8594,125.375 196.5,125.5313 Q197.1563,125.6875 197.7188,125.9844 L197.7188,128.7031 Q197.0938,128.125 196.5,127.8594 Q195.9063,127.5781 195.2813,127.5781 Q193.9375,127.5781 193.25,128.6563 Q192.5625,129.7188 192.5625,131.8125 Q192.5625,133.9063 193.25,134.9844 Q193.9375,136.0469 195.2813,136.0469 Q195.9063,136.0469 196.5,135.7813 Q197.0938,135.5 197.7188,134.9219 L197.7188,137.6406 Z "/><text fill="#000000" font-family="sans-serif" font-size="12" lengthAdjust="spacingAndGlyphs" textLength="113" x="215.25" y="136.1543">ItemDropActionSO</text><line style="stroke: #A80036; stroke-width: 1.5;" x1="7" x2="504" y1="148" y2="148"/><line style="stroke: #A80036; stroke-width: 1.5;" x1="7" x2="504" y1="156" y2="156"/><ellipse cx="17" cy="167" fill="#84BE84" rx="3" ry="3" style="stroke: #038048; stroke-width: 1.0;"/><text fill="#000000" font-family="sans-serif" font-size="11" lengthAdjust="spacingAndGlyphs" textLength="473" x="26" y="170.2104">«override» PerformAction(input:ActionInput, itemState:List&lt;ItemParameter&gt;) : bool</text><!--MD5=[b02c16c2283335582eda26579a38e593]
class ItemActionSO--><rect fill="#FEFECE" filter="url(#f1rrgahuga3c9e)" height="48" id="ItemActionSO" style="stroke: #A80036; stroke-width: 1.5;" width="115" x="198" y="8"/><ellipse cx="213" cy="24" fill="#ADD1B2" rx="11" ry="11" style="stroke: #A80036; stroke-width: 1.0;"/><path d="M215.9688,29.6406 Q215.3906,29.9375 214.75,30.0781 Q214.1094,30.2344 213.4063,30.2344 Q210.9063,30.2344 209.5781,28.5938 Q208.2656,26.9375 208.2656,23.8125 Q208.2656,20.6875 209.5781,19.0313 Q210.9063,17.375 213.4063,17.375 Q214.1094,17.375 214.75,17.5313 Q215.4063,17.6875 215.9688,17.9844 L215.9688,20.7031 Q215.3438,20.125 214.75,19.8594 Q214.1563,19.5781 213.5313,19.5781 Q212.1875,19.5781 211.5,20.6563 Q210.8125,21.7188 210.8125,23.8125 Q210.8125,25.9063 211.5,26.9844 Q212.1875,28.0469 213.5313,28.0469 Q214.1563,28.0469 214.75,27.7813 Q215.3438,27.5 215.9688,26.9219 L215.9688,29.6406 Z "/><text fill="#000000" font-family="sans-serif" font-size="12" lengthAdjust="spacingAndGlyphs" textLength="83" x="227" y="28.1543">ItemActionSO</text><line style="stroke: #A80036; stroke-width: 1.5;" x1="199" x2="312" y1="40" y2="40"/><line style="stroke: #A80036; stroke-width: 1.5;" x1="199" x2="312" y1="48" y2="48"/><!--MD5=[a05865c7a8fcbde53e72622640f8fda0]
reverse link ItemActionSO to ItemDropActionSO--><path d="M255.5,76.11 C255.5,89.31 255.5,103.54 255.5,115.65 " fill="none" id="ItemActionSO&lt;-ItemDropActionSO" style="stroke: #A80036; stroke-width: 1.0;"/><polygon fill="none" points="248.5,76.04,255.5,56.04,262.5,76.04,248.5,76.04" style="stroke: #A80036; stroke-width: 1.0;"/><!--MD5=[4240c9462a422c71fcc917448636c394]
@startuml
class ItemDropActionSO {
    + <<override>> PerformAction(input:ActionInput, itemState:List<ItemParameter>) : bool
}
ItemActionSO <|- - ItemDropActionSO
@enduml

PlantUML version 1.2020.02(Sun Mar 01 10:22:07 GMT 2020)
(GPL source distribution)
Java Runtime: OpenJDK Runtime Environment
JVM: OpenJDK 64-Bit Server VM
Java Version: 11.0.9+11-Ubuntu-0ubuntu1
Operating System: Linux
Default Encoding: ANSI_X3.4-1968
Language: en
Country: US
--></g></svg>