<?xml version="1.0" encoding="UTF-8" standalone="no"?><svg xmlns="http://www.w3.org/2000/svg" xmlns:xlink="http://www.w3.org/1999/xlink" contentScriptType="application/ecmascript" contentStyleType="text/css" height="187px" preserveAspectRatio="none" style="width:266px;height:187px;" version="1.1" viewBox="0 0 266 187" width="266px" zoomAndPan="magnify"><defs><filter height="300%" id="f5i9n1tu0vxzs" width="300%" x="-1" y="-1"><feGaussianBlur result="blurOut" stdDeviation="2.0"/><feColorMatrix in="blurOut" result="blurOut2" type="matrix" values="0 0 0 0 0 0 0 0 0 0 0 0 0 0 0 0 0 0 .4 0"/><feOffset dx="4.0" dy="4.0" in="blurOut2" result="blurOut3"/><feBlend in="SourceGraphic" in2="blurOut3" mode="normal"/></filter></defs><g><!--MD5=[2ca6755e0ba241fddc2d69f24b035e42]
class InteractionArea--><rect fill="#FEFECE" filter="url(#f5i9n1tu0vxzs)" height="60.8047" id="InteractionArea" style="stroke: #A80036; stroke-width: 1.5;" width="249" x="6" y="116"/><ellipse cx="77.75" cy="132" fill="#ADD1B2" rx="11" ry="11" style="stroke: #A80036; stroke-width: 1.0;"/><path d="M80.7188,137.6406 Q80.1406,137.9375 79.5,138.0781 Q78.8594,138.2344 78.1563,138.2344 Q75.6563,138.2344 74.3281,136.5938 Q73.0156,134.9375 73.0156,131.8125 Q73.0156,128.6875 74.3281,127.0313 Q75.6563,125.375 78.1563,125.375 Q78.8594,125.375 79.5,125.5313 Q80.1563,125.6875 80.7188,125.9844 L80.7188,128.7031 Q80.0938,128.125 79.5,127.8594 Q78.9063,127.5781 78.2813,127.5781 Q76.9375,127.5781 76.25,128.6563 Q75.5625,129.7188 75.5625,131.8125 Q75.5625,133.9063 76.25,134.9844 Q76.9375,136.0469 78.2813,136.0469 Q78.9063,136.0469 79.5,135.7813 Q80.0938,135.5 80.7188,134.9219 L80.7188,137.6406 Z "/><text fill="#000000" font-family="sans-serif" font-size="12" lengthAdjust="spacingAndGlyphs" textLength="97" x="98.25" y="136.1543">InteractionArea</text><line style="stroke: #A80036; stroke-width: 1.5;" x1="7" x2="254" y1="148" y2="148"/><line style="stroke: #A80036; stroke-width: 1.5;" x1="7" x2="254" y1="156" y2="156"/><ellipse cx="17" cy="167" fill="#84BE84" rx="3" ry="3" style="stroke: #038048; stroke-width: 1.0;"/><text fill="#000000" font-family="sans-serif" font-size="11" lengthAdjust="spacingAndGlyphs" textLength="223" x="26" y="170.2104">GetCurrentItems() : List&lt;GameObject&gt;</text><!--MD5=[83b3cf3d23d77c6f1e1b5291a241bc2a]
class MonoBehaviour--><rect fill="#FEFECE" filter="url(#f5i9n1tu0vxzs)" height="48" id="MonoBehaviour" style="stroke: #A80036; stroke-width: 1.5;" width="128" x="66.5" y="8"/><ellipse cx="81.5" cy="24" fill="#ADD1B2" rx="11" ry="11" style="stroke: #A80036; stroke-width: 1.0;"/><path d="M84.4688,29.6406 Q83.8906,29.9375 83.25,30.0781 Q82.6094,30.2344 81.9063,30.2344 Q79.4063,30.2344 78.0781,28.5938 Q76.7656,26.9375 76.7656,23.8125 Q76.7656,20.6875 78.0781,19.0313 Q79.4063,17.375 81.9063,17.375 Q82.6094,17.375 83.25,17.5313 Q83.9063,17.6875 84.4688,17.9844 L84.4688,20.7031 Q83.8438,20.125 83.25,19.8594 Q82.6563,19.5781 82.0313,19.5781 Q80.6875,19.5781 80,20.6563 Q79.3125,21.7188 79.3125,23.8125 Q79.3125,25.9063 80,26.9844 Q80.6875,28.0469 82.0313,28.0469 Q82.6563,28.0469 83.25,27.7813 Q83.8438,27.5 84.4688,26.9219 L84.4688,29.6406 Z "/><text fill="#000000" font-family="sans-serif" font-size="12" lengthAdjust="spacingAndGlyphs" textLength="96" x="95.5" y="28.1543">MonoBehaviour</text><line style="stroke: #A80036; stroke-width: 1.5;" x1="67.5" x2="193.5" y1="40" y2="40"/><line style="stroke: #A80036; stroke-width: 1.5;" x1="67.5" x2="193.5" y1="48" y2="48"/><!--MD5=[7500a16164214e54b8be4364752024c2]
reverse link MonoBehaviour to InteractionArea--><path d="M130.5,76.11 C130.5,89.31 130.5,103.54 130.5,115.65 " fill="none" id="MonoBehaviour&lt;-InteractionArea" style="stroke: #A80036; stroke-width: 1.0;"/><polygon fill="none" points="123.5,76.04,130.5,56.04,137.5,76.04,123.5,76.04" style="stroke: #A80036; stroke-width: 1.0;"/><!--MD5=[e8d3b476155098910ca0c183018dddbe]
@startuml
class InteractionArea {
    + GetCurrentItems() : List<GameObject>
}
MonoBehaviour <|- - InteractionArea
@enduml

PlantUML version 1.2020.02(Sun Mar 01 10:22:07 GMT 2020)
(GPL source distribution)
Java Runtime: OpenJDK Runtime Environment
JVM: OpenJDK 64-Bit Server VM
Java Version: 11.0.9+11-Ubuntu-0ubuntu1
Operating System: Linux
Default Encoding: ANSI_X3.4-1968
Language: en
Country: US
--></g></svg>