<?xml version="1.0" encoding="UTF-8" standalone="no"?><svg xmlns="http://www.w3.org/2000/svg" xmlns:xlink="http://www.w3.org/1999/xlink" contentScriptType="application/ecmascript" contentStyleType="text/css" height="187px" preserveAspectRatio="none" style="width:469px;height:187px;" version="1.1" viewBox="0 0 469 187" width="469px" zoomAndPan="magnify"><defs><filter height="300%" id="f1w81iseg8x2p1" width="300%" x="-1" y="-1"><feGaussianBlur result="blurOut" stdDeviation="2.0"/><feColorMatrix in="blurOut" result="blurOut2" type="matrix" values="0 0 0 0 0 0 0 0 0 0 0 0 0 0 0 0 0 0 .4 0"/><feOffset dx="4.0" dy="4.0" in="blurOut2" result="blurOut3"/><feBlend in="SourceGraphic" in2="blurOut3" mode="normal"/></filter></defs><g><!--MD5=[5fb20e891559c28886d3521ad2d14f19]
class InventoryController--><rect fill="#FEFECE" filter="url(#f1w81iseg8x2p1)" height="60.8047" id="InventoryController" style="stroke: #A80036; stroke-width: 1.5;" width="150" x="6" y="116"/><ellipse cx="21" cy="132" fill="#ADD1B2" rx="11" ry="11" style="stroke: #A80036; stroke-width: 1.0;"/><path d="M23.9688,137.6406 Q23.3906,137.9375 22.75,138.0781 Q22.1094,138.2344 21.4063,138.2344 Q18.9063,138.2344 17.5781,136.5938 Q16.2656,134.9375 16.2656,131.8125 Q16.2656,128.6875 17.5781,127.0313 Q18.9063,125.375 21.4063,125.375 Q22.1094,125.375 22.75,125.5313 Q23.4063,125.6875 23.9688,125.9844 L23.9688,128.7031 Q23.3438,128.125 22.75,127.8594 Q22.1563,127.5781 21.5313,127.5781 Q20.1875,127.5781 19.5,128.6563 Q18.8125,129.7188 18.8125,131.8125 Q18.8125,133.9063 19.5,134.9844 Q20.1875,136.0469 21.5313,136.0469 Q22.1563,136.0469 22.75,135.7813 Q23.3438,135.5 23.9688,134.9219 L23.9688,137.6406 Z "/><text fill="#000000" font-family="sans-serif" font-size="12" lengthAdjust="spacingAndGlyphs" textLength="118" x="35" y="136.1543">InventoryController</text><line style="stroke: #A80036; stroke-width: 1.5;" x1="7" x2="155" y1="148" y2="148"/><line style="stroke: #A80036; stroke-width: 1.5;" x1="7" x2="155" y1="156" y2="156"/><ellipse cx="17" cy="167" fill="#84BE84" rx="3" ry="3" style="stroke: #038048; stroke-width: 1.0;"/><text fill="#000000" font-family="sans-serif" font-size="11" lengthAdjust="spacingAndGlyphs" textLength="83" x="26" y="170.2104">Update() : void</text><!--MD5=[e644022de7dea015dd09463c37421447]
class List`1--><rect fill="#FEFECE" filter="url(#f1w81iseg8x2p1)" height="48" id="List`1" style="stroke: #A80036; stroke-width: 1.5;" width="78" x="191" y="122.5"/><ellipse cx="206" cy="138.5" fill="#ADD1B2" rx="11" ry="11" style="stroke: #A80036; stroke-width: 1.0;"/><path d="M208.9688,144.1406 Q208.3906,144.4375 207.75,144.5781 Q207.1094,144.7344 206.4063,144.7344 Q203.9063,144.7344 202.5781,143.0938 Q201.2656,141.4375 201.2656,138.3125 Q201.2656,135.1875 202.5781,133.5313 Q203.9063,131.875 206.4063,131.875 Q207.1094,131.875 207.75,132.0313 Q208.4063,132.1875 208.9688,132.4844 L208.9688,135.2031 Q208.3438,134.625 207.75,134.3594 Q207.1563,134.0781 206.5313,134.0781 Q205.1875,134.0781 204.5,135.1563 Q203.8125,136.2188 203.8125,138.3125 Q203.8125,140.4063 204.5,141.4844 Q205.1875,142.5469 206.5313,142.5469 Q207.1563,142.5469 207.75,142.2813 Q208.3438,142 208.9688,141.4219 L208.9688,144.1406 Z "/><text fill="#000000" font-family="sans-serif" font-size="12" lengthAdjust="spacingAndGlyphs" textLength="35" x="220" y="142.6543">List`1</text><rect fill="#FFFFFF" height="15.9688" style="stroke: #000000; stroke-width: 1.0; stroke-dasharray: 2.0,2.0;" width="9" x="263" y="119.5"/><text fill="#000000" font-family="sans-serif" font-size="12" font-style="italic" lengthAdjust="spacingAndGlyphs" textLength="7" x="264" y="131.6387">T</text><line style="stroke: #A80036; stroke-width: 1.5;" x1="192" x2="268" y1="154.5" y2="154.5"/><line style="stroke: #A80036; stroke-width: 1.5;" x1="192" x2="268" y1="162.5" y2="162.5"/><!--MD5=[83b3cf3d23d77c6f1e1b5291a241bc2a]
class MonoBehaviour--><rect fill="#FEFECE" filter="url(#f1w81iseg8x2p1)" height="48" id="MonoBehaviour" style="stroke: #A80036; stroke-width: 1.5;" width="128" x="17" y="8"/><ellipse cx="32" cy="24" fill="#ADD1B2" rx="11" ry="11" style="stroke: #A80036; stroke-width: 1.0;"/><path d="M34.9688,29.6406 Q34.3906,29.9375 33.75,30.0781 Q33.1094,30.2344 32.4063,30.2344 Q29.9063,30.2344 28.5781,28.5938 Q27.2656,26.9375 27.2656,23.8125 Q27.2656,20.6875 28.5781,19.0313 Q29.9063,17.375 32.4063,17.375 Q33.1094,17.375 33.75,17.5313 Q34.4063,17.6875 34.9688,17.9844 L34.9688,20.7031 Q34.3438,20.125 33.75,19.8594 Q33.1563,19.5781 32.5313,19.5781 Q31.1875,19.5781 30.5,20.6563 Q29.8125,21.7188 29.8125,23.8125 Q29.8125,25.9063 30.5,26.9844 Q31.1875,28.0469 32.5313,28.0469 Q33.1563,28.0469 33.75,27.7813 Q34.3438,27.5 34.9688,26.9219 L34.9688,29.6406 Z "/><text fill="#000000" font-family="sans-serif" font-size="12" lengthAdjust="spacingAndGlyphs" textLength="96" x="46" y="28.1543">MonoBehaviour</text><line style="stroke: #A80036; stroke-width: 1.5;" x1="18" x2="144" y1="40" y2="40"/><line style="stroke: #A80036; stroke-width: 1.5;" x1="18" x2="144" y1="48" y2="48"/><!--MD5=[ed2106d47c076513e26c11cb60e5162d]
reverse link MonoBehaviour to InventoryController--><path d="M81,76.11 C81,89.31 81,103.54 81,115.65 " fill="none" id="MonoBehaviour&lt;-InventoryController" style="stroke: #A80036; stroke-width: 1.0;"/><polygon fill="none" points="74,76.04,81,56.04,88,76.04,74,76.04" style="stroke: #A80036; stroke-width: 1.0;"/><!--MD5=[9416cc31c2e4b59fd2f1c1b45a6eed24]
link InventoryController to List`1--><path d="M168.08,146.5 C168.08,146.5 174.92,146.5 177.7,146.5 " fill="none" id="InventoryController-List`1" style="stroke: #A80036; stroke-width: 1.0;"/><polygon fill="#A80036" points="190.73,146.5,181.73,142.5,185.73,146.5,181.73,150.5,190.73,146.5" style="stroke: #A80036; stroke-width: 1.0;"/><line style="stroke: #A80036; stroke-width: 1.0;" x1="185.73" x2="177.73" y1="146.5" y2="146.5"/><polygon fill="#FFFFFF" points="156.08,146.5,162.08,150.5,168.08,146.5,162.08,142.5,156.08,146.5" style="stroke: #A80036; stroke-width: 1.0;"/><text fill="#000000" font-family="sans-serif" font-size="13" lengthAdjust="spacingAndGlyphs" textLength="179" x="278.6325" y="130.5581">initialItems&lt;InventoryItem&gt;</text><!--MD5=[d93b6341e71e3b32ff6a14fa87d60a0e]
@startuml
class InventoryController {
    + Update() : void
}
class "List`1"<T> {
}
MonoBehaviour <|- - InventoryController
InventoryController o-> "initialItems<InventoryItem>" "List`1"
@enduml

PlantUML version 1.2020.02(Sun Mar 01 10:22:07 GMT 2020)
(GPL source distribution)
Java Runtime: OpenJDK Runtime Environment
JVM: OpenJDK 64-Bit Server VM
Java Version: 11.0.9+11-Ubuntu-0ubuntu1
Operating System: Linux
Default Encoding: ANSI_X3.4-1968
Language: en
Country: US
--></g></svg>