<?xml version="1.0" encoding="UTF-8" standalone="no"?><svg xmlns="http://www.w3.org/2000/svg" xmlns:xlink="http://www.w3.org/1999/xlink" contentScriptType="application/ecmascript" contentStyleType="text/css" height="200px" preserveAspectRatio="none" style="width:208px;height:200px;" version="1.1" viewBox="0 0 208 200" width="208px" zoomAndPan="magnify"><defs><filter height="300%" id="fl9ioqkg7rnyk" width="300%" x="-1" y="-1"><feGaussianBlur result="blurOut" stdDeviation="2.0"/><feColorMatrix in="blurOut" result="blurOut2" type="matrix" values="0 0 0 0 0 0 0 0 0 0 0 0 0 0 0 0 0 0 .4 0"/><feOffset dx="4.0" dy="4.0" in="blurOut2" result="blurOut3"/><feBlend in="SourceGraphic" in2="blurOut3" mode="normal"/></filter></defs><g><!--MD5=[f55a3b4867d097bb72401321aef73b7a]
class PickUpSystemComponent--><rect fill="#FEFECE" filter="url(#fl9ioqkg7rnyk)" height="73.6094" id="PickUpSystemComponent" style="stroke: #A80036; stroke-width: 1.5;" width="191" x="6" y="116"/><ellipse cx="21" cy="132" fill="#ADD1B2" rx="11" ry="11" style="stroke: #A80036; stroke-width: 1.0;"/><path d="M23.9688,137.6406 Q23.3906,137.9375 22.75,138.0781 Q22.1094,138.2344 21.4063,138.2344 Q18.9063,138.2344 17.5781,136.5938 Q16.2656,134.9375 16.2656,131.8125 Q16.2656,128.6875 17.5781,127.0313 Q18.9063,125.375 21.4063,125.375 Q22.1094,125.375 22.75,125.5313 Q23.4063,125.6875 23.9688,125.9844 L23.9688,128.7031 Q23.3438,128.125 22.75,127.8594 Q22.1563,127.5781 21.5313,127.5781 Q20.1875,127.5781 19.5,128.6563 Q18.8125,129.7188 18.8125,131.8125 Q18.8125,133.9063 19.5,134.9844 Q20.1875,136.0469 21.5313,136.0469 Q22.1563,136.0469 22.75,135.7813 Q23.3438,135.5 23.9688,134.9219 L23.9688,137.6406 Z "/><text fill="#000000" font-family="sans-serif" font-size="12" lengthAdjust="spacingAndGlyphs" textLength="159" x="35" y="136.1543">PickUpSystemComponent</text><line style="stroke: #A80036; stroke-width: 1.5;" x1="7" x2="196" y1="148" y2="148"/><line style="stroke: #A80036; stroke-width: 1.5;" x1="7" x2="196" y1="156" y2="156"/><ellipse cx="17" cy="167" fill="#84BE84" rx="3" ry="3" style="stroke: #038048; stroke-width: 1.0;"/><text fill="#000000" font-family="sans-serif" font-size="11" lengthAdjust="spacingAndGlyphs" textLength="79" x="26" y="170.2104">Awake() : void</text><ellipse cx="17" cy="179.8047" fill="#84BE84" rx="3" ry="3" style="stroke: #038048; stroke-width: 1.0;"/><text fill="#000000" font-family="sans-serif" font-size="11" lengthAdjust="spacingAndGlyphs" textLength="86" x="26" y="183.0151">Interact() : void</text><!--MD5=[83b3cf3d23d77c6f1e1b5291a241bc2a]
class MonoBehaviour--><rect fill="#FEFECE" filter="url(#fl9ioqkg7rnyk)" height="48" id="MonoBehaviour" style="stroke: #A80036; stroke-width: 1.5;" width="128" x="37.5" y="8"/><ellipse cx="52.5" cy="24" fill="#ADD1B2" rx="11" ry="11" style="stroke: #A80036; stroke-width: 1.0;"/><path d="M55.4688,29.6406 Q54.8906,29.9375 54.25,30.0781 Q53.6094,30.2344 52.9063,30.2344 Q50.4063,30.2344 49.0781,28.5938 Q47.7656,26.9375 47.7656,23.8125 Q47.7656,20.6875 49.0781,19.0313 Q50.4063,17.375 52.9063,17.375 Q53.6094,17.375 54.25,17.5313 Q54.9063,17.6875 55.4688,17.9844 L55.4688,20.7031 Q54.8438,20.125 54.25,19.8594 Q53.6563,19.5781 53.0313,19.5781 Q51.6875,19.5781 51,20.6563 Q50.3125,21.7188 50.3125,23.8125 Q50.3125,25.9063 51,26.9844 Q51.6875,28.0469 53.0313,28.0469 Q53.6563,28.0469 54.25,27.7813 Q54.8438,27.5 55.4688,26.9219 L55.4688,29.6406 Z "/><text fill="#000000" font-family="sans-serif" font-size="12" lengthAdjust="spacingAndGlyphs" textLength="96" x="66.5" y="28.1543">MonoBehaviour</text><line style="stroke: #A80036; stroke-width: 1.5;" x1="38.5" x2="164.5" y1="40" y2="40"/><line style="stroke: #A80036; stroke-width: 1.5;" x1="38.5" x2="164.5" y1="48" y2="48"/><!--MD5=[d5c773497e95a55e2ab25c36ff1c0438]
reverse link MonoBehaviour to PickUpSystemComponent--><path d="M101.5,76.43 C101.5,89.33 101.5,103.32 101.5,115.71 " fill="none" id="MonoBehaviour&lt;-PickUpSystemComponent" style="stroke: #A80036; stroke-width: 1.0;"/><polygon fill="none" points="94.5,76.23,101.5,56.23,108.5,76.23,94.5,76.23" style="stroke: #A80036; stroke-width: 1.0;"/><!--MD5=[ffb9774130660364c25d0a9d3f51df10]
@startuml
class PickUpSystemComponent {
    + Awake() : void
    + Interact() : void
}
MonoBehaviour <|- - PickUpSystemComponent
@enduml

PlantUML version 1.2020.02(Sun Mar 01 10:22:07 GMT 2020)
(GPL source distribution)
Java Runtime: OpenJDK Runtime Environment
JVM: OpenJDK 64-Bit Server VM
Java Version: 11.0.9+11-Ubuntu-0ubuntu1
Operating System: Linux
Default Encoding: ANSI_X3.4-1968
Language: en
Country: US
--></g></svg>