<?xml version="1.0" encoding="UTF-8" standalone="no"?><svg xmlns="http://www.w3.org/2000/svg" xmlns:xlink="http://www.w3.org/1999/xlink" contentScriptType="application/ecmascript" contentStyleType="text/css" height="309px" preserveAspectRatio="none" style="width:217px;height:309px;" version="1.1" viewBox="0 0 217 309" width="217px" zoomAndPan="magnify"><defs><filter height="300%" id="fr0tjpo0m03qt" width="300%" x="-1" y="-1"><feGaussianBlur result="blurOut" stdDeviation="2.0"/><feColorMatrix in="blurOut" result="blurOut2" type="matrix" values="0 0 0 0 0 0 0 0 0 0 0 0 0 0 0 0 0 0 .4 0"/><feOffset dx="4.0" dy="4.0" in="blurOut2" result="blurOut3"/><feBlend in="SourceGraphic" in2="blurOut3" mode="normal"/></filter></defs><g><!--MD5=[c6ffb2f65eeeb941dba74ad82969dfb7]
class PickableItemObject--><rect fill="#FEFECE" filter="url(#fr0tjpo0m03qt)" height="73.6094" id="PickableItemObject" style="stroke: #A80036; stroke-width: 1.5;" width="195" x="11.5" y="116"/><ellipse cx="46.3" cy="132" fill="#ADD1B2" rx="11" ry="11" style="stroke: #A80036; stroke-width: 1.0;"/><path d="M49.2688,137.6406 Q48.6906,137.9375 48.05,138.0781 Q47.4094,138.2344 46.7063,138.2344 Q44.2063,138.2344 42.8781,136.5938 Q41.5656,134.9375 41.5656,131.8125 Q41.5656,128.6875 42.8781,127.0313 Q44.2063,125.375 46.7063,125.375 Q47.4094,125.375 48.05,125.5313 Q48.7063,125.6875 49.2688,125.9844 L49.2688,128.7031 Q48.6438,128.125 48.05,127.8594 Q47.4563,127.5781 46.8313,127.5781 Q45.4875,127.5781 44.8,128.6563 Q44.1125,129.7188 44.1125,131.8125 Q44.1125,133.9063 44.8,134.9844 Q45.4875,136.0469 46.8313,136.0469 Q47.4563,136.0469 48.05,135.7813 Q48.6438,135.5 49.2688,134.9219 L49.2688,137.6406 Z "/><text fill="#000000" font-family="sans-serif" font-size="12" lengthAdjust="spacingAndGlyphs" textLength="119" x="64.7" y="136.1543">PickableItemObject</text><line style="stroke: #A80036; stroke-width: 1.5;" x1="12.5" x2="205.5" y1="148" y2="148"/><ellipse cx="22.5" cy="159" fill="none" rx="3" ry="3" style="stroke: #038048; stroke-width: 1.0;"/><text fill="#000000" font-family="sans-serif" font-size="11" lengthAdjust="spacingAndGlyphs" textLength="169" x="31.5" y="162.2104">Quantity : int «get» «set» = 1</text><line style="stroke: #A80036; stroke-width: 1.5;" x1="12.5" x2="205.5" y1="168.8047" y2="168.8047"/><ellipse cx="22.5" cy="179.8047" fill="#84BE84" rx="3" ry="3" style="stroke: #038048; stroke-width: 1.0;"/><text fill="#000000" font-family="sans-serif" font-size="11" lengthAdjust="spacingAndGlyphs" textLength="112" x="31.5" y="183.0151">DestroyItem() : void</text><!--MD5=[83b3cf3d23d77c6f1e1b5291a241bc2a]
class MonoBehaviour--><rect fill="#FEFECE" filter="url(#fr0tjpo0m03qt)" height="48" id="MonoBehaviour" style="stroke: #A80036; stroke-width: 1.5;" width="128" x="45" y="8"/><ellipse cx="60" cy="24" fill="#ADD1B2" rx="11" ry="11" style="stroke: #A80036; stroke-width: 1.0;"/><path d="M62.9688,29.6406 Q62.3906,29.9375 61.75,30.0781 Q61.1094,30.2344 60.4063,30.2344 Q57.9063,30.2344 56.5781,28.5938 Q55.2656,26.9375 55.2656,23.8125 Q55.2656,20.6875 56.5781,19.0313 Q57.9063,17.375 60.4063,17.375 Q61.1094,17.375 61.75,17.5313 Q62.4063,17.6875 62.9688,17.9844 L62.9688,20.7031 Q62.3438,20.125 61.75,19.8594 Q61.1563,19.5781 60.5313,19.5781 Q59.1875,19.5781 58.5,20.6563 Q57.8125,21.7188 57.8125,23.8125 Q57.8125,25.9063 58.5,26.9844 Q59.1875,28.0469 60.5313,28.0469 Q61.1563,28.0469 61.75,27.7813 Q62.3438,27.5 62.9688,26.9219 L62.9688,29.6406 Z "/><text fill="#000000" font-family="sans-serif" font-size="12" lengthAdjust="spacingAndGlyphs" textLength="96" x="74" y="28.1543">MonoBehaviour</text><line style="stroke: #A80036; stroke-width: 1.5;" x1="46" x2="172" y1="40" y2="40"/><line style="stroke: #A80036; stroke-width: 1.5;" x1="46" x2="172" y1="48" y2="48"/><!--MD5=[347a1eabe30042236e9d8c2b5c07785b]
class ItemSO--><rect fill="#FEFECE" filter="url(#fr0tjpo0m03qt)" height="48" id="ItemSO" style="stroke: #A80036; stroke-width: 1.5;" width="76" x="71" y="250"/><ellipse cx="86" cy="266" fill="#ADD1B2" rx="11" ry="11" style="stroke: #A80036; stroke-width: 1.0;"/><path d="M88.9688,271.6406 Q88.3906,271.9375 87.75,272.0781 Q87.1094,272.2344 86.4063,272.2344 Q83.9063,272.2344 82.5781,270.5938 Q81.2656,268.9375 81.2656,265.8125 Q81.2656,262.6875 82.5781,261.0313 Q83.9063,259.375 86.4063,259.375 Q87.1094,259.375 87.75,259.5313 Q88.4063,259.6875 88.9688,259.9844 L88.9688,262.7031 Q88.3438,262.125 87.75,261.8594 Q87.1563,261.5781 86.5313,261.5781 Q85.1875,261.5781 84.5,262.6563 Q83.8125,263.7188 83.8125,265.8125 Q83.8125,267.9063 84.5,268.9844 Q85.1875,270.0469 86.5313,270.0469 Q87.1563,270.0469 87.75,269.7813 Q88.3438,269.5 88.9688,268.9219 L88.9688,271.6406 Z "/><text fill="#000000" font-family="sans-serif" font-size="12" lengthAdjust="spacingAndGlyphs" textLength="44" x="100" y="270.1543">ItemSO</text><line style="stroke: #A80036; stroke-width: 1.5;" x1="72" x2="146" y1="282" y2="282"/><line style="stroke: #A80036; stroke-width: 1.5;" x1="72" x2="146" y1="290" y2="290"/><!--MD5=[06c028b83ad6a50f1848d55b555bd30b]
reverse link MonoBehaviour to PickableItemObject--><path d="M109,76.43 C109,89.33 109,103.32 109,115.71 " fill="none" id="MonoBehaviour&lt;-PickableItemObject" style="stroke: #A80036; stroke-width: 1.0;"/><polygon fill="none" points="102,76.23,109,56.23,116,76.23,102,76.23" style="stroke: #A80036; stroke-width: 1.0;"/><!--MD5=[4ae6d5f9be20c78f38fb99839a887d78]
link PickableItemObject to ItemSO--><path d="M109,190.03 C109,207.48 109,228.15 109,244.49 " fill="none" id="PickableItemObject-&gt;ItemSO" style="stroke: #A80036; stroke-width: 1.0;"/><polygon fill="#A80036" points="109,249.85,113,240.85,109,244.85,105,240.85,109,249.85" style="stroke: #A80036; stroke-width: 1.0;"/><text fill="#000000" font-family="sans-serif" font-size="13" lengthAdjust="spacingAndGlyphs" textLength="88" x="9.725" y="238.8236">InventoryItem</text><!--MD5=[57e7c6d2b4aea4822eb37000ef2f9711]
@startuml
class PickableItemObject {
    + Quantity : int <<get>> <<set>> = 1
    + DestroyItem() : void
}
MonoBehaviour <|- - PickableItemObject
PickableItemObject - -> "InventoryItem" ItemSO
@enduml

PlantUML version 1.2020.02(Sun Mar 01 10:22:07 GMT 2020)
(GPL source distribution)
Java Runtime: OpenJDK Runtime Environment
JVM: OpenJDK 64-Bit Server VM
Java Version: 11.0.9+11-Ubuntu-0ubuntu1
Operating System: Linux
Default Encoding: ANSI_X3.4-1968
Language: en
Country: US
--></g></svg>