<?xml version="1.0" encoding="UTF-8" standalone="no"?><svg xmlns="http://www.w3.org/2000/svg" xmlns:xlink="http://www.w3.org/1999/xlink" contentScriptType="application/ecmascript" contentStyleType="text/css" height="283px" preserveAspectRatio="none" style="width:183px;height:283px;" version="1.1" viewBox="0 0 183 283" width="183px" zoomAndPan="magnify"><defs><filter height="300%" id="fiaa3x0jn7uyx" width="300%" x="-1" y="-1"><feGaussianBlur result="blurOut" stdDeviation="2.0"/><feColorMatrix in="blurOut" result="blurOut2" type="matrix" values="0 0 0 0 0 0 0 0 0 0 0 0 0 0 0 0 0 0 .4 0"/><feOffset dx="4.0" dy="4.0" in="blurOut2" result="blurOut3"/><feBlend in="SourceGraphic" in2="blurOut3" mode="normal"/></filter></defs><g><!--MD5=[ed27a96dfd2bfcca46f2df174717fe13]
class WieldObjectController--><rect fill="#FEFECE" filter="url(#fiaa3x0jn7uyx)" height="48" id="WieldObjectController" style="stroke: #A80036; stroke-width: 1.5;" width="166" x="6" y="116"/><ellipse cx="21" cy="132" fill="#ADD1B2" rx="11" ry="11" style="stroke: #A80036; stroke-width: 1.0;"/><path d="M23.9688,137.6406 Q23.3906,137.9375 22.75,138.0781 Q22.1094,138.2344 21.4063,138.2344 Q18.9063,138.2344 17.5781,136.5938 Q16.2656,134.9375 16.2656,131.8125 Q16.2656,128.6875 17.5781,127.0313 Q18.9063,125.375 21.4063,125.375 Q22.1094,125.375 22.75,125.5313 Q23.4063,125.6875 23.9688,125.9844 L23.9688,128.7031 Q23.3438,128.125 22.75,127.8594 Q22.1563,127.5781 21.5313,127.5781 Q20.1875,127.5781 19.5,128.6563 Q18.8125,129.7188 18.8125,131.8125 Q18.8125,133.9063 19.5,134.9844 Q20.1875,136.0469 21.5313,136.0469 Q22.1563,136.0469 22.75,135.7813 Q23.3438,135.5 23.9688,134.9219 L23.9688,137.6406 Z "/><text fill="#000000" font-family="sans-serif" font-size="12" lengthAdjust="spacingAndGlyphs" textLength="134" x="35" y="136.1543">WieldObjectController</text><line style="stroke: #A80036; stroke-width: 1.5;" x1="7" x2="171" y1="148" y2="148"/><line style="stroke: #A80036; stroke-width: 1.5;" x1="7" x2="171" y1="156" y2="156"/><!--MD5=[83b3cf3d23d77c6f1e1b5291a241bc2a]
class MonoBehaviour--><rect fill="#FEFECE" filter="url(#fiaa3x0jn7uyx)" height="48" id="MonoBehaviour" style="stroke: #A80036; stroke-width: 1.5;" width="128" x="25" y="8"/><ellipse cx="40" cy="24" fill="#ADD1B2" rx="11" ry="11" style="stroke: #A80036; stroke-width: 1.0;"/><path d="M42.9688,29.6406 Q42.3906,29.9375 41.75,30.0781 Q41.1094,30.2344 40.4063,30.2344 Q37.9063,30.2344 36.5781,28.5938 Q35.2656,26.9375 35.2656,23.8125 Q35.2656,20.6875 36.5781,19.0313 Q37.9063,17.375 40.4063,17.375 Q41.1094,17.375 41.75,17.5313 Q42.4063,17.6875 42.9688,17.9844 L42.9688,20.7031 Q42.3438,20.125 41.75,19.8594 Q41.1563,19.5781 40.5313,19.5781 Q39.1875,19.5781 38.5,20.6563 Q37.8125,21.7188 37.8125,23.8125 Q37.8125,25.9063 38.5,26.9844 Q39.1875,28.0469 40.5313,28.0469 Q41.1563,28.0469 41.75,27.7813 Q42.3438,27.5 42.9688,26.9219 L42.9688,29.6406 Z "/><text fill="#000000" font-family="sans-serif" font-size="12" lengthAdjust="spacingAndGlyphs" textLength="96" x="54" y="28.1543">MonoBehaviour</text><line style="stroke: #A80036; stroke-width: 1.5;" x1="26" x2="152" y1="40" y2="40"/><line style="stroke: #A80036; stroke-width: 1.5;" x1="26" x2="152" y1="48" y2="48"/><!--MD5=[2fa2e6c8d96871201c4f0ee09c3e8737]
class InventoryItem--><rect fill="#FEFECE" filter="url(#fiaa3x0jn7uyx)" height="48" id="InventoryItem" style="stroke: #A80036; stroke-width: 1.5;" width="116" x="31" y="224"/><ellipse cx="46" cy="240" fill="#ADD1B2" rx="11" ry="11" style="stroke: #A80036; stroke-width: 1.0;"/><path d="M48.9688,245.6406 Q48.3906,245.9375 47.75,246.0781 Q47.1094,246.2344 46.4063,246.2344 Q43.9063,246.2344 42.5781,244.5938 Q41.2656,242.9375 41.2656,239.8125 Q41.2656,236.6875 42.5781,235.0313 Q43.9063,233.375 46.4063,233.375 Q47.1094,233.375 47.75,233.5313 Q48.4063,233.6875 48.9688,233.9844 L48.9688,236.7031 Q48.3438,236.125 47.75,235.8594 Q47.1563,235.5781 46.5313,235.5781 Q45.1875,235.5781 44.5,236.6563 Q43.8125,237.7188 43.8125,239.8125 Q43.8125,241.9063 44.5,242.9844 Q45.1875,244.0469 46.5313,244.0469 Q47.1563,244.0469 47.75,243.7813 Q48.3438,243.5 48.9688,242.9219 L48.9688,245.6406 Z "/><text fill="#000000" font-family="sans-serif" font-size="12" lengthAdjust="spacingAndGlyphs" textLength="84" x="60" y="244.1543">InventoryItem</text><line style="stroke: #A80036; stroke-width: 1.5;" x1="32" x2="146" y1="256" y2="256"/><line style="stroke: #A80036; stroke-width: 1.5;" x1="32" x2="146" y1="264" y2="264"/><!--MD5=[c513ee223f08116a01e2f3bd1c94ebb8]
reverse link MonoBehaviour to WieldObjectController--><path d="M89,76.02 C89,89.58 89,104.04 89,115.68 " fill="none" id="MonoBehaviour&lt;-WieldObjectController" style="stroke: #A80036; stroke-width: 1.0;"/><polygon fill="none" points="82,76,89,56,96,76,82,76" style="stroke: #A80036; stroke-width: 1.0;"/><!--MD5=[c1c420cab229dd1946aa70949c81f3c8]
link WieldObjectController to InventoryItem--><path d="M89,164 C89,180 89,201.45 89,218.53 " fill="none" id="WieldObjectController-&gt;InventoryItem" style="stroke: #A80036; stroke-width: 1.0;"/><polygon fill="#A80036" points="89,223.68,93,214.68,89,218.68,85,214.68,89,223.68" style="stroke: #A80036; stroke-width: 1.0;"/><text fill="#000000" font-family="sans-serif" font-size="13" lengthAdjust="spacingAndGlyphs" textLength="60" x="21.6875" y="213.007">wieldItem</text><!--MD5=[b3344f2647b4ecd9e0bfe484f087d2ca]
@startuml
class WieldObjectController {
}
MonoBehaviour <|- - WieldObjectController
WieldObjectController - -> "wieldItem" InventoryItem
@enduml

PlantUML version 1.2020.02(Sun Mar 01 10:22:07 GMT 2020)
(GPL source distribution)
Java Runtime: OpenJDK Runtime Environment
JVM: OpenJDK 64-Bit Server VM
Java Version: 11.0.9+11-Ubuntu-0ubuntu1
Operating System: Linux
Default Encoding: ANSI_X3.4-1968
Language: en
Country: US
--></g></svg>